{
.formatVersion = 3;
classes = (
{
code = "zero one two three four five six seven eight nine A B C D E F G H I J K L M N O P Q R S T U V W X Y Z uni0410 uni0411 uni0412 uni0413 uni0414 uni0415 uni0416 uni0417 uni0418 uni0419 uni041A uni041B uni041C uni041D uni041E uni041F uni0420 uni0421 uni0422 uni0423 uni0424 uni0425 uni0426 uni0427 uni0428 uni0429 uni042A uni042B uni042C uni042D uni042E uni042F uni0401 K_alt W_alt Acircumflex Adieresis Ccedilla Ecircumflex Icircumflex Odieresis Udieresis Abreve Idotaccent Scedilla uni0162 uni0218 uni021A uni04C1";
name = calt1;
},
{
code = "o a c d e g q s u y t acircumflex adieresis ccedilla ecircumflex odieresis udieresis u_alt y_alt s_alt c_alt t_alt t2.alt g_alt a_alt abreve scedilla uni0163 uni0219 uni021B uni0430 uni0431 uni0435 uni0437 uni043E uni0441 uni0444 uni044D uni0451 space zero one three five six seven eight nine f v endash emdash uni00AD hyphen.uc uni00AD.uc endash.uc emdash.uc minus hyphen t0163.alt t021b.alt a2_alt a00E2.alt a00E4.alt a0103.alt";
name = calt2;
},
{
code = "uniE000 uniE001 uniE002 uniE003 uniE004 uniE005 uniE006 uniE007 uniE008 uniE009 uniE010 uniE011 uniE012 uniE013 uniE014 uniE015 uniE016 uniE017 uniE018 uniE019 uniE020 uniE021 uniE022";
name = tnum1;
},
{
code = "zero one two three four five six seven eight nine period comma colon semicolon quotesingle quotedbl quoteright quotedblright quoteleft quotedblleft quotesinglbase quotedblbase colon.uc";
name = pnum1;
}
);
familyName = Onest;
customParameters = (
{
name = glyphOrder;
value = (
.notdef,
NULL,
CR,
space,
B,
D,
E,
F,
H,
I,
L,
M,
N,
P,
R,
U,
V,
W,
X,
Y,
Z,
b,
d,
h,
i,
l,
m,
n,
p,
q,
u,
v,
w,
x,
z,
period,
comma,
A,
breve,
circumflex,
uni0326,
acircumflex,
exclam,
quotedbl,
quotesingle,
numbersign,
percent,
asterisk,
plus,
slash,
colon,
semicolon,
less,
equal,
greater,
at,
bracketleft,
bracketright,
backslash,
asciicircum,
underscore,
braceleft,
bar,
braceright,
Euro,
quotedblbase,
quotesinglbase,
quotedblright,
quoteright,
quotedblleft,

glyphs = (
{
glyphname = .notdef;
layers = (
{
layerId = "690A5C2F-BA8A-4547-B0C9-560CF3D7C21C";
shapes = (
{
closed = 1;
nodes = (
(20,960,l),
(560,960,l),
(560,-295,l),
(20,-295,l)
);
},
{
closed = 1;
nodes = (
(30,-285,l),
(550,-285,l),
(550,950,l),
(30,950,l)
);
}
);
width = 580;
}
);
},
{
glyphname = B;
layers = (
{
layerId = "690A5C2F-BA8A-4547-B0C9-560CF3D7C21C";
shapes = (
{
closed = 1;
nodes = (
(66,0,l),
(66,708,l),
(418,708,ls),
(538,708,o),
(632,662,o),
(632,519,cs),
(632,468,o),
(607,417,o),
(566,390,c),
(622,363,o),
(662,310,o),
(662,225,cs),
(662,148,o),
(630,94,o),
(589,59,cs),
(529,10,o),
(447,0,o),
(360,0,cs)
);
},
{
closed = 1;
nodes = (
(247,167,l),
(391,167,ls),
(455,167,o),
(481,192,o),
(481,229,cs),
(481,268,o),
(453,287,o),
(398,287,cs),
(247,287,l)
);
},
{
closed = 1;
nodes = (
(374,433,ls),
(430,433,o),
(452,460,o),
(452,494,cs),
(452,531,o),
(423,541,o),
(376,541,cs),
(247,541,l),
(247,433,l)
);
}
);
width = 691;
}
);
leftKerningGroup = _kern1;
unicode = 66;
},
{
glyphname = D;
layers = (
{
layerId = "690A5C2F-BA8A-4547-B0C9-560CF3D7C21C";
shapes = (
{
closed = 1;
nodes = (
(67,0,l),
(67,708,l),
(344,708,ls),
(568,708,o),
(708,588,o),
(708,351,cs),
(708,119,o),
(574,0,o),
(346,0,cs)
);
},
{
closed = 1;
nodes = (
(348,167,ls),
(481,167,o),
(525,243,o),
(525,353,cs),
(525,459,o),
(485,540,o),
(341,540,cs),
(248,540,l),
(248,167,l)
);
}
);
width = 737;
}
);
leftKerningGroup = _kern1;
rightKerningGroup = _kern4;
unicode = 68;
},
{
glyphname = E;
layers = (
{
layerId = "690A5C2F-BA8A-4547-B0C9-560CF3D7C21C";
shapes = (
{
closed = 1;
nodes = (
(601,708,l),
(601,540,l),
(248,540,l),
(248,432,l),
(539,432,l),
(539,272,l),
(248,272,l),
(248,167,l),
(601,167,l),
(601,0,l),
(67,0,l),
(67,708,l)
);
}
);
width = 629;
}
);
leftKerningGroup = _kern1;
unicode = 69;
},
{
glyphname = F;
layers = (
{
layerId = "690A5C2F-BA8A-4547-B0C9-560CF3D7C21C";
shapes = (
{
closed = 1;
nodes = (
(590,708,l),
(590,540,l),
(248,540,l),
(248,411,l),
(530,411,l),
(530,245,l),
(248,245,l),
(248,0,l),
(67,0,l),
(67,708,l)
);
}
);
width = 607;
}
);
leftKerningGroup = _kern1;
unicode = 70;
},
{
glyphname = H;
layers = (
{
layerId = "690A5C2F-BA8A-4547-B0C9-560CF3D7C21C";
shapes = (
{
closed = 1;
nodes = (
(248,433,l),
(505,433,l),
(505,708,l),
(686,708,l),
(686,0,l),
(505,0,l),
(505,267,l),
(248,267,l),
(248,0,l),
(67,0,l),
(67,708,l),
(248,708,l)
);
}
);
width = 753;
}
);
leftKerningGroup = _kern1;
rightKerningGroup = _kern2;
unicode = 72;
},
{
glyphname = I;
layers = (
{
layerId = "690A5C2F-BA8A-4547-B0C9-560CF3D7C21C";
shapes = (
{
closed = 1;
nodes = (
(248,0,l),
(67,0,l),
(67,708,l),
(248,708,l)
);
}
);
width = 315;
}
);
leftKerningGroup = _kern1;
rightKerningGroup = _kern2;
unicode = 73;
},
{
glyphname = L;
layers = (
{
layerId = "690A5C2F-BA8A-4547-B0C9-560CF3D7C21C";
shapes = (
{
closed = 1;
nodes = (
(248,167,l),
(587,167,l),
(587,0,l),
(67,0,l),
(67,708,l),
(248,708,l)
);
}
);
width = 607;
}
);
unicode = 76;
},
{
glyphname = M;
layers = (
{
layerId = "690A5C2F-BA8A-4547-B0C9-560CF3D7C21C";
shapes = (
{
closed = 1;
nodes = (
(296,708,l),
(469,398,l),
(641,708,l),
(861,708,l),
(861,0,l),
(680,0,l),
(680,451,l),
(501,140,l),
(430,140,l),
(248,451,l),
(248,0,l),
(67,0,l),
(67,708,l)
);
}
);
width = 928;
}
);
leftKerningGroup = _kern1;
rightKerningGroup = _kern2;
unicode = 77;
},
{
glyphname = N;
layers = (
{
layerId = "690A5C2F-BA8A-4547-B0C9-560CF3D7C21C";
shapes = (
{
closed = 1;
nodes = (
(236,708,l),
(535,303,l),
(535,708,l),
(716,708,l),
(716,0,l),
(552,0,l),
(248,399,l),
(248,0,l),
(67,0,l),
(67,708,l)
);
}
);
width = 783;
}
);
leftKerningGroup = _kern1;
rightKerningGroup = _kern2;
unicode = 78;
},
{
glyphname = P;
layers = (
{
layerId = "690A5C2F-BA8A-4547-B0C9-560CF3D7C21C";
shapes = (
{
closed = 1;
nodes = (
(364,708,ls),
(529,708,o),
(645,646,o),
(645,457,cs),
(645,282,o),
(520,199,o),
(357,199,cs),
(248,199,l),
(248,0,l),
(67,0,l),
(67,708,l)
);
},
{
closed = 1;
nodes = (
(357,360,ls),
(426,360,o),
(467,395,o),
(467,456,cs),
(467,510,o),
(436,540,o),
(356,540,cs),
(248,540,l),
(248,360,l)
);
}
);
width = 669;
}
);
leftKerningGroup = _kern1;
unicode = 80;
},
{
glyphname = R;
layers = (
{
layerId = "690A5C2F-BA8A-4547-B0C9-560CF3D7C21C";
shapes = (
{
closed = 1;
nodes = (
(366,708,ls),
(494,708,o),
(652,673,o),
(652,475,cs),
(652,382,o),
(612,304,o),
(513,267,c),
(677,0,l),
(471,0,l),
(335,239,l),
(248,239,l),
(248,0,l),
(67,0,l),
(67,708,l)
);
},
{
closed = 1;
nodes = (
(367,398,ls),
(435,398,o),
(473,424,o),
(473,474,cs),
(473,530,o),
(427,540,o),
(370,540,cs),
(248,540,l),
(248,398,l)
);
}
);
width = 710;
}
);
leftKerningGroup = _kern1;
unicode = 82;
},
{
glyphname = U;
layers = (
{
layerId = "690A5C2F-BA8A-4547-B0C9-560CF3D7C21C";
shapes = (
{
closed = 1;
nodes = (
(161,-8,o),
(62,106,o),
(62,326,cs),
(62,708,l),
(243,708,l),
(243,315,ls),
(243,238,o),
(272,161,o),
(376,161,cs),
(481,161,o),
(502,240,o),
(502,315,cs),
(502,708,l),
(683,708,l),
(683,326,ls),
(683,107,o),
(587,-8,o),
(374,-8,cs)
);
}
);
width = 745;
}
);
unicode = 85;
},
{
glyphname = V;
layers = (
{
layerId = "690A5C2F-BA8A-4547-B0C9-560CF3D7C21C";
shapes = (
{
closed = 1;
nodes = (
(540,708,l),
(736,708,l),
(484,0,l),
(254,0,l),
(0,708,l),
(197,708,l),
(372,152,l)
);
}
);
width = 736;
}
);
unicode = 86;
},
{
glyphname = W;
layers = (
{
layerId = "690A5C2F-BA8A-4547-B0C9-560CF3D7C21C";
shapes = (
{
closed = 1;
nodes = (
(161,0,l),
(0,708,l),
(201,708,l),
(300,212,l),
(405,708,l),
(631,708,l),
(734,212,l),
(828,708,l),
(1018,708,l),
(860,0,l),
(618,0,l),
(515,478,l),
(413,0,l)
);
}
);
width = 1018;
}
);
leftKerningGroup = _kern19;
rightKerningGroup = _kern19;
unicode = 87;
},
{
glyphname = X;
layers = (
{
layerId = "690A5C2F-BA8A-4547-B0C9-560CF3D7C21C";
shapes = (
{
closed = 1;
nodes = (
(500,708,l),
(712,708,l),
(471,354,l),
(719,0,l),
(501,0,l),
(356,225,l),
(205,0,l),
(0,0,l),
(250,355,l),
(8,708,l),
(225,708,l),
(364,483,l)
);
}
);
width = 719;
}
);
unicode = 88;
},
{
glyphname = Y;
layers = (
{
layerId = "690A5C2F-BA8A-4547-B0C9-560CF3D7C21C";
shapes = (
{
closed = 1;
nodes = (
(522,708,l),
(727,708,l),
(453,264,l),
(453,0,l),
(272,0,l),
(272,263,l),
(0,708,l),
(209,708,l),
(363,427,l)
);
}
);
width = 727;
}
);
leftKerningGroup = _kern31;
rightKerningGroup = _kern31;
unicode = 89;
},
{
glyphname = Z;
layers = (
{
layerId = "690A5C2F-BA8A-4547-B0C9-560CF3D7C21C";
shapes = (
{
closed = 1;
nodes = (
(33,540,l),
(33,708,l),
(607,708,l),
(607,567,l),
(262,167,l),
(601,167,l),
(601,0,l),
(24,0,l),
(24,142,l),
(370,540,l)
);
}
);
width = 631;
}
);
unicode = 90;
},
{
glyphname = b;
layers = (
{
layerId = "690A5C2F-BA8A-4547-B0C9-560CF3D7C21C";
shapes = (
{
closed = 1;
nodes = (
(221,0,l),
(47,0,l),
(47,708,l),
(224,708,l),
(224,475,l),
(268,519,o),
(324,538,o),
(386,538,cs),
(538,538,o),
(610,423,o),
(610,264,cs),
(610,106,o),
(539,-8,o),
(381,-8,cs),
(342,-8,o),
(276,-8,o),
(221,55,c)
);
},
{
closed = 1;
nodes = (
(260,376,o),
(224,326,o),
(224,264,cs),
(224,205,o),
(257,150,o),
(332,150,cs),
(415,150,o),
(436,217,o),
(436,270,cs),
(436,322,o),
(409,376,o),
(333,376,cs)
);
}
);
width = 637;
}
);
rightKerningGroup = _kern6;
unicode = 98;
},
{
glyphname = d;
layers = (
{
layerId = "690A5C2F-BA8A-4547-B0C9-560CF3D7C21C";
shapes = (
{
closed = 1;
nodes = (
(419,0,l),
(419,46,l),
(381,10,o),
(329,-8,o),
(268,-8,cs),
(106,-8,o),
(27,117,o),
(27,265,cs),
(27,426,o),
(119,539,o),
(283,538,cs),
(336,538,o),
(386,521,o),
(415,490,c),
(415,708,l),
(592,708,l),
(592,0,l)
);
},
{
closed = 1;
nodes = (
(228,376,o),
(203,313,o),
(203,261,cs),
(203,207,o),
(231,153,o),
(307,153,cs),
(386,153,o),
(415,210,o),
(415,264,cs),
(415,319,o),
(385,376,o),
(308,376,cs)
);
}
);
width = 639;
}
);
leftKerningGroup = _kern5;
unicode = 100;
},
{
glyphname = h;
layers = (
{
layerId = "690A5C2F-BA8A-4547-B0C9-560CF3D7C21C";
shapes = (
{
closed = 1;
nodes = (
(224,479,l),
(273,531,o),
(344,538,o),
(380,538,cs),
(524,538,o),
(570,423,o),
(570,291,cs),
(570,0,l),
(393,0,l),
(393,276,ls),
(393,319,o),
(375,376,o),
(309,376,cs),
(247,376,o),
(224,325,o),
(224,272,cs),
(224,0,l),
(47,0,l),
(47,708,l),
(224,708,l)
);
}
);
width = 614;
}
);
unicode = 104;
},
{
glyphname = i;
layers = (
{
layerId = "690A5C2F-BA8A-4547-B0C9-560CF3D7C21C";
shapes = (
{
closed = 1;
nodes = (
(235,0,l),
(59,0,l),
(59,527,l),
(235,527,l)
);
},
{
closed = 1;
nodes = (
(204,777,o),
(253,737,o),
(253,670,cs),
(253,603,o),
(203,567,o),
(146,567,cs),
(91,567,o),
(39,601,o),
(39,668,cs),
(39,737,o),
(95,777,o),
(149,777,cs)
);
}
);
width = 292;
}
);
unicode = 105;
},
{
glyphname = l;
layers = (
{
layerId = "690A5C2F-BA8A-4547-B0C9-560CF3D7C21C";
shapes = (
{
closed = 1;
nodes = (
(224,0,l),
(47,0,l),
(47,708,l),
(224,708,l)
);
}
);
width = 272;
}
);
unicode = 108;
},
{
glyphname = m;
layers = (
{
layerId = "690A5C2F-BA8A-4547-B0C9-560CF3D7C21C";
shapes = (
{
closed = 1;
nodes = (
(219,471,l),
(265,533,o),
(328,537,o),
(357,537,cs),
(413,537,o),
(466,522,o),
(499,466,c),
(545,525,o),
(604,537,o),
(652,537,cs),
(779,537,o),
(831,454,o),
(831,327,cs),
(831,0,l),
(654,0,l),
(654,294,ls),
(654,325,o),
(649,376,o),
(597,376,cs),
(542,376,o),
(529,330,o),
(529,284,cs),
(529,0,l),
(352,0,l),
(352,295,ls),
(352,323,o),
(347,376,o),
(289,376,cs),
(226,376,o),
(224,313,o),
(224,279,cs),
(224,0,l),
(47,0,l),
(47,527,l),
(203,527,l)
);
}
);
width = 874;
}
);
unicode = 109;
},
{
glyphname = n;
layers = (
{
layerId = "690A5C2F-BA8A-4547-B0C9-560CF3D7C21C";
shapes = (
{
closed = 1;
nodes = (
(220,479,l),
(269,530,o),
(336,538,o),
(375,538,cs),
(523,538,o),
(570,425,o),
(570,291,cs),
(570,0,l),
(393,0,l),
(393,276,ls),
(393,319,o),
(378,376,o),
(315,376,cs),
(252,376,o),
(224,329,o),
(224,272,cs),
(224,0,l),
(47,0,l),
(47,527,l),
(210,527,l)
);
}
);
width = 614;
}
);
unicode = 110;
},
{
glyphname = p;
layers = (
{
layerId = "690A5C2F-BA8A-4547-B0C9-560CF3D7C21C";
shapes = (
{
closed = 1;
nodes = (
(259,376,o),
(224,320,o),
(224,264,cs),
(224,209,o),
(257,153,o),
(335,153,cs),
(415,153,o),
(436,213,o),
(436,260,cs),
(436,314,o),
(409,376,o),
(332,376,cs)
);
},
{
closed = 1;
nodes = (
(220,469,l),
(268,521,o),
(316,538,o),
(380,538,cs),
(531,538,o),
(610,418,o),
(610,266,cs),
(610,109,o),
(525,-8,o),
(371,-8,cs),
(308,-8,o),
(252,17,o),
(224,45,c),
(224,-201,l),
(47,-201,l),
(47,527,l),
(211,527,l)
);
}
);
width = 637;
}
);
rightKerningGroup = _kern6;
unicode = 112;
},
{
glyphname = q;
layers = (
{
layerId = "690A5C2F-BA8A-4547-B0C9-560CF3D7C21C";
shapes = (
{
closed = 1;
nodes = (
(236,376,o),
(203,319,o),
(203,266,cs),
(203,213,o),
(235,153,o),
(311,153,cs),
(382,153,o),
(415,204,o),
(415,262,cs),
(415,323,o),
(379,376,o),
(309,376,cs)
);
},
{
closed = 1;
nodes = (
(429,527,l),
(592,527,l),
(592,-201,l),
(415,-201,l),
(415,42,l),
(372,2,o),
(315,-8,o),
(269,-8,cs),
(109,-8,o),
(27,111,o),
(27,260,cs),
(27,427,o),
(131,538,o),
(280,538,cs),
(338,538,o),
(389,521,o),
(420,481,c)
);
}
);
width = 639;
}
);
leftKerningGroup = _kern5;
unicode = 113;
},
{
glyphname = u;
layers = (
{
layerId = "690A5C2F-BA8A-4547-B0C9-560CF3D7C21C";
shapes = (
{
closed = 1;
nodes = (
(366,153,o),
(369,207,o),
(369,248,cs),
(369,527,l),
(545,527,l),
(545,234,ls),
(545,62,o),
(450,-8,o),
(299,-8,cs),
(137,-8,o),
(45,72,o),
(45,234,cs),
(45,527,l),
(222,527,l),
(222,248,ls),
(222,196,o),
(241,153,o),
(300,153,cs)
);
}
);
width = 591;
}
);
unicode = 117;
},
{
glyphname = v;
layers = (
{
layerId = "690A5C2F-BA8A-4547-B0C9-560CF3D7C21C";
shapes = (
{
closed = 1;
nodes = (
(386,527,l),
(577,527,l),
(404,0,l),
(168,0,l),
(-5,527,l),
(187,527,l),
(286,136,l)
);
}
);
width = 572;
}
);
unicode = 118;
},
{
glyphname = w;
layers = (
{
layerId = "690A5C2F-BA8A-4547-B0C9-560CF3D7C21C";
shapes = (
{
closed = 1;
nodes = (
(162,0,l),
(-5,527,l),
(187,527,l),
(265,212,l),
(352,527,l),
(538,527,l),
(624,212,l),
(701,527,l),
(888,527,l),
(721,0,l),
(530,0,l),
(441,309,l),
(354,0,l)
);
}
);
width = 883;
}
);
leftKerningGroup = _kern20;
rightKerningGroup = _kern20;
unicode = 119;
},
{
glyphname = x;
layers = (
{
layerId = "690A5C2F-BA8A-4547-B0C9-560CF3D7C21C";
shapes = (
{
closed = 1;
nodes = (
(380,527,l),
(578,527,l),
(404,266,l),
(590,0,l),
(385,0,l),
(291,154,l),
(196,0,l),
(0,0,l),
(182,269,l),
(10,527,l),
(213,527,l),
(297,384,l)
);
}
);
width = 590;
}
);
unicode = 120;
},
{
glyphname = z;
layers = (
{
layerId = "690A5C2F-BA8A-4547-B0C9-560CF3D7C21C";
shapes = (
{
closed = 1;
nodes = (
(478,400,l),
(255,159,l),
(478,159,l),
(478,0,l),
(27,0,l),
(27,128,l),
(250,369,l),
(27,369,l),
(27,527,l),
(478,527,l)
);
}
);
width = 505;
}
);
unicode = 122;
},
{
glyphname = period;
layers = (
{
layerId = "690A5C2F-BA8A-4547-B0C9-560CF3D7C21C";
shapes = (
{
closed = 1;
nodes = (
(206,195,o),
(252,156,o),
(252,87,cs),
(252,18,o),
(206,-17,o),
(150,-17,cs),
(94,-17,o),
(47,18,o),
(47,86,cs),
(47,155,o),
(96,195,o),
(151,195,cs)
);
}
);
width = 299;
}
);
leftKerningGroup = _kern14;
rightKerningGroup = _kern14;
unicode = 46;
},
{
glyphname = comma;
layers = (
{
layerId = "690A5C2F-BA8A-4547-B0C9-560CF3D7C21C";
shapes = (
{
closed = 1;
nodes = (
(47,-94,l),
(79,-83,o),
(140,-33,o),
(152,-6,c),
(108,-2,o),
(64,31,o),
(64,92,cs),
(64,159,o),
(116,194,o),
(171,194,cs),
(242,194,o),
(281,135,o),
(281,57,cs),
(281,-59,o),
(189,-146,o),
(98,-175,c)
);
}
);
width = 328;
}
);
leftKerningGroup = _kern14;
rightKerningGroup = _kern14;
unicode = 44;
},
{
glyphname = A;
layers = (
{
layerId = "690A5C2F-BA8A-4547-B0C9-560CF3D7C21C";
shapes = (
{
closed = 1;
nodes = (
(189,0,l),
(-5,0,l),
(279,708,l),
(463,708,l),
(744,0,l),
(549,0,l),
(514,100,l),
(225,100,l)
);
},
{
closed = 1;
nodes = (
(457,263,l),
(371,506,l),
(282,263,l)
);
}
);
width = 739;
}
);
leftKerningGroup = _kern30;
rightKerningGroup = _kern30;
unicode = 65;
},
{
glyphname = breve;
layers = (
{
layerId = "690A5C2F-BA8A-4547-B0C9-560CF3D7C21C";
shapes = (
{
closed = 1;
nodes = (
(170,577,o),
(93,638,o),
(93,769,c),
(235,769,l),
(235,757,ls),
(235,721,o),
(260,698,o),
(296,698,cs),
(333,698,o),
(357,720,o),
(357,757,cs),
(357,769,l),
(499,769,l),
(499,640,o),
(422,577,o),
(295,577,cs)
);
}
);
width = 592;
}
);
unicode = 728;
},
{
glyphname = circumflex;
layers = (
{
layerId = "690A5C2F-BA8A-4547-B0C9-560CF3D7C21C";
shapes = (
{
closed = 1;
nodes = (
(378,769,l),
(547,577,l),
(381,577,l),
(320,661,l),
(262,577,l),
(96,577,l),
(262,769,l)
);
}
);
width = 643;
}
);
unicode = 710;
},
{
glyphname = uni0326;
layers = (
{
layerId = "690A5C2F-BA8A-4547-B0C9-560CF3D7C21C";
shapes = (
{
closed = 1;
nodes = (
(-375,-238,l),
(-351,-229,o),
(-302,-194,o),
(-294,-173,c),
(-329,-172,o),
(-363,-148,o),
(-363,-105,cs),
(-363,-54,o),
(-324,-30,o),
(-281,-30,cs),
(-226,-31,o),
(-196,-73,o),
(-196,-132,cs),
(-196,-214,o),
(-265,-270,o),
(-336,-295,c)
);
}
);
width = 0;
}
);
unicode = 806;
},
{
glyphname = acircumflex;
layers = (
{
layerId = "690A5C2F-BA8A-4547-B0C9-560CF3D7C21C";
shapes = (
{
closed = 1;
nodes = (
(265,213,ls),
(232,213,o),
(204,201,o),
(204,170,cs),
(204,142,o),
(229,127,o),
(261,127,cs),
(317,127,o),
(361,169,o),
(364,213,c)
);
},
{
closed = 1;
nodes = (
(367,69,l),
(315,-10,o),
(232,-8,o),
(213,-8,cs),
(115,-8,o),
(29,44,o),
(29,153,cs),
(29,223,o),
(65,270,o),
(114,295,cs),
(175,326,o),
(253,322,o),
(338,322,cs),
(362,322,l),
(361,359,o),
(334,389,o),
(287,389,cs),
(252,389,o),
(219,373,o),
(215,350,c),
(39,350,l),
(55,481,o),
(170,537,o),
(295,537,cs),
(450,537,o),
(530,450,o),
(530,283,cs),
(530,0,l),
(367,0,l)
);
},
{
closed = 1;
nodes = (
(351,769,l),
(520,577,l),
(354,577,l),
(293,661,l),
(235,577,l),
(69,577,l),
(235,769,l)
);
}
);
width = 576;
}
);
leftKerningGroup = _kern27;
rightKerningGroup = _kern27;
unicode = 226;
},
{
glyphname = exclam;
layers = (
{
layerId = "690A5C2F-BA8A-4547-B0C9-560CF3D7C21C";
shapes = (
{
closed = 1;
nodes = (
(216,197,o),
(268,165,o),
(268,94,cs),
(268,22,o),
(213,-9,o),
(163,-9,cs),
(114,-9,o),
(57,22,o),
(57,94,cs),
(57,165,o),
(112,197,o),
(164,197,cs)
);
},
{
closed = 1;
nodes = (
(248,254,l),
(79,254,l),
(68,708,l),
(260,708,l)
);
}
);
width = 325;
}
);
unicode = 33;
},
{
glyphname = quotedbl;
layers = (
{
layerId = "690A5C2F-BA8A-4547-B0C9-560CF3D7C21C";
shapes = (
{
closed = 1;
nodes = (
(375,411,l),
(271,411,l),
(245,708,l),
(408,708,l)
);
},
{
closed = 1;
nodes = (
(168,411,l),
(65,411,l),
(39,708,l),
(202,708,l)
);
}
);
width = 447;
}
);
unicode = 34;
},
{
glyphname = quotesingle;
layers = (
{
layerId = "690A5C2F-BA8A-4547-B0C9-560CF3D7C21C";
shapes = (
{
closed = 1;
nodes = (
(182,411,l),
(79,411,l),
(47,708,l),
(216,708,l)
);
}
);
width = 263;
}
);
unicode = 39;
},
{
glyphname = numbersign;
layers = (
{
layerId = "690A5C2F-BA8A-4547-B0C9-560CF3D7C21C";
shapes = (
{
closed = 1;
nodes = (
(572,549,l),
(661,549,l),
(661,393,l),
(553,393,l),
(543,314,l),
(633,314,l),
(633,158,l),
(525,158,l),
(503,0,l),
(362,0,l),
(381,158,l),
(273,158,l),
(253,0,l),
(107,0,l),
(129,158,l),
(39,158,l),
(39,314,l),
(150,314,l),
(147,314,l),
(157,393,l),
(67,393,l),
(67,549,l),
(176,549,l),
(197,708,l),
(339,708,l),
(320,549,l),
(429,549,l),
(450,708,l),
(593,708,l)
);
},
{
closed = 1;
nodes = (
(290,314,l),
(400,314,l),
(410,393,l),
(300,393,l)
);
}
);
width = 700;
}
);
unicode = 35;
},
{
glyphname = percent;
layers = (
{
layerId = "690A5C2F-BA8A-4547-B0C9-560CF3D7C21C";
shapes = (
{
closed = 1;
nodes = (
(140,0,l),
(618,708,l),
(799,708,l),
(325,0,l)
);
},
{
closed = 1;
nodes = (
(334,717,o),
(413,650,o),
(413,533,cs),
(413,414,o),
(332,345,o),
(226,345,cs),
(118,345,o),
(39,414,o),
(39,529,cs),
(39,646,o),
(121,717,o),
(229,717,cs)
);
},
{
closed = 1;
nodes = (
(823,364,o),
(902,297,o),
(902,180,cs),
(902,60,o),
(819,-8,o),
(715,-8,cs),
(609,-8,o),
(527,60,o),
(527,177,cs),
(527,293,o),
(610,364,o),
(718,364,cs)
);
},
{
closed = 1;
nodes = (
(674,233,o),
(655,203,o),
(656,174,cs),
(657,147,o),
(675,120,o),
(715,120,cs),
(755,120,o),
(773,148,o),
(773,176,cs),
(773,204,o),
(754,233,o),
(715,233,cs)
);
},
{
closed = 1;
nodes = (
(185,587,o),
(166,557,o),
(167,528,cs),
(168,501,o),
(186,474,o),
(226,474,cs),
(266,474,o),
(284,502,o),
(284,530,cs),
(284,558,o),
(265,587,o),
(226,587,cs)
);
}
);
width = 941;
}
);
unicode = 37;
},
{
glyphname = asterisk;
layers = (
{
layerId = "690A5C2F-BA8A-4547-B0C9-560CF3D7C21C";
shapes = (
{
closed = 1;
nodes = (
(327,727,l),
(307,626,l),
(397,676,l),
(446,525,l),
(344,512,l),
(419,443,l),
(291,349,l),
(248,442,l),
(204,349,l),
(76,443,l),
(151,512,l),
(49,525,l),
(98,676,l),
(188,626,l),
(168,727,l)
);
}
);
width = 495;
}
);
unicode = 42;
},
{
glyphname = plus;
layers = (
{
layerId = "690A5C2F-BA8A-4547-B0C9-560CF3D7C21C";
shapes = (
{
closed = 1;
nodes = (
(375,282,l),
(375,113,l),
(218,113,l),
(218,282,l),
(54,282,l),
(54,440,l),
(218,440,l),
(218,607,l),
(375,607,l),
(375,440,l),
(539,440,l),
(539,282,l)
);
}
);
width = 593;
}
);
unicode = 43;
},
{
glyphname = slash;
layers = (
{
layerId = "690A5C2F-BA8A-4547-B0C9-560CF3D7C21C";
shapes = (
{
closed = 1;
nodes = (
(192,-160,l),
(19,-160,l),
(343,779,l),
(517,779,l)
);
}
);
width = 536;
}
);
unicode = 47;
},
{
glyphname = colon;
layers = (
{
layerId = "690A5C2F-BA8A-4547-B0C9-560CF3D7C21C";
shapes = (
{
closed = 1;
nodes = (
(210,531,o),
(258,492,o),
(258,423,cs),
(258,355,o),
(209,319,o),
(153,319,cs),
(97,319,o),
(47,354,o),
(47,422,cs),
(47,491,o),
(101,531,o),
(155,531,cs)
);
},
{
closed = 1;
nodes = (
(210,203,o),
(258,164,o),
(258,95,cs),
(258,27,o),
(209,-9,o),
(153,-9,cs),
(97,-9,o),
(47,26,o),
(47,94,cs),
(47,163,o),
(101,203,o),
(155,203,cs)
);
}
);
width = 305;
}
);
leftKerningGroup = _kern15;
unicode = 58;
},
{
glyphname = semicolon;
layers = (
{
layerId = "690A5C2F-BA8A-4547-B0C9-560CF3D7C21C";
shapes = (
{
closed = 1;
nodes = (
(47,-94,l),
(79,-83,o),
(140,-33,o),
(152,-6,c),
(108,-2,o),
(65,31,o),
(65,92,cs),
(65,159,o),
(116,194,o),
(171,194,cs),
(242,194,o),
(281,135,o),
(280,57,cs),
(278,-59,o),
(190,-145,o),
(98,-175,c)
);
},
{
closed = 1;
nodes = (
(228,531,o),
(276,492,o),
(276,423,cs),
(276,355,o),
(227,319,o),
(171,319,cs),
(115,319,o),
(65,354,o),
(65,422,cs),
(65,491,o),
(119,531,o),
(173,531,cs)
);
}
);
width = 327;
}
);
leftKerningGroup = _kern15;
unicode = 59;
},
{
glyphname = less;
layers = (
{
layerId = "690A5C2F-BA8A-4547-B0C9-560CF3D7C21C";
shapes = (
{
closed = 1;
nodes = (
(452,479,l),
(244,363,l),
(452,244,l),
(452,62,l),
(19,312,l),
(19,404,l),
(452,657,l)
);
}
);
width = 501;
}
);
unicode = 60;
},
{
glyphname = equal;
layers = (
{
layerId = "690A5C2F-BA8A-4547-B0C9-560CF3D7C21C";
shapes = (
{
closed = 1;
nodes = (
(49,397,l),
(49,553,l),
(528,553,l),
(528,397,l)
);
},
{
closed = 1;
nodes = (
(49,136,l),
(49,294,l),
(528,294,l),
(528,136,l)
);
}
);
width = 577;
}
);
unicode = 61;
},
{
glyphname = greater;
layers = (
{
layerId = "690A5C2F-BA8A-4547-B0C9-560CF3D7C21C";
shapes = (
{
closed = 1;
nodes = (
(49,242,l),
(257,359,l),
(49,477,l),
(49,658,l),
(481,409,l),
(481,317,l),
(49,63,l)
);
}
);
width = 500;
}
);
unicode = 62;
},
{
glyphname = at;
layers = (
{
layerId = "690A5C2F-BA8A-4547-B0C9-560CF3D7C21C";
shapes = (
{
closed = 1;
nodes = (
(50,557,o),
(249,726,o),
(536,724,cs),
(783,723,o),
(955,584,o),
(952,310,cs),
(950,170,o),
(883,43,o),
(755,43,cs),
(689,43,o),
(629,76,o),
(615,139,c),
(586,80,o),
(525,49,o),
(457,49,cs),
(338,49,o),
(273,145,o),
(273,277,cs),
(273,408,o),
(356,523,o),
(494,523,cs),
(547,523,o),
(603,506,o),
(622,445,c),
(641,495,l),
(739,484,l),
(718,381,o),
(702,295,o),
(702,246,cs),
(702,213,o),
(709,184,o),
(743,184,cs),
(809,184,o),
(810,294,o),
(810,312,cs),
(810,473,o),
(729,579,o),
(522,579,cs),
(314,579,o),
(200,443,o),
(200,269,cs),
(200,113,o),
(291,-9,o),
(472,-9,cs),
(527,-9,o),
(565,-5,o),
(605,6,c),
(626,-135,l),
(570,-150,o),
(521,-156,o),
(465,-156,cs),
(232,-154,o),
(50,-12,o),
(50,261,cs)
);
},
{
closed = 1;
nodes = (
(561,187,o),
(573,254,o),
(576,295,cs),
(579,330,o),
(556,384,o),
(497,384,cs),
(439,384,o),
(410,331,o),
(410,279,cs),
(410,227,o),
(440,187,o),
(493,187,cs)
);
}
);
width = 1001;
}
);
unicode = 64;
},
{
glyphname = bracketleft;
layers = (
{
layerId = "690A5C2F-BA8A-4547-B0C9-560CF3D7C21C";
shapes = (
{
closed = 1;
nodes = (
(67,779,l),
(359,779,l),
(359,623,l),
(238,623,l),
(238,-4,l),
(359,-4,l),
(359,-160,l),
(67,-160,l)
);
}
);
width = 374;
}
);
unicode = 91;
},
{
glyphname = bracketright;
layers = (
{
layerId = "690A5C2F-BA8A-4547-B0C9-560CF3D7C21C";
shapes = (
{
closed = 1;
nodes = (
(308,-160,l),
(15,-160,l),
(15,-4,l),
(137,-4,l),
(137,623,l),
(15,623,l),
(15,779,l),
(308,779,l)
);
}
);
width = 375;
}
);
unicode = 93;
},
{
glyphname = backslash;
layers = (
{
layerId = "690A5C2F-BA8A-4547-B0C9-560CF3D7C21C";
shapes = (
{
closed = 1;
nodes = (
(342,-160,l),
(19,779,l),
(191,779,l),
(517,-160,l)
);
}
);
width = 536;
}
);
unicode = 92;
},
{
glyphname = asciicircum;
layers = (
{
layerId = "690A5C2F-BA8A-4547-B0C9-560CF3D7C21C";
shapes = (
{
closed = 1;
nodes = (
(376,429,l),
(292,567,l),
(205,429,l),
(39,429,l),
(230,709,l),
(347,709,l),
(545,429,l)
);
}
);
width = 584;
}
);
unicode = 94;
},
{
glyphname = underscore;
layers = (
{
layerId = "690A5C2F-BA8A-4547-B0C9-560CF3D7C21C";
shapes = (
{
closed = 1;
nodes = (
(-23,-161,l),
(-23,-7,l),
(455,-7,l),
(455,-161,l)
);
}
);
width = 432;
}
);
unicode = 95;
},
{
glyphname = braceleft;
layers = (
{
layerId = "690A5C2F-BA8A-4547-B0C9-560CF3D7C21C";
shapes = (
{
closed = 1;
nodes = (
(17,388,l),
(50,388,ls),
(100,388,o),
(101,424,o),
(101,448,cs),
(101,638,ls),
(101,742,o),
(166,779,o),
(254,779,cs),
(374,779,l),
(374,623,l),
(307,623,ls),
(267,623,o),
(271,596,o),
(271,579,cs),
(271,425,ls),
(271,374,o),
(258,336,o),
(231,310,c),
(258,284,o),
(271,246,o),
(271,195,cs),
(271,40,ls),
(271,24,o),
(267,-3,o),
(307,-3,cs),
(374,-3,l),
(374,-159,l),
(254,-159,ls),
(166,-159,o),
(101,-122,o),
(101,-18,cs),
(101,173,ls),
(101,197,o),
(100,232,o),
(50,232,cs),
(17,232,l)
);
}
);
width = 413;
}
);
unicode = 123;
},
{
glyphname = bar;
layers = (
{
layerId = "690A5C2F-BA8A-4547-B0C9-560CF3D7C21C";
shapes = (
{
closed = 1;
nodes = (
(67,-163,l),
(67,794,l),
(231,794,l),
(231,-163,l)
);
}
);
width = 298;
}
);
unicode = 124;
},
{
glyphname = braceright;
layers = (
{
layerId = "690A5C2F-BA8A-4547-B0C9-560CF3D7C21C";
shapes = (
{
closed = 1;
nodes = (
(396,232,l),
(363,232,ls),
(315,232,o),
(312,196,o),
(312,173,cs),
(312,-18,ls),
(312,-122,o),
(248,-159,o),
(161,-159,cs),
(39,-159,l),
(39,-3,l),
(106,-3,ls),
(146,-3,o),
(142,24,o),
(142,41,cs),
(142,195,ls),
(142,244,o),
(156,283,o),
(183,310,c),
(182,310,l),
(153,337,o),
(142,374,o),
(142,425,cs),
(142,580,ls),
(142,596,o),
(146,623,o),
(106,623,cs),
(39,623,l),
(39,779,l),
(161,779,ls),
(248,779,o),
(312,742,o),
(312,638,cs),
(312,448,ls),
(312,424,o),
(313,388,o),
(363,388,cs),
(396,388,l)
);
}
);
width = 413;
}
);
unicode = 125;
},
{
glyphname = Euro;
layers = (
{
layerId = "690A5C2F-BA8A-4547-B0C9-560CF3D7C21C";
shapes = (
{
closed = 1;
nodes = (
(333,-8,o),
(188,57,o),
(153,203,c),
(29,203,l),
(58,337,l),
(134,337,l),
(134,374,l),
(36,374,l),
(64,508,l),
(156,508,l),
(212,646,o),
(336,716,o),
(475,717,cs),
(570,717,o),
(645,701,o),
(714,632,c),
(629,513,l),
(608,537,o),
(563,564,o),
(494,564,cs),
(432,564,o),
(367,542,o),
(346,508,c),
(574,508,l),
(548,374,l),
(308,374,l),
(307,337,l),
(546,337,l),
(519,203,l),
(350,203,l),
(381,171,o),
(432,154,o),
(484,154,cs),
(541,154,o),
(598,174,o),
(633,211,c),
(725,89,l),
(660,18,o),
(574,-8,o),
(471,-8,cs)
);
}
);
width = 754;
}
);
unicode = 8364;
},
{
glyphname = quotedblbase;
layers = (
{
layerId = "690A5C2F-BA8A-4547-B0C9-560CF3D7C21C";
shapes = (
{
closed = 1;
nodes = (
(47,-98,l),
(76,-87,o),
(137,-39,o),
(147,-14,c),
(104,-10,o),
(64,22,o),
(64,80,cs),
(64,145,o),
(113,177,o),
(165,177,cs),
(234,177,o),
(269,120,o),
(269,47,cs),
(269,-63,o),
(182,-148,o),
(96,-175,c)
);
},
{
closed = 1;
nodes = (
(304,-98,l),
(333,-87,o),
(394,-39,o),
(404,-14,c),
(361,-10,o),
(321,22,o),
(321,80,cs),
(321,145,o),
(370,177,o),
(422,177,cs),
(491,177,o),
(526,120,o),
(526,47,cs),
(526,-63,o),
(439,-148,o),
(353,-175,c)
);
}
);
width = 574;
}
);
leftKerningGroup = _kern14;
rightKerningGroup = _kern14;
unicode = 8222;
},
{
glyphname = quotesinglbase;
layers = (
{
layerId = "690A5C2F-BA8A-4547-B0C9-560CF3D7C21C";
shapes = (
{
closed = 1;
nodes = (
(47,-98,l),
(76,-87,o),
(137,-39,o),
(147,-14,c),
(104,-10,o),
(64,22,o),
(64,80,cs),
(64,145,o),
(113,177,o),
(165,177,cs),
(234,177,o),
(269,120,o),
(269,49,cs),
(269,-63,o),
(182,-148,o),
(96,-175,c)
);
}
);
width = 317;
}
);
unicode = 8218;
},
{
glyphname = quotedblright;
layers = (
{
layerId = "690A5C2F-BA8A-4547-B0C9-560CF3D7C21C";
shapes = (
{
closed = 1;
nodes = (
(47,473,l),
(76,484,o),
(137,532,o),
(147,557,c),
(104,561,o),
(64,593,o),
(64,651,cs),
(64,716,o),
(113,748,o),
(165,748,cs),
(234,748,o),
(269,691,o),
(269,620,cs),
(269,508,o),
(182,423,o),
(96,396,c)
);
},
{
closed = 1;
nodes = (
(304,473,l),
(333,484,o),
(394,532,o),
(404,557,c),
(361,561,o),
(321,593,o),
(321,651,cs),
(321,716,o),
(370,748,o),
(422,748,cs),
(491,748,o),
(526,691,o),
(526,620,cs),
(526,508,o),
(439,423,o),
(353,396,c)
);
}
);
width = 574;
}
);
unicode = 8221;
},
{
glyphname = quoteright;
layers = (
{
layerId = "690A5C2F-BA8A-4547-B0C9-560CF3D7C21C";
shapes = (
{
closed = 1;
nodes = (
(47,473,l),
(76,484,o),
(137,532,o),
(147,557,c),
(104,561,o),
(64,593,o),
(64,651,cs),
(64,716,o),
(113,748,o),
(165,748,cs),
(234,748,o),
(269,691,o),
(269,620,cs),
(269,508,o),
(182,423,o),
(96,396,c)
);
}
);
width = 317;
}
);
unicode = 8217;
},
{
glyphname = quotedblleft;
layers = (
{
layerId = "690A5C2F-BA8A-4547-B0C9-560CF3D7C21C";
shapes = (
{
closed = 1;
nodes = (
(527,700,l),
(498,687,o),
(438,643,o),
(427,616,c),
(470,612,o),
(510,580,o),
(510,522,cs),
(510,457,o),
(461,425,o),
(409,425,cs),
(340,425,o),
(305,482,o),
(305,553,cs),
(305,667,o),
(392,747,o),
(478,777,c)
);
},
{
closed = 1;
nodes = (
(270,700,l),
(241,687,o),
(181,643,o),
(170,616,c),
(213,612,o),
(253,580,o),
(253,522,cs),
(253,457,o),
(204,425,o),
(152,425,cs),
(83,425,o),
(48,482,o),
(48,553,cs),
(48,667,o),
(135,747,o),
(221,777,c)
);
}
);
width = 574;
}
);
unicode = 8220;
},
{
glyphname = quoteleft;
layers = (
{
layerId = "690A5C2F-BA8A-4547-B0C9-560CF3D7C21C";
shapes = (
{
closed = 1;
nodes = (
(270,700,l),
(241,687,o),
(181,643,o),
(170,616,c),
(213,612,o),
(253,580,o),
(253,522,cs),
(253,457,o),
(204,425,o),
(152,425,cs),
(83,425,o),
(48,482,o),
(48,553,cs),
(48,667,o),
(135,747,o),
(221,777,c)
);
}
);
width = 317;
}
);
unicode = 8216;
},
{
glyphname = minus;
layers = (
{
layerId = "690A5C2F-BA8A-4547-B0C9-560CF3D7C21C";
shapes = (
{
closed = 1;
nodes = (
(54,282,l),
(54,440,l),
(532,440,l),
(532,282,l)
);
}
);
width = 586;
}
);
unicode = 8722;
},
{
glyphname = hyphen;
layers = (
{
layerId = "690A5C2F-BA8A-4547-B0C9-560CF3D7C21C";
shapes = (
{
closed = 1;
nodes = (
(415,216,l),
(54,216,l),
(54,374,l),
(415,374,l)
);
}
);
width = 469;
}
);
unicode = 45;
},
{
glyphname = endash;
layers = (
{
layerId = "690A5C2F-BA8A-4547-B0C9-560CF3D7C21C";
shapes = (
{
closed = 1;
nodes = (
(582,216,l),
(54,216,l),
(54,374,l),
(582,374,l)
);
}
);
width = 636;
}
);
unicode = 8211;
},
{
glyphname = emdash;
layers = (
{
layerId = "690A5C2F-BA8A-4547-B0C9-560CF3D7C21C";
shapes = (
{
closed = 1;
nodes = (
(800,216,l),
(54,216,l),
(54,374,l),
(800,374,l)
);
}
);
width = 854;
}
);
unicode = 8212;
},
{
glyphname = grave;
layers = (
{
layerId = "690A5C2F-BA8A-4547-B0C9-560CF3D7C21C";
shapes = (
{
closed = 1;
nodes = (
(201,577,l),
(30,769,l),
(217,769,l),
(349,577,l)
);
}
);
width = 436;
}
);
unicode = 96;
},
{
glyphname = acute;
layers = (
{
layerId = "690A5C2F-BA8A-4547-B0C9-560CF3D7C21C";
shapes = (
{
closed = 1;
nodes = (
(235,577,l),
(87,577,l),
(219,769,l),
(406,769,l)
);
}
);
width = 436;
}
);
unicode = 180;
},
{
glyphname = guillemotright;
layers = (
{
layerId = "690A5C2F-BA8A-4547-B0C9-560CF3D7C21C";
shapes = (
{
closed = 1;
nodes = (
(445,276,l),
(301,477,l),
(459,477,l),
(603,276,l),
(459,76,l),
(301,76,l)
);
},
{
closed = 1;
nodes = (
(185,276,l),
(39,477,l),
(197,477,l),
(340,276,l),
(197,76,l),
(39,76,l)
);
}
);
width = 622;
}
);
unicode = 187;
},
{
glyphname = guilsinglright;
layers = (
{
layerId = "690A5C2F-BA8A-4547-B0C9-560CF3D7C21C";
shapes = (
{
closed = 1;
nodes = (
(39,477,l),
(223,477,l),
(366,277,l),
(223,76,l),
(39,76,l),
(187,277,l)
);
}
);
width = 385;
}
);
unicode = 8250;
},
{
glyphname = guillemotleft;
layers = (
{
layerId = "690A5C2F-BA8A-4547-B0C9-560CF3D7C21C";
shapes = (
{
closed = 1;
nodes = (
(178,277,l),
(323,76,l),
(163,76,l),
(19,277,l),
(163,477,l),
(323,477,l)
);
},
{
closed = 1;
nodes = (
(439,277,l),
(583,76,l),
(423,76,l),
(281,277,l),
(423,477,l),
(583,477,l)
);
}
);
width = 622;
}
);
unicode = 171;
},
{
glyphname = guilsinglleft;
layers = (
{
layerId = "690A5C2F-BA8A-4547-B0C9-560CF3D7C21C";
shapes = (
{
closed = 1;
nodes = (
(199,277,l),
(344,76,l),
(162,76,l),
(19,277,l),
(162,477,l),
(344,477,l)
);
}
);
width = 383;
}
);
unicode = 8249;
},
{
glyphname = uni00AD;
layers = (
{
layerId = "690A5C2F-BA8A-4547-B0C9-560CF3D7C21C";
shapes = (
{
closed = 1;
nodes = (
(415,218,l),
(54,218,l),
(54,372,l),
(415,372,l)
);
}
);
width = 469;
}
);
unicode = 173;
},
{
glyphname = ellipsis;
layers = (
{
layerId = "690A5C2F-BA8A-4547-B0C9-560CF3D7C21C";
shapes = (
{
closed = 1;
nodes = (
(200,203,o),
(248,164,o),
(248,95,cs),
(248,27,o),
(199,-9,o),
(143,-9,cs),
(87,-9,o),
(37,26,o),
(37,94,cs),
(37,163,o),
(91,203,o),
(145,203,cs)
);
},
{
closed = 1;
nodes = (
(461,203,o),
(509,164,o),
(509,95,cs),
(509,27,o),
(460,-9,o),
(404,-9,cs),
(348,-9,o),
(298,26,o),
(298,94,cs),
(298,163,o),
(352,203,o),
(406,203,cs)
);
},
{
closed = 1;
nodes = (
(719,203,o),
(767,164,o),
(767,95,cs),
(767,27,o),
(718,-9,o),
(662,-9,cs),
(606,-9,o),
(556,26,o),
(556,94,cs),
(556,163,o),
(610,203,o),
(664,203,cs)
);
}
);
width = 804;
}
);
unicode = 8230;
},
{
glyphname = uni0445;
layers = (
{
layerId = "690A5C2F-BA8A-4547-B0C9-560CF3D7C21C";
shapes = (
{
closed = 1;
nodes = (
(380,527,l),
(578,527,l),
(404,266,l),
(590,0,l),
(385,0,l),
(291,154,l),
(196,0,l),
(0,0,l),
(182,269,l),
(10,527,l),
(213,527,l),
(297,384,l)
);
}
);
width = 590;
}
);
unicode = 1093;
},
{
glyphname = uni0431;
layers = (
{
layerId = "690A5C2F-BA8A-4547-B0C9-560CF3D7C21C";
shapes = (
{
closed = 1;
nodes = (
(32,528,o),
(89,639,o),
(209,697,cs),
(260,722,o),
(322,732,o),
(398,741,cs),
(530,757,o),
(549,760,o),
(572,765,c),
(572,579,l),
(544,572,o),
(499,569,o),
(458,567,cs),
(361,561,o),
(260,553,o),
(218,500,cs),
(206,485,o),
(189,457,o),
(190,416,c),
(239,492,o),
(320,507,o),
(374,507,cs),
(522,507,o),
(599,394,o),
(599,259,cs),
(599,93,o),
(484,-8,o),
(322,-8,cs),
(122,-8,o),
(32,148,o),
(32,331,cs)
);
},
{
closed = 1;
nodes = (
(391,149,o),
(423,201,o),
(423,248,cs),
(423,296,o),
(390,343,o),
(323,343,cs),
(257,343,o),
(219,298,o),
(219,248,cs),
(219,202,o),
(251,149,o),
(321,149,cs)
);
}
);
width = 626;
}
);
rightKerningGroup = _kern10;
unicode = 1073;
},
{
glyphname = uni0432;
layers = (
{
layerId = "690A5C2F-BA8A-4547-B0C9-560CF3D7C21C";
shapes = (
{
closed = 1;
nodes = (
(339,527,ls),
(426,527,o),
(530,508,o),
(530,384,cs),
(530,340,o),
(506,302,o),
(482,286,c),
(525,265,o),
(546,229,o),
(546,167,cs),
(546,37,o),
(416,0,o),
(336,0,cs),
(47,0,l),
(47,527,l)
);
},
{
closed = 1;
nodes = (
(329,153,ls),
(358,153,o),
(374,167,o),
(374,187,cs),
(374,203,o),
(364,218,o),
(332,218,cs),
(224,218,l),
(224,153,l)
);
},
{
closed = 1;
nodes = (
(322,324,ls),
(354,324,o),
(363,340,o),
(363,356,cs),
(363,375,o),
(349,384,o),
(320,384,cs),
(224,384,l),
(224,324,l)
);
}
);
width = 577;
}
);
leftKerningGroup = _kern11;
unicode = 1074;
},
{
glyphname = uni0433;
layers = (
{
layerId = "690A5C2F-BA8A-4547-B0C9-560CF3D7C21C";
shapes = (
{
closed = 1;
nodes = (
(437,527,l),
(437,369,l),
(224,369,l),
(224,0,l),
(47,0,l),
(47,527,l)
);
}
);
width = 445;
}
);
leftKerningGroup = _kern11;
rightKerningGroup = _kern24;
unicode = 1075;
},
{
glyphname = uni0434;
layers = (
{
layerId = "690A5C2F-BA8A-4547-B0C9-560CF3D7C21C";
shapes = (
{
closed = 1;
nodes = (
(570,527,l),
(570,159,l),
(635,159,l),
(635,-139,l),
(459,-139,l),
(459,0,l),
(185,0,l),
(185,-139,l),
(8,-139,l),
(8,159,l),
(109,159,o),
(112,340,o),
(112,479,cs),
(112,527,l)
);
},
{
closed = 1;
nodes = (
(393,159,l),
(393,369,l),
(266,369,l),
(266,298,o),
(263,219,o),
(239,159,c)
);
}
);
width = 643;
}
);
rightKerningGroup = _kern13;
unicode = 1076;
},
{
glyphname = uni0436;
layers = (
{
layerId = "690A5C2F-BA8A-4547-B0C9-560CF3D7C21C";
shapes = (
{
closed = 1;
nodes = (
(517,182,l),
(517,0,l),
(340,0,l),
(340,182,l),
(269,182,l),
(194,0,l),
(0,0,l),
(129,276,l),
(4,527,l),
(187,527,l),
(271,341,l),
(340,341,l),
(340,527,l),
(517,527,l),
(517,341,l),
(588,341,l),
(668,527,l),
(854,527,l),
(726,276,l),
(858,0,l),
(662,0,l),
(589,182,l)
);
}
);
width = 858;
}
);
unicode = 1078;
},
{
glyphname = uni043A;
layers = (
{
layerId = "690A5C2F-BA8A-4547-B0C9-560CF3D7C21C";
shapes = (
{
closed = 1;
nodes = (
(224,182,l),
(224,0,l),
(47,0,l),
(47,527,l),
(224,527,l),
(224,341,l),
(296,341,l),
(406,527,l),
(605,527,l),
(447,281,l),
(597,0,l),
(395,0,l),
(303,182,l)
);
}
);
width = 605;
}
);
leftKerningGroup = _kern11;
unicode = 1082;
},
{
glyphname = uni0438;
layers = (
{
layerId = "690A5C2F-BA8A-4547-B0C9-560CF3D7C21C";
shapes = (
{
closed = 1;
nodes = (
(224,276,l),
(429,527,l),
(575,527,l),
(575,0,l),
(398,0,l),
(398,241,l),
(201,0,l),
(47,0,l),
(47,527,l),
(224,527,l)
);
}
);
width = 622;
}
);
leftKerningGroup = _kern11;
unicode = 1080;
},
{
glyphname = uni0439;
layers = (
{
layerId = "690A5C2F-BA8A-4547-B0C9-560CF3D7C21C";
shapes = (
{
closed = 1;
nodes = (
(208,552,o),
(122,611,o),
(119,727,c),
(260,727,l),
(263,688,o),
(290,670,o),
(325,670,cs),
(360,670,o),
(381,689,o),
(385,727,c),
(525,727,l),
(518,608,o),
(438,552,o),
(325,552,cs)
);
},
{
closed = 1;
nodes = (
(224,276,l),
(429,527,l),
(575,527,l),
(575,0,l),
(398,0,l),
(398,241,l),
(201,0,l),
(47,0,l),
(47,527,l),
(224,527,l)
);
}
);
width = 622;
}
);
unicode = 1081;
},
{
glyphname = uni043B;
layers = (
{
layerId = "690A5C2F-BA8A-4547-B0C9-560CF3D7C21C";
shapes = (
{
closed = 1;
nodes = (
(537,527,l),
(537,0,l),
(361,0,l),
(361,369,l),
(254,369,l),
(254,306,o),
(253,207,o),
(237,138,cs),
(211,31,o),
(148,-1,o),
(45,-1,cs),
(7,-1,l),
(7,163,l),
(79,163,o),
(89,256,o),
(91,313,cs),
(94,392,o),
(96,504,o),
(96,527,c)
);
}
);
width = 585;
}
);
unicode = 1083;
},
{
glyphname = uni043C;
layers = (
{
layerId = "690A5C2F-BA8A-4547-B0C9-560CF3D7C21C";
shapes = (
{
closed = 1;
nodes = (
(349,88,l),
(224,282,l),
(224,0,l),
(47,0,l),
(47,527,l),
(249,527,l),
(376,323,l),
(502,527,l),
(701,527,l),
(701,0,l),
(524,0,l),
(524,280,l),
(401,88,l)
);
}
);
width = 748;
}
);
leftKerningGroup = _kern11;
unicode = 1084;
},
{
glyphname = uni043D;
layers = (
{
layerId = "690A5C2F-BA8A-4547-B0C9-560CF3D7C21C";
shapes = (
{
closed = 1;
nodes = (
(224,343,l),
(379,343,l),
(379,527,l),
(556,527,l),
(556,0,l),
(379,0,l),
(379,184,l),
(224,184,l),
(224,0,l),
(47,0,l),
(47,527,l),
(224,527,l)
);
}
);
width = 603;
}
);
leftKerningGroup = _kern11;
unicode = 1085;
},
{
glyphname = uni043F;
layers = (
{
layerId = "690A5C2F-BA8A-4547-B0C9-560CF3D7C21C";
shapes = (
{
closed = 1;
nodes = (
(553,527,l),
(553,0,l),
(377,0,l),
(377,369,l),
(224,369,l),
(224,0,l),
(47,0,l),
(47,527,l)
);
}
);
width = 600;
}
);
leftKerningGroup = _kern11;
unicode = 1087;
},
{
glyphname = uni0442;
layers = (
{
layerId = "690A5C2F-BA8A-4547-B0C9-560CF3D7C21C";
shapes = (
{
closed = 1;
nodes = (
(8,369,l),
(8,527,l),
(516,527,l),
(516,369,l),
(349,369,l),
(349,0,l),
(173,0,l),
(173,369,l)
);
}
);
width = 524;
}
);
unicode = 1090;
},
{
glyphname = uni0444;
layers = (
{
layerId = "690A5C2F-BA8A-4547-B0C9-560CF3D7C21C";
shapes = (
{
closed = 1;
nodes = (
(492,698,l),
(492,536,l),
(666,536,o),
(784,447,o),
(784,261,cs),
(784,85,o),
(658,6,o),
(492,-5,c),
(492,-201,l),
(315,-201,l),
(315,-4,l),
(148,4,o),
(23,88,o),
(23,267,cs),
(23,448,o),
(150,536,o),
(315,536,c),
(315,698,l)
);
},
{
closed = 1;
nodes = (
(315,375,l),
(238,375,o),
(200,322,o),
(200,266,cs),
(200,206,o),
(242,154,o),
(315,154,c)
);
},
{
closed = 1;
nodes = (
(492,154,l),
(565,154,o),
(607,206,o),
(607,266,cs),
(607,322,o),
(569,375,o),
(492,375,c)
);
}
);
width = 807;
}
);
leftKerningGroup = _kern9;
rightKerningGroup = _kern10;
unicode = 1092;
},
{
glyphname = uni0446;
layers = (
{
layerId = "690A5C2F-BA8A-4547-B0C9-560CF3D7C21C";
shapes = (
{
closed = 1;
nodes = (
(47,0,l),
(47,527,l),
(224,527,l),
(224,159,l),
(379,159,l),
(379,527,l),
(556,527,l),
(556,159,l),
(623,159,l),
(623,-139,l),
(446,-139,l),
(446,0,l)
);
}
);
width = 628;
}
);
leftKerningGroup = _kern11;
rightKerningGroup = _kern13;
unicode = 1094;
},
{
glyphname = uni0447;
layers = (
{
layerId = "690A5C2F-BA8A-4547-B0C9-560CF3D7C21C";
shapes = (
{
closed = 1;
nodes = (
(24,527,l),
(201,527,l),
(201,389,ls),
(201,351,o),
(204,318,o),
(276,318,cs),
(289,318,o),
(310,319,o),
(333,321,c),
(333,527,l),
(510,527,l),
(510,0,l),
(333,0,l),
(333,160,l),
(279,156,o),
(267,157,o),
(248,157,cs),
(94,157,o),
(24,230,o),
(24,384,cs)
);
}
);
width = 558;
}
);
leftKerningGroup = _kern11;
unicode = 1095;
},
{
glyphname = uni0448;
layers = (
{
layerId = "690A5C2F-BA8A-4547-B0C9-560CF3D7C21C";
shapes = (
{
closed = 1;
nodes = (
(47,0,l),
(47,527,l),
(224,527,l),
(224,159,l),
(343,159,l),
(343,527,l),
(520,527,l),
(520,159,l),
(641,159,l),
(641,527,l),
(818,527,l),
(818,0,l)
);
}
);
width = 866;
}
);
leftKerningGroup = _kern11;
unicode = 1096;
},
{
glyphname = uni0449;
layers = (
{
layerId = "690A5C2F-BA8A-4547-B0C9-560CF3D7C21C";
shapes = (
{
closed = 1;
nodes = (
(47,0,l),
(47,527,l),
(224,527,l),
(224,159,l),
(343,159,l),
(343,527,l),
(520,527,l),
(520,159,l),
(640,159,l),
(640,527,l),
(817,527,l),
(817,159,l),
(886,159,l),
(886,-139,l),
(709,-139,l),
(709,0,l)
);
}
);
width = 888;
}
);
leftKerningGroup = _kern11;
rightKerningGroup = _kern13;
unicode = 1097;
},
{
glyphname = uni044A;
layers = (
{
layerId = "690A5C2F-BA8A-4547-B0C9-560CF3D7C21C";
shapes = (
{
closed = 1;
nodes = (
(-6,369,l),
(-6,527,l),
(273,527,l),
(273,379,l),
(357,379,ls),
(477,379,o),
(576,338,o),
(576,193,cs),
(576,48,o),
(451,0,o),
(329,0,cs),
(96,0,l),
(96,369,l)
);
},
{
closed = 1;
nodes = (
(273,232,l),
(273,155,l),
(337,155,ls),
(382,155,o),
(401,168,o),
(401,195,cs),
(401,215,o),
(389,232,o),
(348,232,cs)
);
}
);
width = 596;
}
);
unicode = 1098;
},
{
glyphname = uni044B;
layers = (
{
layerId = "690A5C2F-BA8A-4547-B0C9-560CF3D7C21C";
shapes = (
{
closed = 1;
nodes = (
(741,0,l),
(565,0,l),
(565,527,l),
(741,527,l)
);
},
{
closed = 1;
nodes = (
(224,527,l),
(224,379,l),
(291,379,ls),
(406,379,o),
(507,343,o),
(507,196,cs),
(507,49,o),
(383,0,o),
(267,0,cs),
(47,0,l),
(47,527,l)
);
},
{
closed = 1;
nodes = (
(273,155,ls),
(317,155,o),
(333,168,o),
(333,192,cs),
(333,218,o),
(315,232,o),
(279,232,cs),
(224,232,l),
(224,155,l)
);
}
);
width = 789;
}
);
leftKerningGroup = _kern11;
unicode = 1099;
},
{
glyphname = uni044C;
layers = (
{
layerId = "690A5C2F-BA8A-4547-B0C9-560CF3D7C21C";
shapes = (
{
closed = 1;
nodes = (
(224,527,l),
(224,379,l),
(325,379,ls),
(446,379,o),
(541,336,o),
(541,198,cs),
(541,51,o),
(420,0,o),
(299,0,cs),
(47,0,l),
(47,527,l)
);
},
{
closed = 1;
nodes = (
(307,155,ls),
(347,155,o),
(367,168,o),
(367,195,cs),
(367,220,o),
(348,232,o),
(311,232,cs),
(224,232,l),
(224,155,l)
);
}
);
width = 566;
}
);
leftKerningGroup = _kern11;
unicode = 1100;
},
{
glyphname = uni044E;
layers = (
{
layerId = "690A5C2F-BA8A-4547-B0C9-560CF3D7C21C";
shapes = (
{
closed = 1;
nodes = (
(474,376,o),
(447,318,o),
(447,264,cs),
(447,211,o),
(474,153,o),
(546,153,cs),
(621,153,o),
(642,215,o),
(642,265,cs),
(642,313,o),
(621,376,o),
(546,376,cs)
);
},
{
closed = 1;
nodes = (
(224,343,l),
(291,343,l),
(315,458,o),
(412,538,o),
(549,538,cs),
(701,538,o),
(816,439,o),
(816,262,cs),
(816,94,o),
(712,-8,o),
(551,-8,cs),
(414,-8,o),
(315,65,o),
(291,184,c),
(224,184,l),
(224,0,l),
(47,0,l),
(47,527,l),
(224,527,l)
);
}
);
width = 839;
}
);
leftKerningGroup = _kern11;
rightKerningGroup = _kern10;
unicode = 1102;
},
{
glyphname = uni044F;
layers = (
{
layerId = "690A5C2F-BA8A-4547-B0C9-560CF3D7C21C";
shapes = (
{
closed = 1;
nodes = (
(549,527,l),
(549,0,l),
(373,0,l),
(373,153,l),
(323,153,l),
(223,0,l),
(14,0,l),
(161,190,l),
(99,208,o),
(53,271,o),
(53,345,cs),
(53,493,o),
(167,527,o),
(277,527,cs)
);
},
{
closed = 1;
nodes = (
(373,296,l),
(373,377,l),
(279,377,ls),
(244,377,o),
(228,359,o),
(228,338,cs),
(228,306,o),
(266,296,o),
(288,296,cs)
);
}
);
width = 597;
}
);
leftKerningGroup = _kern11;
unicode = 1103;
},
{
glyphname = u_alt;
layers = (
{
layerId = "690A5C2F-BA8A-4547-B0C9-560CF3D7C21C";
shapes = (
{
closed = 1;
nodes = (
(405,0,l),
(405,57,l),
(368,4,o),
(301,-8,o),
(249,-8,cs),
(103,-8,o),
(42,87,o),
(42,236,cs),
(42,527,l),
(219,527,l),
(219,260,ls),
(219,213,o),
(228,153,o),
(307,153,cs),
(377,153,o),
(392,198,o),
(392,258,cs),
(392,527,l),
(569,527,l),
(569,0,l)
);
}
);
width = 616;
}
);
},
{
glyphname = uni0410;
layers = (
{
layerId = "690A5C2F-BA8A-4547-B0C9-560CF3D7C21C";
shapes = (
{
closed = 1;
nodes = (
(189,0,l),
(-5,0,l),
(279,708,l),
(463,708,l),
(744,0,l),
(549,0,l),
(514,100,l),
(225,100,l)
);
},
{
closed = 1;
nodes = (
(457,263,l),
(371,506,l),
(282,263,l)
);
}
);
width = 739;
}
);
leftKerningGroup = _kern30;
rightKerningGroup = _kern30;
unicode = 1040;
},
{
glyphname = uni0415;
layers = (
{
layerId = "690A5C2F-BA8A-4547-B0C9-560CF3D7C21C";
shapes = (
{
closed = 1;
nodes = (
(601,708,l),
(601,540,l),
(248,540,l),
(248,432,l),
(539,432,l),
(539,272,l),
(248,272,l),
(248,167,l),
(601,167,l),
(601,0,l),
(67,0,l),
(67,708,l)
);
}
);
width = 629;
}
);
unicode = 1045;
},
{
glyphname = uni041C;
layers = (
{
layerId = "690A5C2F-BA8A-4547-B0C9-560CF3D7C21C";
shapes = (
{
closed = 1;
nodes = (
(296,708,l),
(469,398,l),
(641,708,l),
(861,708,l),
(861,0,l),
(680,0,l),
(680,451,l),
(501,140,l),
(430,140,l),
(248,451,l),
(248,0,l),
(67,0,l),
(67,708,l)
);
}
);
width = 928;
}
);
unicode = 1052;
},
{
glyphname = uni041D;
layers = (
{
layerId = "690A5C2F-BA8A-4547-B0C9-560CF3D7C21C";
shapes = (
{
closed = 1;
nodes = (
(248,433,l),
(505,433,l),
(505,708,l),
(686,708,l),
(686,0,l),
(505,0,l),
(505,267,l),
(248,267,l),
(248,0,l),
(67,0,l),
(67,708,l),
(248,708,l)
);
}
);
width = 753;
}
);
unicode = 1053;
},
{
glyphname = uni0420;
layers = (
{
layerId = "690A5C2F-BA8A-4547-B0C9-560CF3D7C21C";
shapes = (
{
closed = 1;
nodes = (
(364,708,ls),
(529,708,o),
(645,646,o),
(645,457,cs),
(645,282,o),
(520,199,o),
(357,199,cs),
(248,199,l),
(248,0,l),
(67,0,l),
(67,708,l)
);
},
{
closed = 1;
nodes = (
(357,360,ls),
(426,360,o),
(467,395,o),
(467,456,cs),
(467,512,o),
(436,540,o),
(356,540,cs),
(248,540,l),
(248,360,l)
);
}
);
width = 669;
}
);
unicode = 1056;
},
{
glyphname = uni0422;
layers = (
{
layerId = "690A5C2F-BA8A-4547-B0C9-560CF3D7C21C";
shapes = (
{
closed = 1;
nodes = (
(5,540,l),
(5,708,l),
(607,708,l),
(607,540,l),
(396,540,l),
(396,0,l),
(215,0,l),
(215,540,l)
);
}
);
width = 612;
}
);
leftKerningGroup = _kern28;
rightKerningGroup = _kern28;
unicode = 1058;
},
{
glyphname = uni0425;
layers = (
{
layerId = "690A5C2F-BA8A-4547-B0C9-560CF3D7C21C";
shapes = (
{
closed = 1;
nodes = (
(500,708,l),
(712,708,l),
(471,354,l),
(719,0,l),
(501,0,l),
(356,225,l),
(205,0,l),
(0,0,l),
(250,355,l),
(8,708,l),
(225,708,l),
(364,483,l)
);
}
);
width = 719;
}
);
unicode = 1061;
},
{
glyphname = T;
layers = (
{
layerId = "690A5C2F-BA8A-4547-B0C9-560CF3D7C21C";
shapes = (
{
closed = 1;
nodes = (
(5,540,l),
(5,708,l),
(607,708,l),
(607,540,l),
(396,540,l),
(396,0,l),
(215,0,l),
(215,540,l)
);
}
);
width = 612;
}
);
leftKerningGroup = _kern28;
rightKerningGroup = _kern28;
unicode = 84;
},
{
glyphname = uni0412;
layers = (
{
layerId = "690A5C2F-BA8A-4547-B0C9-560CF3D7C21C";
shapes = (
{
closed = 1;
nodes = (
(66,0,l),
(66,708,l),
(418,708,ls),
(538,708,o),
(632,662,o),
(632,519,cs),
(632,468,o),
(607,417,o),
(566,390,c),
(622,363,o),
(662,310,o),
(662,225,cs),
(662,45,o),
(522,0,o),
(370,0,cs)
);
},
{
closed = 1;
nodes = (
(247,167,l),
(391,167,ls),
(455,167,o),
(481,192,o),
(481,229,cs),
(481,268,o),
(453,287,o),
(398,287,cs),
(247,287,l)
);
},
{
closed = 1;
nodes = (
(374,433,ls),
(430,433,o),
(452,459,o),
(452,490,cs),
(452,526,o),
(429,541,o),
(382,541,cs),
(247,541,l),
(247,433,l)
);
}
);
width = 691;
}
);
unicode = 1042;
},
{
glyphname = uni041F;
layers = (
{
layerId = "690A5C2F-BA8A-4547-B0C9-560CF3D7C21C";
shapes = (
{
closed = 1;
nodes = (
(677,708,l),
(677,0,l),
(496,0,l),
(496,542,l),
(248,542,l),
(248,0,l),
(67,0,l),
(67,708,l)
);
}
);
width = 744;
}
);
unicode = 1055;
},
{
glyphname = uni0413;
layers = (
{
layerId = "690A5C2F-BA8A-4547-B0C9-560CF3D7C21C";
shapes = (
{
closed = 1;
nodes = (
(67,0,l),
(67,708,l),
(579,708,l),
(579,540,l),
(248,540,l),
(248,0,l)
);
}
);
width = 591;
}
);
leftKerningGroup = _kern23;
rightKerningGroup = _kern23;
unicode = 1043;
},
{
glyphname = uni041B;
layers = (
{
layerId = "690A5C2F-BA8A-4547-B0C9-560CF3D7C21C";
shapes = (
{
closed = 1;
nodes = (
(284,540,l),
(284,404,ls),
(284,168,o),
(280,-1,o),
(45,-1,cs),
(7,-1,l),
(7,170,l),
(89,170,o),
(103,217,o),
(111,292,cs),
(117,348,o),
(117,419,o),
(117,455,cs),
(117,708,l),
(639,708,l),
(639,0,l),
(458,0,l),
(458,540,l)
);
}
);
width = 706;
}
);
unicode = 1051;
},
{
glyphname = uni0414;
layers = (
{
layerId = "690A5C2F-BA8A-4547-B0C9-560CF3D7C21C";
shapes = (
{
closed = 1;
nodes = (
(747,-168,l),
(566,-168,l),
(566,0,l),
(188,0,l),
(188,-168,l),
(7,-168,l),
(7,167,l),
(67,167,o),
(91,207,o),
(102,255,cs),
(121,335,o),
(123,416,o),
(126,484,cs),
(129,566,o),
(130,637,o),
(130,708,c),
(662,708,l),
(662,167,l),
(747,167,l)
);
},
{
closed = 1;
nodes = (
(289,304,o),
(285,218,o),
(261,167,c),
(481,167,l),
(481,540,l),
(294,540,l),
(294,417,o),
(292,385,o),
(291,352,cs)
);
}
);
width = 754;
}
);
rightKerningGroup = _kern12;
unicode = 1044;
},
{
glyphname = uni0411;
layers = (
{
layerId = "690A5C2F-BA8A-4547-B0C9-560CF3D7C21C";
shapes = (
{
closed = 1;
nodes = (
(67,0,l),
(67,708,l),
(614,708,l),
(614,540,l),
(248,540,l),
(248,446,l),
(395,446,ls),
(534,446,o),
(657,410,o),
(657,241,cs),
(657,46,o),
(495,3,o),
(358,0,c)
);
},
{
closed = 1;
nodes = (
(248,167,l),
(370,167,ls),
(419,167,o),
(478,175,o),
(478,233,cs),
(478,282,o),
(436,291,o),
(377,291,cs),
(248,291,l)
);
}
);
width = 692;
}
);
unicode = 1041;
},
{
glyphname = uni0416;
layers = (
{
layerId = "690A5C2F-BA8A-4547-B0C9-560CF3D7C21C";
shapes = (
{
closed = 1;
nodes = (
(614,270,l),
(614,0,l),
(433,0,l),
(433,270,l),
(349,271,l),
(212,0,l),
(2,0,l),
(203,370,l),
(0,708,l),
(206,708,l),
(352,434,l),
(433,434,l),
(433,708,l),
(614,708,l),
(614,434,l),
(695,434,l),
(843,708,l),
(1048,708,l),
(844,370,l),
(1047,0,l),
(835,0,l),
(700,270,l)
);
}
);
width = 1048;
}
);
unicode = 1046;
},
{
glyphname = uni0417;
layers = (
{
layerId = "690A5C2F-BA8A-4547-B0C9-560CF3D7C21C";
shapes = (
{
closed = 1;
nodes = (
(196,248,l),
(212,181,o),
(275,163,o),
(346,163,cs),
(407,163,o),
(465,179,o),
(465,230,cs),
(465,277,o),
(415,287,o),
(366,287,cs),
(255,287,l),
(255,434,l),
(347,434,ls),
(402,434,o),
(440,450,o),
(440,494,cs),
(440,537,o),
(385,549,o),
(335,549,cs),
(265,549,o),
(220,526,o),
(213,474,c),
(40,474,l),
(48,653,o),
(188,717,o),
(353,717,cs),
(478,717,o),
(620,661,o),
(620,514,cs),
(620,457,o),
(598,421,o),
(555,386,c),
(625,355,o),
(646,291,o),
(646,218,cs),
(646,128,o),
(589,60,o),
(531,31,cs),
(465,-3,o),
(406,-8,o),
(342,-8,cs),
(177,-8,o),
(40,62,o),
(24,248,c)
);
}
);
width = 676;
}
);
leftKerningGroup = _kern7;
rightKerningGroup = _kern8;
unicode = 1047;
},
{
glyphname = uni0418;
layers = (
{
layerId = "690A5C2F-BA8A-4547-B0C9-560CF3D7C21C";
shapes = (
{
closed = 1;
nodes = (
(248,312,l),
(560,708,l),
(702,708,l),
(702,0,l),
(521,0,l),
(521,389,l),
(209,0,l),
(67,0,l),
(67,708,l),
(248,708,l)
);
}
);
width = 769;
}
);
unicode = 1048;
},
{
glyphname = uni0419;
layers = (
{
layerId = "690A5C2F-BA8A-4547-B0C9-560CF3D7C21C";
shapes = (
{
closed = 1;
nodes = (
(272,736,o),
(191,791,o),
(186,916,c),
(328,916,l),
(329,877,o),
(358,857,o),
(391,857,cs),
(425,857,o),
(449,877,o),
(450,916,c),
(592,916,l),
(587,791,o),
(505,736,o),
(389,736,cs)
);
},
{
closed = 1;
nodes = (
(248,312,l),
(560,708,l),
(702,708,l),
(702,0,l),
(521,0,l),
(521,389,l),
(209,0,l),
(67,0,l),
(67,708,l),
(248,708,l)
);
}
);
width = 769;
}
);
unicode = 1049;
},
{
glyphname = uni041A;
layers = (
{
layerId = "690A5C2F-BA8A-4547-B0C9-560CF3D7C21C";
shapes = (
{
closed = 1;
nodes = (
(248,269,l),
(248,0,l),
(67,0,l),
(67,708,l),
(248,708,l),
(248,436,l),
(346,436,l),
(499,708,l),
(705,708,l),
(495,369,l),
(703,0,l),
(493,0,l),
(350,269,l)
);
}
);
width = 705;
}
);
unicode = 1050;
},
{
glyphname = uni0423;
layers = (
{
layerId = "690A5C2F-BA8A-4547-B0C9-560CF3D7C21C";
shapes = (
{
closed = 1;
nodes = (
(481,708,l),
(674,708,l),
(480,258,ls),
(411,99,o),
(358,0,o),
(156,0,cs),
(114,0,l),
(114,173,l),
(152,173,ls),
(212,173,o),
(243,189,o),
(268,226,c),
(5,708,l),
(215,708,l),
(360,396,l)
);
}
);
width = 669;
}
);
unicode = 1059;
},
{
glyphname = uni0424;
layers = (
{
layerId = "690A5C2F-BA8A-4547-B0C9-560CF3D7C21C";
shapes = (
{
closed = 1;
nodes = (
(536,735,l),
(536,642,l),
(721,642,o),
(864,556,o),
(864,367,cs),
(864,170,o),
(737,90,o),
(536,90,c),
(536,-18,l),
(355,-18,l),
(355,90,l),
(163,90,o),
(28,172,o),
(28,363,cs),
(28,559,o),
(164,642,o),
(355,642,c),
(355,735,l)
);
},
{
closed = 1;
nodes = (
(355,486,l),
(252,486,o),
(203,437,o),
(203,366,cs),
(203,291,o),
(255,245,o),
(355,245,c)
);
},
{
closed = 1;
nodes = (
(536,245,l),
(636,245,o),
(688,291,o),
(688,366,cs),
(688,437,o),
(639,486,o),
(536,486,c)
);
}
);
width = 892;
}
);
leftKerningGroup = _kern7;
rightKerningGroup = _kern8;
unicode = 1060;
},
{
glyphname = uni0426;
layers = (
{
layerId = "690A5C2F-BA8A-4547-B0C9-560CF3D7C21C";
shapes = (
{
closed = 1;
nodes = (
(484,167,l),
(484,708,l),
(665,708,l),
(665,167,l),
(748,167,l),
(748,-168,l),
(567,-168,l),
(567,0,l),
(67,0,l),
(67,708,l),
(248,708,l),
(248,167,l)
);
}
);
width = 755;
}
);
rightKerningGroup = _kern12;
unicode = 1062;
},
{
glyphname = uni0427;
layers = (
{
layerId = "690A5C2F-BA8A-4547-B0C9-560CF3D7C21C";
shapes = (
{
closed = 1;
nodes = (
(44,708,l),
(225,708,l),
(225,491,ls),
(225,412,o),
(264,389,o),
(357,389,cs),
(385,389,o),
(416,391,o),
(455,398,c),
(455,708,l),
(636,708,l),
(636,0,l),
(455,0,l),
(455,229,l),
(399,221,o),
(353,219,o),
(313,219,cs),
(137,219,o),
(44,302,o),
(44,482,cs)
);
}
);
width = 703;
}
);
unicode = 1063;
},
{
glyphname = uni0428;
layers = (
{
layerId = "690A5C2F-BA8A-4547-B0C9-560CF3D7C21C";
shapes = (
{
closed = 1;
nodes = (
(67,0,l),
(67,708,l),
(248,708,l),
(248,167,l),
(417,167,l),
(417,708,l),
(598,708,l),
(598,167,l),
(767,167,l),
(767,708,l),
(948,708,l),
(948,0,l)
);
}
);
width = 1015;
}
);
unicode = 1064;
},
{
glyphname = uni0429;
layers = (
{
layerId = "690A5C2F-BA8A-4547-B0C9-560CF3D7C21C";
shapes = (
{
closed = 1;
nodes = (
(67,0,l),
(67,708,l),
(248,708,l),
(248,167,l),
(417,167,l),
(417,708,l),
(598,708,l),
(598,167,l),
(766,167,l),
(766,708,l),
(947,708,l),
(947,167,l),
(1030,167,l),
(1030,-168,l),
(849,-168,l),
(849,0,l)
);
}
);
width = 1037;
}
);
rightKerningGroup = _kern12;
unicode = 1065;
},
{
glyphname = uni042A;
layers = (
{
layerId = "690A5C2F-BA8A-4547-B0C9-560CF3D7C21C";
shapes = (
{
closed = 1;
nodes = (
(150,0,l),
(150,540,l),
(-6,540,l),
(-6,708,l),
(331,708,l),
(331,465,l),
(469,465,ls),
(588,465,o),
(735,427,o),
(735,240,cs),
(735,51,o),
(584,0,o),
(445,0,cs)
);
},
{
closed = 1;
nodes = (
(331,167,l),
(438,167,ls),
(507,167,o),
(558,177,o),
(558,241,cs),
(558,284,o),
(526,306,o),
(463,306,cs),
(331,306,l)
);
}
);
width = 765;
}
);
unicode = 1066;
},
{
glyphname = uni042B;
layers = (
{
layerId = "690A5C2F-BA8A-4547-B0C9-560CF3D7C21C";
shapes = (
{
closed = 1;
nodes = (
(67,0,l),
(67,708,l),
(248,708,l),
(248,465,l),
(339,465,ls),
(467,465,o),
(608,418,o),
(608,241,cs),
(608,52,o),
(449,0,o),
(304,0,cs)
);
},
{
closed = 1;
nodes = (
(248,167,l),
(313,167,ls),
(382,167,o),
(431,184,o),
(431,239,cs),
(431,297,o),
(378,306,o),
(320,306,cs),
(248,306,l)
);
},
{
closed = 1;
nodes = (
(691,708,l),
(872,708,l),
(872,0,l),
(691,0,l)
);
}
);
width = 939;
}
);
unicode = 1067;
},
{
glyphname = uni042C;
layers = (
{
layerId = "690A5C2F-BA8A-4547-B0C9-560CF3D7C21C";
shapes = (
{
closed = 1;
nodes = (
(66,0,l),
(66,708,l),
(247,708,l),
(247,465,l),
(382,465,ls),
(534,465,o),
(651,412,o),
(651,244,cs),
(651,51,o),
(497,0,o),
(344,0,cs)
);
},
{
closed = 1;
nodes = (
(247,167,l),
(356,167,ls),
(424,167,o),
(472,180,o),
(472,240,cs),
(472,292,o),
(435,306,o),
(375,306,cs),
(247,306,l)
);
}
);
width = 681;
}
);
unicode = 1068;
},
{
glyphname = uni042D;
layers = (
{
layerId = "690A5C2F-BA8A-4547-B0C9-560CF3D7C21C";
shapes = (
{
closed = 1;
nodes = (
(505,434,l),
(500,491,o),
(462,549,o),
(356,549,cs),
(271,549,o),
(222,512,o),
(207,452,c),
(32,452,l),
(53,632,o),
(203,717,o),
(366,717,cs),
(584,717,o),
(696,566,o),
(696,357,cs),
(696,136,o),
(571,-8,o),
(357,-8,cs),
(194,-8,o),
(47,76,o),
(28,257,c),
(201,257,l),
(221,192,o),
(279,163,o),
(356,163,cs),
(451,163,o),
(502,208,o),
(506,275,c),
(260,275,l),
(260,434,l)
);
}
);
width = 724;
}
);
leftKerningGroup = _kern7;
rightKerningGroup = _kern8;
unicode = 1069;
},
{
glyphname = uni042E;
layers = (
{
layerId = "690A5C2F-BA8A-4547-B0C9-560CF3D7C21C";
shapes = (
{
closed = 1;
nodes = (
(489,263,o),
(531,162,o),
(652,162,cs),
(776,162,o),
(816,265,o),
(816,358,cs),
(816,446,o),
(780,548,o),
(655,548,cs),
(524,548,o),
(489,435,o),
(489,353,cs)
);
},
{
closed = 1;
nodes = (
(248,431,l),
(323,431,l),
(342,603,o),
(477,717,o),
(649,717,cs),
(866,717,o),
(1001,580,o),
(1001,356,cs),
(1001,137,o),
(873,-8,o),
(658,-8,cs),
(469,-8,o),
(344,104,o),
(325,269,c),
(248,269,l),
(248,0,l),
(67,0,l),
(67,708,l),
(248,708,l)
);
}
);
width = 1029;
}
);
rightKerningGroup = _kern8;
unicode = 1070;
},
{
glyphname = uni042F;
layers = (
{
layerId = "690A5C2F-BA8A-4547-B0C9-560CF3D7C21C";
shapes = (
{
closed = 1;
nodes = (
(663,708,l),
(663,0,l),
(482,0,l),
(482,225,l),
(409,225,l),
(252,0,l),
(35,0,l),
(231,254,l),
(123,291,o),
(74,367,o),
(74,475,cs),
(74,660,o),
(220,708,o),
(376,708,cs)
);
},
{
closed = 1;
nodes = (
(482,385,l),
(482,540,l),
(358,540,ls),
(302,540,o),
(252,524,o),
(252,466,cs),
(252,402,o),
(312,385,o),
(361,385,cs)
);
}
);
width = 730;
}
);
unicode = 1071;
},
{
glyphname = uni0440;
layers = (
{
layerId = "690A5C2F-BA8A-4547-B0C9-560CF3D7C21C";
shapes = (
{
closed = 1;
nodes = (
(259,376,o),
(224,320,o),
(224,264,cs),
(224,209,o),
(257,153,o),
(335,153,cs),
(415,153,o),
(436,213,o),
(436,260,cs),
(436,314,o),
(409,376,o),
(332,376,cs)
);
},
{
closed = 1;
nodes = (
(220,469,l),
(268,524,o),
(326,537,o),
(386,537,cs),
(527,537,o),
(610,417,o),
(610,263,cs),
(610,109,o),
(532,-8,o),
(368,-8,cs),
(297,-8,o),
(252,20,o),
(224,45,c),
(224,-201,l),
(47,-201,l),
(47,527,l),
(211,527,l)
);
}
);
width = 633;
}
);
leftKerningGroup = _kern11;
rightKerningGroup = _kern10;
unicode = 1088;
},
{
glyphname = O;
layers = (
{
layerId = "690A5C2F-BA8A-4547-B0C9-560CF3D7C21C";
shapes = (
{
closed = 1;
nodes = (
(605,717,o),
(753,577,o),
(753,358,cs),
(753,141,o),
(607,-8,o),
(387,-8,cs),
(170,-8,o),
(28,136,o),
(28,353,cs),
(28,574,o),
(176,717,o),
(392,717,cs)
);
},
{
closed = 1;
nodes = (
(213,260,o),
(266,163,o),
(391,163,cs),
(519,163,o),
(568,266,o),
(568,353,cs),
(568,437,o),
(522,546,o),
(390,546,cs),
(264,546,o),
(213,447,o),
(213,354,cs)
);
}
);
width = 781;
}
);
leftKerningGroup = _kern3;
rightKerningGroup = _kern4;
unicode = 79;
},
{
glyphname = be_alt;
layers = (
{
layerId = "690A5C2F-BA8A-4547-B0C9-560CF3D7C21C";
shapes = (
{
closed = 1;
nodes = (
(24,575,o),
(95,667,o),
(296,731,cs),
(340,745,o),
(380,757,o),
(417,771,cs),
(454,784,o),
(479,800,o),
(492,811,c),
(579,679,l),
(540,621,o),
(461,599,o),
(382,578,cs),
(289,553,o),
(200,511,o),
(194,442,c),
(195,442,l),
(242,493,o),
(298,507,o),
(362,507,cs),
(482,507,o),
(578,420,o),
(578,262,cs),
(578,93,o),
(468,-8,o),
(306,-8,cs),
(106,-8,o),
(24,148,o),
(24,331,cs)
);
},
{
closed = 1;
nodes = (
(377,153,o),
(402,204,o),
(402,248,cs),
(402,294,o),
(374,342,o),
(309,342,cs),
(247,342,o),
(212,298,o),
(212,250,cs),
(212,203,o),
(245,153,o),
(311,153,cs)
);
}
);
width = 602;
}
);
},
{
glyphname = a;
layers = (
{
layerId = "690A5C2F-BA8A-4547-B0C9-560CF3D7C21C";
shapes = (
{
closed = 1;
nodes = (
(265,213,ls),
(232,213,o),
(204,201,o),
(204,170,cs),
(204,142,o),
(229,127,o),
(261,127,cs),
(317,127,o),
(361,169,o),
(364,213,c)
);
},
{
closed = 1;
nodes = (
(367,69,l),
(315,-10,o),
(232,-8,o),
(213,-8,cs),
(115,-8,o),
(29,44,o),
(29,153,cs),
(29,223,o),
(65,270,o),
(114,295,cs),
(175,326,o),
(253,322,o),
(338,322,cs),
(362,322,l),
(361,359,o),
(334,389,o),
(287,389,cs),
(252,389,o),
(219,373,o),
(215,350,c),
(39,350,l),
(55,481,o),
(170,537,o),
(295,537,cs),
(450,537,o),
(530,450,o),
(530,283,cs),
(530,0,l),
(367,0,l)
);
}
);
width = 576;
}
);
leftKerningGroup = _kern27;
rightKerningGroup = _kern27;
unicode = 97;
},
{
glyphname = c;
layers = (
{
layerId = "690A5C2F-BA8A-4547-B0C9-560CF3D7C21C";
shapes = (
{
closed = 1;
nodes = (
(335,153,o),
(363,175,o),
(370,211,c),
(546,211,l),
(541,67,o),
(429,-8,o),
(290,-8,cs),
(130,-8,o),
(27,91,o),
(27,262,cs),
(27,437,o),
(134,538,o),
(293,538,cs),
(435,538,o),
(535,458,o),
(540,317,c),
(370,317,l),
(362,356,o),
(333,376,o),
(294,376,cs),
(221,376,o),
(202,309,o),
(202,262,cs),
(202,208,o),
(227,153,o),
(293,153,cs)
);
}
);
width = 568;
}
);
leftKerningGroup = _kern5;
rightKerningGroup = _kern6;
unicode = 99;
},
{
glyphname = e;
layers = (
{
layerId = "690A5C2F-BA8A-4547-B0C9-560CF3D7C21C";
shapes = (
{
closed = 1;
nodes = (
(339,140,o),
(369,159,o),
(376,178,c),
(549,178,l),
(520,47,o),
(414,-8,o),
(296,-8,cs),
(134,-8,o),
(27,94,o),
(27,260,cs),
(27,426,o),
(135,538,o),
(298,538,cs),
(452,538,o),
(549,437,o),
(549,278,cs),
(549,255,o),
(547,236,o),
(542,213,c),
(202,213,l),
(206,174,o),
(234,140,o),
(292,140,cs)
);
},
{
closed = 1;
nodes = (
(232,398,o),
(205,358,o),
(205,328,c),
(383,328,l),
(383,358,o),
(359,398,o),
(295,398,cs)
);
}
);
width = 576;
}
);
leftKerningGroup = _kern5;
rightKerningGroup = _kern6;
unicode = 101;
},
{
glyphname = f;
layers = (
{
layerId = "690A5C2F-BA8A-4547-B0C9-560CF3D7C21C";
shapes = (
{
closed = 1;
nodes = (
(386,527,l),
(386,369,l),
(264,369,l),
(264,0,l),
(87,0,l),
(87,369,l),
(12,369,l),
(12,527,l),
(87,527,l),
(87,569,ls),
(87,693,o),
(150,745,o),
(281,745,cs),
(386,745,l),
(386,588,l),
(304,588,ls),
(276,588,o),
(264,575,o),
(264,551,cs),
(264,527,l)
);
}
);
width = 396;
}
);
unicode = 102;
},
{
glyphname = g;
layers = (
{
layerId = "690A5C2F-BA8A-4547-B0C9-560CF3D7C21C";
shapes = (
{
closed = 1;
nodes = (
(592,109,ls),
(592,13,o),
(589,-79,o),
(538,-150,cs),
(484,-226,o),
(397,-249,o),
(317,-249,cs),
(185,-249,o),
(74,-187,o),
(47,-39,c),
(227,-39,l),
(236,-67,o),
(267,-86,o),
(314,-86,cs),
(406,-86,o),
(412,-16,o),
(412,56,c),
(373,1,o),
(307,-7,o),
(264,-7,cs),
(93,-7,o),
(27,121,o),
(27,256,cs),
(27,410,o),
(114,537,o),
(276,537,cs),
(343,537,o),
(383,515,o),
(416,482,c),
(432,527,l),
(592,527,l)
);
},
{
closed = 1;
nodes = (
(227,378,o),
(203,309,o),
(203,260,cs),
(203,207,o),
(230,152,o),
(308,152,cs),
(384,152,o),
(415,204,o),
(415,265,cs),
(415,326,o),
(384,378,o),
(311,378,cs)
);
}
);
width = 639;
}
);
leftKerningGroup = _kern5;
unicode = 103;
},
{
glyphname = j;
layers = (
{
layerId = "690A5C2F-BA8A-4547-B0C9-560CF3D7C21C";
shapes = (
{
closed = 1;
nodes = (
(41,527,l),
(218,527,l),
(218,-35,ls),
(218,-159,o),
(171,-220,o),
(40,-220,cs),
(-52,-220,l),
(-52,-61,l),
(-11,-61,ls),
(43,-61,o),
(41,-23,o),
(41,-7,cs)
);
},
{
closed = 1;
nodes = (
(190,777,o),
(237,737,o),
(237,669,cs),
(237,600,o),
(188,567,o),
(131,567,cs),
(75,567,o),
(24,601,o),
(24,668,cs),
(24,737,o),
(79,777,o),
(134,777,cs)
);
}
);
width = 277;
}
);
unicode = 106;
},
{
glyphname = o;
layers = (
{
layerId = "690A5C2F-BA8A-4547-B0C9-560CF3D7C21C";
shapes = (
{
closed = 1;
nodes = (
(224,373,o),
(200,310,o),
(200,261,cs),
(200,210,o),
(225,156,o),
(301,156,cs),
(377,156,o),
(401,212,o),
(401,261,cs),
(401,308,o),
(378,373,o),
(301,373,cs)
);
},
{
closed = 1;
nodes = (
(148,-8,o),
(27,87,o),
(27,262,cs),
(27,439,o),
(151,538,o),
(301,538,cs),
(454,538,o),
(574,436,o),
(574,259,cs),
(574,86,o),
(459,-8,o),
(304,-8,cs)
);
}
);
width = 601;
}
);
leftKerningGroup = _kern5;
rightKerningGroup = _kern6;
unicode = 111;
},
{
glyphname = r;
layers = (
{
layerId = "690A5C2F-BA8A-4547-B0C9-560CF3D7C21C";
shapes = (
{
closed = 1;
nodes = (
(214,477,l),
(254,535,o),
(310,538,o),
(350,538,cs),
(373,538,o),
(394,537,o),
(399,536,c),
(399,365,l),
(365,365,ls),
(290,365,o),
(224,345,o),
(224,240,cs),
(224,0,l),
(47,0,l),
(47,527,l),
(202,527,l)
);
}
);
width = 406;
}
);
leftKerningGroup = _kern29;
rightKerningGroup = _kern29;
unicode = 114;
},
{
glyphname = t;
layers = (
{
layerId = "690A5C2F-BA8A-4547-B0C9-560CF3D7C21C";
shapes = (
{
closed = 1;
nodes = (
(257,369,l),
(257,207,ls),
(257,182,o),
(259,159,o),
(301,159,cs),
(348,159,l),
(348,0,l),
(302,0,ls),
(162,0,o),
(80,35,o),
(80,180,cs),
(80,369,l),
(7,369,l),
(7,527,l),
(80,527,l),
(80,658,l),
(257,658,l),
(257,527,l),
(354,527,l),
(354,369,l)
);
}
);
width = 364;
}
);
leftKerningGroup = _kern21;
rightKerningGroup = _kern21;
unicode = 116;
},
{
glyphname = y_alt;
layers = (
{
layerId = "690A5C2F-BA8A-4547-B0C9-560CF3D7C21C";
shapes = (
{
closed = 1;
nodes = (
(381,-86,o),
(408,-39,o),
(408,34,c),
(369,-3,o),
(305,-8,o),
(270,-8,cs),
(123,-8,o),
(52,81,o),
(52,236,cs),
(52,527,l),
(228,527,l),
(228,271,ls),
(228,222,o),
(234,153,o),
(318,153,cs),
(403,153,o),
(403,225,o),
(403,270,cs),
(403,527,l),
(580,527,l),
(580,115,ls),
(580,22,o),
(581,-78,o),
(529,-150,cs),
(474,-228,o),
(391,-249,o),
(313,-249,cs),
(179,-249,o),
(74,-185,o),
(47,-38,c),
(228,-38,l),
(237,-66,o),
(266,-86,o),
(311,-86,cs)
);
}
);
width = 627;
}
);
},
{
glyphname = y2_alt;
layers = (
{
layerId = "690A5C2F-BA8A-4547-B0C9-560CF3D7C21C";
shapes = (
{
closed = 1;
nodes = (
(402,527,l),
(592,527,l),
(458,48,ls),
(409,-129,o),
(329,-251,o),
(119,-251,cs),
(77,-251,l),
(77,-67,l),
(92,-67,ls),
(149,-67,o),
(189,-61,o),
(216,-26,c),
(2,527,l),
(206,527,l),
(319,170,l)
);
}
);
width = 584;
}
);
},
{
glyphname = uni0443;
layers = (
{
layerId = "690A5C2F-BA8A-4547-B0C9-560CF3D7C21C";
shapes = (
{
closed = 1;
nodes = (
(402,527,l),
(592,527,l),
(458,48,ls),
(409,-129,o),
(329,-251,o),
(119,-251,cs),
(77,-251,l),
(77,-67,l),
(92,-67,ls),
(149,-67,o),
(189,-61,o),
(216,-26,c),
(2,527,l),
(206,527,l),
(319,170,l)
);
}
);
width = 584;
}
);
unicode = 1091;
},
{
glyphname = uni0451;
layers = (
{
layerId = "690A5C2F-BA8A-4547-B0C9-560CF3D7C21C";
shapes = (
{
closed = 1;
nodes = (
(339,140,o),
(369,159,o),
(376,178,c),
(549,178,l),
(520,47,o),
(414,-8,o),
(296,-8,cs),
(134,-8,o),
(27,94,o),
(27,260,cs),
(27,426,o),
(135,538,o),
(298,538,cs),
(452,538,o),
(549,437,o),
(549,278,cs),
(549,255,o),
(547,236,o),
(542,213,c),
(202,213,l),
(206,174,o),
(234,140,o),
(292,140,cs)
);
},
{
closed = 1;
nodes = (
(232,398,o),
(205,358,o),
(205,328,c),
(383,328,l),
(383,358,o),
(359,398,o),
(295,398,cs)
);
},
{
closed = 1;
nodes = (
(217,763,o),
(263,729,o),
(263,667,cs),
(263,607,o),
(219,576,o),
(168,576,cs),
(117,576,o),
(73,607,o),
(73,667,cs),
(73,728,o),
(118,763,o),
(168,763,cs)
);
},
{
closed = 1;
nodes = (
(476,763,o),
(520,729,o),
(520,668,cs),
(520,607,o),
(478,576,o),
(427,576,cs),
(377,576,o),
(330,607,o),
(330,667,cs),
(330,728,o),
(377,763,o),
(427,763,cs)
);
}
);
width = 576;
}
);
leftKerningGroup = _kern9;
rightKerningGroup = _kern10;
unicode = 1105;
},
{
glyphname = uni0437;
layers = (
{
layerId = "690A5C2F-BA8A-4547-B0C9-560CF3D7C21C";
shapes = (
{
closed = 1;
nodes = (
(505,348,o),
(491,308,o),
(462,289,c),
(502,265,o),
(520,220,o),
(520,173,cs),
(519,36,o),
(392,-8,o),
(282,-8,cs),
(161,-8,o),
(33,45,o),
(17,189,c),
(189,189,l),
(192,156,o),
(233,140,o),
(279,140,cs),
(317,140,o),
(351,151,o),
(351,180,cs),
(351,195,o),
(341,207,o),
(310,207,cs),
(220,207,l),
(220,328,l),
(288,328,ls),
(335,328,o),
(340,344,o),
(340,355,cs),
(340,382,o),
(312,392,o),
(277,392,cs),
(233,392,o),
(193,376,o),
(186,344,c),
(20,344,l),
(44,496,o),
(161,538,o),
(279,538,cs),
(383,538,o),
(504,505,o),
(505,384,cs)
);
}
);
width = 543;
}
);
leftKerningGroup = _kern9;
rightKerningGroup = _kern10;
unicode = 1079;
},
{
glyphname = uni044D;
layers = (
{
layerId = "690A5C2F-BA8A-4547-B0C9-560CF3D7C21C";
shapes = (
{
closed = 1;
nodes = (
(340,136,o),
(363,166,o),
(366,191,c),
(207,191,l),
(207,330,l),
(364,330,l),
(357,357,o),
(329,386,o),
(281,386,cs),
(240,386,o),
(206,366,o),
(195,342,c),
(19,342,l),
(43,468,o),
(159,535,o),
(287,535,cs),
(442,535,o),
(537,436,o),
(537,262,cs),
(537,90,o),
(445,-11,o),
(282,-11,cs),
(162,-11,o),
(48,43,o),
(19,174,c),
(192,174,l),
(211,150,o),
(239,136,o),
(280,136,cs)
);
}
);
width = 561;
}
);
leftKerningGroup = _kern9;
rightKerningGroup = _kern10;
unicode = 1101;
},
{
glyphname = C;
layers = (
{
layerId = "690A5C2F-BA8A-4547-B0C9-560CF3D7C21C";
shapes = (
{
closed = 1;
nodes = (
(215,265,o),
(259,163,o),
(386,163,cs),
(461,163,o),
(509,199,o),
(524,263,c),
(699,263,l),
(686,83,o),
(540,-8,o),
(380,-8,cs),
(160,-8,o),
(28,130,o),
(28,350,cs),
(28,576,o),
(167,717,o),
(377,717,cs),
(543,717,o),
(675,628,o),
(691,445,c),
(520,445,l),
(504,509,o),
(461,546,o),
(383,546,cs),
(257,546,o),
(215,449,o),
(215,358,cs)
);
}
);
width = 721;
}
);
leftKerningGroup = _kern3;
rightKerningGroup = _kern4;
unicode = 67;
},
{
glyphname = S;
layers = (
{
layerId = "690A5C2F-BA8A-4547-B0C9-560CF3D7C21C";
shapes = (
{
closed = 1;
nodes = (
(436,481,l),
(429,525,o),
(387,551,o),
(325,551,cs),
(277,551,o),
(238,535,o),
(238,503,cs),
(238,471,o),
(275,457,o),
(348,440,cs),
(413,425,ls),
(530,398,o),
(627,368,o),
(627,221,cs),
(627,54,o),
(484,-8,o),
(342,-8,cs),
(185,-8,o),
(54,68,o),
(37,239,c),
(219,239,l),
(232,182,o),
(287,160,o),
(354,160,cs),
(394,160,o),
(445,168,o),
(445,211,cs),
(445,241,o),
(419,253,o),
(374,263,cs),
(318,275,ls),
(181,304,o),
(59,340,o),
(59,504,cs),
(59,506,ls),
(59,667,o),
(209,717,o),
(349,717,cs),
(497,717,o),
(596,631,o),
(611,481,c)
);
}
);
width = 665;
}
);
leftKerningGroup = _kern3;
rightKerningGroup = _kern4;
unicode = 83;
},
{
glyphname = uni0421;
layers = (
{
layerId = "690A5C2F-BA8A-4547-B0C9-560CF3D7C21C";
shapes = (
{
closed = 1;
nodes = (
(215,265,o),
(259,163,o),
(386,163,cs),
(461,163,o),
(509,199,o),
(524,263,c),
(699,263,l),
(686,83,o),
(540,-8,o),
(380,-8,cs),
(160,-8,o),
(28,130,o),
(28,350,cs),
(28,576,o),
(167,717,o),
(377,717,cs),
(543,717,o),
(675,628,o),
(691,445,c),
(520,445,l),
(504,509,o),
(461,546,o),
(383,546,cs),
(257,546,o),
(215,449,o),
(215,358,cs)
);
}
);
width = 727;
}
);
leftKerningGroup = _kern7;
rightKerningGroup = _kern8;
unicode = 1057;
},
{
glyphname = G;
layers = (
{
layerId = "690A5C2F-BA8A-4547-B0C9-560CF3D7C21C";
shapes = (
{
closed = 1;
nodes = (
(215,256,o),
(259,163,o),
(387,163,cs),
(451,163,o),
(511,186,o),
(522,242,c),
(355,242,l),
(355,394,l),
(712,394,l),
(712,368,ls),
(712,271,o),
(699,181,o),
(648,111,cs),
(586,27,o),
(483,-8,o),
(377,-8,cs),
(164,-8,o),
(28,133,o),
(28,357,cs),
(28,581,o),
(165,717,o),
(377,717,cs),
(541,717,o),
(675,636,o),
(699,458,c),
(520,458,l),
(507,521,o),
(459,546,o),
(392,546,cs),
(258,546,o),
(215,445,o),
(215,351,cs)
);
}
);
width = 740;
}
);
leftKerningGroup = _kern3;
rightKerningGroup = _kern4;
unicode = 71;
},
{
glyphname = uni041E;
layers = (
{
layerId = "690A5C2F-BA8A-4547-B0C9-560CF3D7C21C";
shapes = (
{
closed = 1;
nodes = (
(605,717,o),
(753,577,o),
(753,358,cs),
(753,141,o),
(607,-8,o),
(387,-8,cs),
(170,-8,o),
(28,136,o),
(28,353,cs),
(28,574,o),
(176,717,o),
(392,717,cs)
);
},
{
closed = 1;
nodes = (
(213,260,o),
(266,163,o),
(391,163,cs),
(519,163,o),
(568,266,o),
(568,353,cs),
(568,437,o),
(522,546,o),
(390,546,cs),
(264,546,o),
(213,447,o),
(213,354,cs)
);
}
);
width = 781;
}
);
leftKerningGroup = _kern7;
rightKerningGroup = _kern8;
unicode = 1054;
},
{
glyphname = Q;
layers = (
{
layerId = "690A5C2F-BA8A-4547-B0C9-560CF3D7C21C";
shapes = (
{
closed = 1;
nodes = (
(608,717,o),
(753,579,o),
(753,358,cs),
(753,251,o),
(719,174,o),
(660,113,c),
(691,74,o),
(723,33,o),
(754,-6,c),
(615,-112,l),
(516,15,l),
(477,0,o),
(430,-8,o),
(391,-8,cs),
(169,-8,o),
(28,135,o),
(28,352,cs),
(28,573,o),
(173,717,o),
(392,717,cs)
);
},
{
closed = 1;
nodes = (
(213,260,o),
(262,163,o),
(387,163,cs),
(517,163,o),
(568,268,o),
(568,358,cs),
(568,446,o),
(520,546,o),
(392,546,cs),
(262,546,o),
(213,443,o),
(213,351,cs)
);
}
);
width = 782;
}
);
leftKerningGroup = _kern3;
rightKerningGroup = _kern4;
unicode = 81;
},
{
glyphname = J;
layers = (
{
layerId = "690A5C2F-BA8A-4547-B0C9-560CF3D7C21C";
shapes = (
{
closed = 1;
nodes = (
(539,255,l),
(540,80,o),
(455,-8,o),
(291,-8,cs),
(122,-8,o),
(22,85,o),
(22,243,cs),
(22,269,l),
(202,269,l),
(202,225,o),
(206,161,o),
(285,161,cs),
(347,161,o),
(358,202,o),
(358,242,cs),
(358,708,l),
(539,708,l)
);
}
);
width = 602;
}
);
unicode = 74;
},
{
glyphname = K_alt;
layers = (
{
layerId = "690A5C2F-BA8A-4547-B0C9-560CF3D7C21C";
shapes = (
{
closed = 1;
nodes = (
(248,437,l),
(494,708,l),
(731,708,l),
(448,408,l),
(710,0,l),
(492,0,l),
(313,286,l),
(248,224,l),
(248,0,l),
(67,0,l),
(67,708,l),
(248,708,l)
);
}
);
width = 725;
}
);
leftKerningGroup = _kern16;
rightKerningGroup = _kern16;
},
{
glyphname = K;
layers = (
{
layerId = "690A5C2F-BA8A-4547-B0C9-560CF3D7C21C";
shapes = (
{
closed = 1;
nodes = (
(248,269,l),
(248,0,l),
(67,0,l),
(67,708,l),
(248,708,l),
(248,436,l),
(345,436,l),
(498,708,l),
(704,708,l),
(494,369,l),
(702,0,l),
(492,0,l),
(349,269,l)
);
}
);
width = 704;
}
);
leftKerningGroup = _kern1;
rightKerningGroup = _kern16;
unicode = 75;
},
{
glyphname = k_alt;
layers = (
{
layerId = "690A5C2F-BA8A-4547-B0C9-560CF3D7C21C";
shapes = (
{
closed = 1;
nodes = (
(383,527,l),
(606,527,l),
(396,314,l),
(594,0,l),
(396,0,l),
(275,200,l),
(224,149,l),
(224,0,l),
(47,0,l),
(47,708,l),
(224,708,l),
(224,351,l)
);
}
);
width = 600;
}
);
leftKerningGroup = _kern17;
rightKerningGroup = _kern17;
},
{
glyphname = k;
layers = (
{
layerId = "690A5C2F-BA8A-4547-B0C9-560CF3D7C21C";
shapes = (
{
closed = 1;
nodes = (
(224,183,l),
(224,0,l),
(47,0,l),
(47,708,l),
(224,708,l),
(224,341,l),
(277,341,l),
(387,527,l),
(585,527,l),
(422,276,l),
(598,0,l),
(394,0,l),
(280,183,l)
);
}
);
width = 585;
}
);
leftKerningGroup = _kern17;
rightKerningGroup = _kern17;
unicode = 107;
},
{
glyphname = i_alt;
layers = (
{
layerId = "690A5C2F-BA8A-4547-B0C9-560CF3D7C21C";
shapes = (
{
closed = 1;
nodes = (
(-8,527,l),
(245,527,l),
(245,0,l),
(69,0,l),
(69,369,l),
(-8,369,l)
);
},
{
closed = 1;
nodes = (
(208,782,o),
(257,743,o),
(257,674,cs),
(257,606,o),
(207,572,o),
(151,572,cs),
(95,572,o),
(43,606,o),
(43,673,cs),
(43,742,o),
(99,782,o),
(153,782,cs)
);
}
);
width = 296;
}
);
},
{
glyphname = j_alt;
layers = (
{
layerId = "690A5C2F-BA8A-4547-B0C9-560CF3D7C21C";
shapes = (
{
closed = 1;
nodes = (
(55,369,l),
(-34,369,l),
(-34,527,l),
(231,527,l),
(231,-35,l),
(230,-159,o),
(181,-220,o),
(53,-220,cs),
(-38,-220,l),
(-38,-61,l),
(-14,-61,ls),
(58,-61,o),
(55,-13,o),
(55,11,cs)
);
},
{
closed = 1;
nodes = (
(199,782,o),
(247,742,o),
(247,674,cs),
(247,605,o),
(198,572,o),
(142,572,cs),
(86,572,o),
(34,606,o),
(34,673,cs),
(34,742,o),
(89,782,o),
(144,782,cs)
);
}
);
width = 287;
}
);
},
{
glyphname = s_alt;
layers = (
{
layerId = "690A5C2F-BA8A-4547-B0C9-560CF3D7C21C";
shapes = (
{
closed = 1;
nodes = (
(209,347,o),
(253,338,o),
(301,331,cs),
(398,316,o),
(526,306,o),
(526,173,cs),
(526,42,o),
(402,-8,o),
(289,-8,cs),
(180,-8,o),
(42,39,o),
(23,187,c),
(203,187,l),
(206,152,o),
(258,139,o),
(299,139,cs),
(342,139,o),
(357,153,o),
(357,170,cs),
(357,196,o),
(315,199,o),
(263,208,cs),
(178,223,o),
(42,235,o),
(42,372,cs),
(42,505,o),
(182,538,o),
(274,538,cs),
(390,538,o),
(503,486,o),
(516,348,c),
(345,348,l),
(344,379,o),
(310,394,o),
(266,395,cs),
(223,396,o),
(209,383,o),
(209,370,cs)
);
}
);
width = 550;
}
);
leftKerningGroup = _kern5;
rightKerningGroup = _kern6;
},
{
glyphname = s;
layers = (
{
layerId = "690A5C2F-BA8A-4547-B0C9-560CF3D7C21C";
shapes = (
{
closed = 1;
nodes = (
(223,394,o),
(203,384,o),
(203,368,cs),
(203,359,o),
(209,348,o),
(234,341,cs),
(278,330,o),
(316,323,o),
(356,315,cs),
(421,302,o),
(496,273,o),
(496,170,cs),
(496,34,o),
(369,-8,o),
(263,-8,cs),
(159,-8,o),
(40,33,o),
(19,180,c),
(198,180,l),
(206,153,o),
(235,136,o),
(272,136,cs),
(303,136,o),
(324,148,o),
(324,168,cs),
(324,195,o),
(287,197,o),
(240,207,cs),
(191,218,o),
(127,234,o),
(89,259,cs),
(50,286,o),
(34,327,o),
(34,374,cs),
(35,497,o),
(155,538,o),
(257,538,cs),
(369,538,o),
(467,487,o),
(483,356,c),
(312,356,l),
(309,380,o),
(283,394,o),
(250,394,cs)
);
}
);
width = 515;
}
);
leftKerningGroup = _kern5;
rightKerningGroup = _kern6;
unicode = 115;
},
{
glyphname = c_alt;
layers = (
{
layerId = "690A5C2F-BA8A-4547-B0C9-560CF3D7C21C";
shapes = (
{
closed = 1;
nodes = (
(324,148,o),
(353,160,o),
(366,187,c),
(540,187,l),
(516,50,o),
(409,-8,o),
(286,-8,cs),
(126,-8,o),
(23,94,o),
(23,260,cs),
(23,430,o),
(129,537,o),
(293,537,cs),
(423,537,o),
(527,468,o),
(543,323,c),
(367,323,l),
(356,359,o),
(329,376,o),
(292,376,cs),
(219,376,o),
(197,312,o),
(197,260,cs),
(197,201,o),
(225,148,o),
(292,148,cs)
);
}
);
width = 567;
}
);
leftKerningGroup = _kern5;
rightKerningGroup = _kern6;
},
{
glyphname = copyright;
layers = (
{
layerId = "690A5C2F-BA8A-4547-B0C9-560CF3D7C21C";
shapes = (
{
closed = 1;
nodes = (
(204,-85,o),
(39,66,o),
(39,318,cs),
(39,573,o),
(209,730,o),
(452,730,cs),
(702,730,o),
(876,565,o),
(876,313,cs),
(876,62,o),
(704,-85,o),
(456,-85,cs)
);
},
{
closed = 1;
nodes = (
(648,48,o),
(743,164,o),
(743,319,cs),
(743,472,o),
(650,595,o),
(465,595,cs),
(280,595,o),
(177,473,o),
(177,317,cs),
(177,166,o),
(274,48,o),
(462,48,cs)
);
},
{
closed = 1;
nodes = (
(498,241,o),
(521,258,o),
(524,283,c),
(665,283,l),
(649,158,o),
(569,113,o),
(467,113,cs),
(343,113,o),
(255,179,o),
(255,319,cs),
(255,465,o),
(352,532,o),
(472,532,cs),
(574,532,o),
(652,483,o),
(665,360,c),
(523,360,l),
(522,391,o),
(496,404,o),
(465,404,cs),
(404,404,o),
(397,357,o),
(397,320,cs),
(397,288,o),
(402,241,o),
(462,241,cs)
);
}
);
width = 915;
}
);
unicode = 169;
},
{
glyphname = ampersand;
layers = (
{
layerId = "690A5C2F-BA8A-4547-B0C9-560CF3D7C21C";
shapes = (
{
closed = 1;
nodes = (
(524,0,l),
(475,48,l),
(422,5,o),
(346,-8,o),
(288,-8,cs),
(170,-8,o),
(47,46,o),
(47,193,cs),
(47,284,o),
(94,343,o),
(154,383,c),
(156,383,l),
(123,416,o),
(101,462,o),
(101,521,cs),
(101,650,o),
(204,717,o),
(318,717,cs),
(424,717,o),
(526,659,o),
(526,537,cs),
(526,445,o),
(467,392,o),
(405,351,c),
(478,275,l),
(491,296,o),
(499,337,o),
(499,356,c),
(644,356,l),
(635,277,o),
(619,219,o),
(587,168,c),
(740,0,l)
);
},
{
closed = 1;
nodes = (
(261,283,l),
(210,248,o),
(209,222,o),
(209,205,cs),
(209,160,o),
(251,141,o),
(289,141,cs),
(315,141,o),
(356,147,o),
(375,163,c)
);
},
{
closed = 1;
nodes = (
(369,543,o),
(358,576,o),
(315,576,cs),
(270,576,o),
(257,543,o),
(257,522,cs),
(257,495,o),
(271,473,o),
(299,450,c),
(348,473,o),
(369,496,o),
(369,527,cs)
);
}
);
width = 744;
}
);
unicode = 38;
},
{
glyphname = dollar;
layers = (
{
layerId = "690A5C2F-BA8A-4547-B0C9-560CF3D7C21C";
shapes = (
{
closed = 1;
nodes = (
(437,483,l),
(433,524,o),
(393,552,o),
(327,553,cs),
(281,554,o),
(240,541,o),
(240,506,cs),
(240,475,o),
(274,460,o),
(322,448,cs),
(349,441,o),
(386,432,o),
(412,426,cs),
(542,396,o),
(628,365,o),
(628,228,cs),
(628,86,o),
(535,16,o),
(415,0,c),
(415,-144,l),
(254,-144,l),
(254,4,l),
(141,28,o),
(50,100,o),
(39,239,c),
(220,239,l),
(235,182,o),
(289,159,o),
(354,159,cs),
(408,159,o),
(447,175,o),
(447,208,cs),
(447,242,o),
(407,252,o),
(366,262,cs),
(276,284,o),
(233,293,o),
(191,311,cs),
(111,344,o),
(61,393,o),
(61,506,cs),
(61,629,o),
(157,698,o),
(258,709,c),
(258,856,l),
(419,856,l),
(419,707,l),
(528,693,o),
(613,608,o),
(613,483,c)
);
}
);
width = 668;
}
);
unicode = 36;
},
{
glyphname = parenleft;
layers = (
{
layerId = "690A5C2F-BA8A-4547-B0C9-560CF3D7C21C";
shapes = (
{
closed = 1;
nodes = (
(45,486,o),
(100,656,o),
(213,803,c),
(434,803,l),
(296,665,o),
(224,478,o),
(224,310,cs),
(224,143,o),
(296,-44,o),
(434,-182,c),
(213,-182,l),
(100,-37,o),
(45,135,o),
(45,310,cs)
);
}
);
width = 384;
}
);
unicode = 40;
},
{
glyphname = parenright;
layers = (
{
layerId = "690A5C2F-BA8A-4547-B0C9-560CF3D7C21C";
shapes = (
{
closed = 1;
nodes = (
(339,135,o),
(284,-37,o),
(171,-182,c),
(-50,-182,l),
(88,-44,o),
(160,143,o),
(160,310,cs),
(160,478,o),
(88,665,o),
(-50,803,c),
(171,803,l),
(284,656,o),
(339,486,o),
(339,310,cs)
);
}
);
width = 384;
}
);
unicode = 41;
},
{
glyphname = cent;
layers = (
{
layerId = "690A5C2F-BA8A-4547-B0C9-560CF3D7C21C";
shapes = (
{
closed = 1;
nodes = (
(351,152,o),
(385,178,o),
(390,211,c),
(569,211,l),
(561,96,o),
(490,20,o),
(389,1,c),
(389,-140,l),
(227,-140,l),
(227,1,l),
(103,28,o),
(39,121,o),
(39,258,cs),
(39,408,o),
(115,511,o),
(226,532,c),
(226,684,l),
(388,684,l),
(388,533,l),
(485,518,o),
(556,442,o),
(561,321,c),
(390,321,l),
(382,358,o),
(350,384,o),
(306,384,cs),
(235,384,o),
(214,315,o),
(214,264,cs),
(214,211,o),
(238,152,o),
(306,152,cs)
);
}
);
width = 608;
}
);
unicode = 162;
},
{
glyphname = section;
layers = (
{
layerId = "690A5C2F-BA8A-4547-B0C9-560CF3D7C21C";
shapes = (
{
closed = 1;
nodes = (
(265,587,o),
(244,577,o),
(244,558,cs),
(244,531,o),
(293,524,o),
(313,520,cs),
(366,510,o),
(414,504,o),
(465,483,cs),
(518,461,o),
(541,421,o),
(541,374,cs),
(541,329,o),
(522,286,o),
(493,263,c),
(528,235,o),
(537,194,o),
(537,162,cs),
(537,106,o),
(510,66,o),
(473,39,cs),
(423,3,o),
(356,-8,o),
(295,-8,cs),
(175,-8,o),
(47,34,o),
(39,177,c),
(224,177,l),
(231,146,o),
(260,125,o),
(299,125,cs),
(332,125,o),
(350,137,o),
(350,156,cs),
(350,171,o),
(340,181,o),
(320,184,cs),
(257,195,o),
(164,211,o),
(115,244,cs),
(70,274,o),
(52,311,o),
(52,354,cs),
(52,399,o),
(75,440,o),
(114,457,c),
(77,480,o),
(59,523,o),
(59,563,cs),
(60,688,o),
(195,717,o),
(292,717,cs),
(414,717,o),
(519,671,o),
(530,546,c),
(346,546,l),
(341,575,o),
(319,587,o),
(292,587,cs)
);
},
{
closed = 1;
nodes = (
(282,328,o),
(328,317,o),
(355,312,c),
(364,320,o),
(370,337,o),
(370,348,cs),
(370,371,o),
(340,379,o),
(319,385,cs),
(294,392,o),
(266,401,o),
(239,404,c),
(228,397,o),
(224,384,o),
(224,373,cs),
(224,357,o),
(232,345,o),
(261,335,cs)
);
}
);
width = 581;
}
);
unicode = 167;
},
{
glyphname = uni04C1;
layers = (
{
layerId = "690A5C2F-BA8A-4547-B0C9-560CF3D7C21C";
shapes = (
{
closed = 1;
nodes = (
(403,751,o),
(321,807,o),
(316,927,c),
(458,927,l),
(459,888,o),
(488,868,o),
(521,868,cs),
(555,868,o),
(579,888,o),
(580,927,c),
(722,927,l),
(717,808,o),
(636,751,o),
(519,751,cs)
);
},
{
closed = 1;
nodes = (
(608,270,l),
(608,0,l),
(427,0,l),
(427,270,l),
(343,271,l),
(206,0,l),
(-4,0,l),
(197,370,l),
(-6,708,l),
(200,708,l),
(346,434,l),
(427,434,l),
(427,708,l),
(608,708,l),
(608,434,l),
(689,434,l),
(837,708,l),
(1042,708,l),
(838,370,l),
(1041,0,l),
(829,0,l),
(694,270,l)
);
}
);
width = 1036;
}
);
unicode = 1217;
},
{
glyphname = uni04C2;
layers = (
{
layerId = "690A5C2F-BA8A-4547-B0C9-560CF3D7C21C";
shapes = (
{
closed = 1;
nodes = (
(310,558,o),
(226,609,o),
(221,735,c),
(365,735,l),
(366,696,o),
(395,676,o),
(428,676,cs),
(462,676,o),
(487,696,o),
(488,735,c),
(631,735,l),
(626,609,o),
(544,558,o),
(427,558,cs)
);
},
{
closed = 1;
nodes = (
(516,182,l),
(516,0,l),
(339,0,l),
(339,182,l),
(263,182,l),
(188,0,l),
(-6,0,l),
(123,276,l),
(-2,527,l),
(181,527,l),
(265,341,l),
(339,341,l),
(339,527,l),
(516,527,l),
(516,341,l),
(592,341,l),
(672,527,l),
(857,527,l),
(730,276,l),
(862,0,l),
(666,0,l),
(593,182,l)
);
}
);
width = 855;
}
);
unicode = 1218;
},
{
glyphname = w_alt;
layers = (
{
layerId = "690A5C2F-BA8A-4547-B0C9-560CF3D7C21C";
shapes = (
{
closed = 1;
nodes = (
(160,0,l),
(-6,527,l),
(186,527,l),
(269,212,l),
(359,427,l),
(526,427,l),
(614,212,l),
(696,527,l),
(882,527,l),
(716,0,l),
(531,0,l),
(439,244,l),
(345,0,l)
);
}
);
width = 876;
}
);
leftKerningGroup = _kern20;
rightKerningGroup = _kern20;
},
{
glyphname = W_alt;
layers = (
{
layerId = "690A5C2F-BA8A-4547-B0C9-560CF3D7C21C";
shapes = (
{
closed = 1;
nodes = (
(579,562,l),
(679,213,l),
(774,708,l),
(964,708,l),
(806,0,l),
(570,0,l),
(488,262,l),
(408,0,l),
(161,0,l),
(0,708,l),
(201,708,l),
(301,213,l),
(403,562,l)
);
}
);
width = 964;
}
);
leftKerningGroup = _kern19;
rightKerningGroup = _kern19;
},
{
glyphname = zero;
layers = (
{
layerId = "690A5C2F-BA8A-4547-B0C9-560CF3D7C21C";
shapes = (
{
closed = 1;
nodes = (
(437,159,o),
(442,290,o),
(442,354,cs),
(442,415,o),
(440,546,o),
(331,546,cs),
(224,546,o),
(215,418,o),
(215,354,cs),
(215,292,o),
(217,159,o),
(327,159,cs)
);
},
{
closed = 1;
nodes = (
(543,717,o),
(621,551,o),
(621,354,cs),
(621,155,o),
(542,-8,o),
(327,-8,cs),
(112,-8,o),
(37,155,o),
(37,351,cs),
(37,554,o),
(118,717,o),
(330,717,cs)
);
}
);
width = 657;
}
);
unicode = 48;
},
{
glyphname = one;
layers = (
{
layerId = "690A5C2F-BA8A-4547-B0C9-560CF3D7C21C";
shapes = (
{
closed = 1;
nodes = (
(321,0,l),
(140,0,l),
(140,487,l),
(5,487,l),
(5,627,l),
(89,627,o),
(148,645,o),
(189,708,c),
(321,708,l)
);
}
);
width = 408;
}
);
unicode = 49;
},
{
glyphname = two;
layers = (
{
layerId = "690A5C2F-BA8A-4547-B0C9-560CF3D7C21C";
shapes = (
{
closed = 1;
nodes = (
(208,304,ls),
(251,339,o),
(280,364,o),
(292,375,cs),
(326,406,o),
(349,440,o),
(349,473,cs),
(349,513,o),
(325,546,o),
(268,546,c),
(207,545,o),
(182,513,o),
(178,474,c),
(10,474,l),
(15,639,o),
(139,717,o),
(274,717,cs),
(410,717,o),
(527,639,o),
(527,495,cs),
(527,346,o),
(400,250,o),
(287,167,c),
(520,167,l),
(520,0,l),
(15,0,l),
(15,148,l)
);
}
);
width = 557;
}
);
unicode = 50;
},
{
glyphname = three;
layers = (
{
layerId = "690A5C2F-BA8A-4547-B0C9-560CF3D7C21C";
shapes = (
{
closed = 1;
nodes = (
(32,486,l),
(48,646,o),
(169,717,o),
(311,717,cs),
(433,717,o),
(559,664,o),
(559,519,cs),
(559,463,o),
(527,410,o),
(487,385,c),
(554,357,o),
(585,290,o),
(585,216,cs),
(584,52,o),
(450,-7,o),
(309,-7,cs),
(160,-7,o),
(29,70,o),
(13,240,c),
(189,240,l),
(197,189,o),
(244,162,o),
(310,162,cs),
(369,162,o),
(403,183,o),
(403,225,cs),
(403,259,o),
(380,284,o),
(332,284,cs),
(240,284,l),
(240,435,l),
(305,435,ls),
(358,435,o),
(378,464,o),
(378,493,cs),
(378,526,o),
(354,550,o),
(302,550,cs),
(245,550,o),
(210,521,o),
(206,486,c)
);
}
);
width = 622;
}
);
unicode = 51;
},
{
glyphname = four;
layers = (
{
layerId = "690A5C2F-BA8A-4547-B0C9-560CF3D7C21C";
shapes = (
{
closed = 1;
nodes = (
(544,287,l),
(622,287,l),
(622,123,l),
(544,123,l),
(544,0,l),
(365,0,l),
(365,123,l),
(22,123,l),
(22,261,l),
(339,708,l),
(544,708,l)
);
},
{
closed = 1;
nodes = (
(225,287,l),
(365,287,l),
(365,498,l)
);
}
);
width = 639;
}
);
unicode = 52;
},
{
glyphname = seven;
layers = (
{
layerId = "690A5C2F-BA8A-4547-B0C9-560CF3D7C21C";
shapes = (
{
closed = 1;
nodes = (
(46,0,l),
(306,540,l),
(-8,540,l),
(-8,708,l),
(513,708,l),
(513,579,l),
(248,0,l)
);
}
);
width = 516;
}
);
unicode = 55;
},
{
glyphname = eight;
layers = (
{
layerId = "690A5C2F-BA8A-4547-B0C9-560CF3D7C21C";
shapes = (
{
closed = 1;
nodes = (
(176,-8,o),
(37,53,o),
(37,217,cs),
(37,293,o),
(68,349,o),
(125,382,c),
(88,413,o),
(62,458,o),
(62,522,cs),
(62,666,o),
(191,717,o),
(314,717,cs),
(439,717,o),
(565,664,o),
(565,514,cs),
(565,459,o),
(534,409,o),
(499,382,c),
(555,351,o),
(590,298,o),
(590,214,cs),
(591,54,o),
(447,-8,o),
(311,-8,cs)
);
},
{
closed = 1;
nodes = (
(259,562,o),
(237,533,o),
(237,500,cs),
(237,465,o),
(261,432,o),
(314,432,cs),
(369,432,o),
(389,465,o),
(389,496,cs),
(389,532,o),
(362,562,o),
(310,562,cs)
);
},
{
closed = 1;
nodes = (
(409,272,o),
(374,302,o),
(313,302,cs),
(250,302,o),
(216,271,o),
(216,228,cs),
(216,183,o),
(254,154,o),
(312,154,cs),
(370,154,o),
(409,183,o),
(409,228,cs)
);
}
);
width = 627;
}
);
unicode = 56;
},
{
glyphname = nine;
layers = (
{
layerId = "690A5C2F-BA8A-4547-B0C9-560CF3D7C21C";
shapes = (
{
closed = 1;
nodes = (
(204,209,l),
(213,177,o),
(252,158,o),
(297,158,cs),
(393,158,o),
(425,243,o),
(422,307,c),
(374,251,o),
(302,241,o),
(257,241,cs),
(128,241,o),
(34,325,o),
(34,468,cs),
(34,636,o),
(166,717,o),
(307,717,cs),
(514,717,o),
(586,541,o),
(586,355,cs),
(586,161,o),
(507,-8,o),
(295,-8,cs),
(161,-8,o),
(51,60,o),
(35,209,c)
);
},
{
closed = 1;
nodes = (
(212,430,o),
(241,388,o),
(302,388,cs),
(372,388,o),
(392,441,o),
(391,473,cs),
(390,524,o),
(352,553,o),
(302,553,cs),
(241,553,o),
(212,511,o),
(212,471,cs)
);
}
);
width = 622;
}
);
unicode = 57;
},
{
glyphname = uni0430;
layers = (
{
layerId = "690A5C2F-BA8A-4547-B0C9-560CF3D7C21C";
shapes = (
{
closed = 1;
nodes = (
(266,213,ls),
(227,213,o),
(204,201,o),
(204,172,cs),
(204,143,o),
(226,127,o),
(261,127,cs),
(317,127,o),
(361,169,o),
(364,213,c)
);
},
{
closed = 1;
nodes = (
(367,59,l),
(321,8,o),
(270,-8,o),
(203,-8,cs),
(115,-8,o),
(29,44,o),
(29,153,cs),
(29,223,o),
(65,270,o),
(114,295,cs),
(175,326,o),
(253,322,o),
(338,322,cs),
(362,322,l),
(361,359,o),
(334,389,o),
(287,389,cs),
(252,389,o),
(219,373,o),
(215,350,c),
(39,350,l),
(55,481,o),
(170,537,o),
(295,537,cs),
(450,537,o),
(530,450,o),
(530,283,cs),
(530,0,l),
(367,0,l)
);
}
);
width = 576;
}
);
leftKerningGroup = _kern27;
rightKerningGroup = _kern27;
unicode = 1072;
},
{
glyphname = uni0435;
layers = (
{
layerId = "690A5C2F-BA8A-4547-B0C9-560CF3D7C21C";
shapes = (
{
closed = 1;
nodes = (
(339,140,o),
(369,159,o),
(376,178,c),
(549,178,l),
(520,47,o),
(414,-8,o),
(296,-8,cs),
(134,-8,o),
(27,94,o),
(27,260,cs),
(27,426,o),
(135,538,o),
(298,538,cs),
(452,538,o),
(549,437,o),
(549,278,cs),
(549,255,o),
(547,236,o),
(542,213,c),
(202,213,l),
(206,174,o),
(234,140,o),
(292,140,cs)
);
},
{
closed = 1;
nodes = (
(232,398,o),
(205,358,o),
(205,328,c),
(383,328,l),
(383,358,o),
(359,398,o),
(295,398,cs)
);
}
);
width = 576;
}
);
leftKerningGroup = _kern9;
rightKerningGroup = _kern10;
unicode = 1077;
},
{
glyphname = uni043E;
layers = (
{
layerId = "690A5C2F-BA8A-4547-B0C9-560CF3D7C21C";
shapes = (
{
closed = 1;
nodes = (
(224,373,o),
(200,310,o),
(200,260,cs),
(200,210,o),
(224,156,o),
(301,156,cs),
(378,156,o),
(401,212,o),
(401,260,cs),
(401,308,o),
(378,373,o),
(301,373,cs)
);
},
{
closed = 1;
nodes = (
(148,-8,o),
(27,87,o),
(27,262,cs),
(27,439,o),
(151,538,o),
(301,538,cs),
(454,538,o),
(574,436,o),
(574,259,cs),
(574,86,o),
(459,-8,o),
(304,-8,cs)
);
}
);
width = 601;
}
);
leftKerningGroup = _kern9;
rightKerningGroup = _kern10;
unicode = 1086;
},
{
glyphname = uni0441;
layers = (
{
layerId = "690A5C2F-BA8A-4547-B0C9-560CF3D7C21C";
shapes = (
{
closed = 1;
nodes = (
(335,153,o),
(363,175,o),
(370,211,c),
(546,211,l),
(541,67,o),
(429,-8,o),
(290,-8,cs),
(130,-8,o),
(27,91,o),
(27,262,cs),
(27,437,o),
(134,538,o),
(293,538,cs),
(435,538,o),
(535,458,o),
(540,317,c),
(370,317,l),
(362,356,o),
(333,376,o),
(293,376,cs),
(219,376,o),
(202,309,o),
(202,263,cs),
(202,208,o),
(227,153,o),
(293,153,cs)
);
}
);
width = 568;
}
);
leftKerningGroup = _kern9;
rightKerningGroup = _kern10;
unicode = 1089;
},
{
glyphname = uni0218;
layers = (
{
layerId = "690A5C2F-BA8A-4547-B0C9-560CF3D7C21C";
shapes = (
{
closed = 1;
nodes = (
(427,481,l),
(420,525,o),
(378,551,o),
(316,551,cs),
(268,551,o),
(229,535,o),
(229,503,cs),
(229,471,o),
(266,457,o),
(339,440,cs),
(404,425,ls),
(521,398,o),
(618,368,o),
(618,221,cs),
(618,54,o),
(475,-6,o),
(333,-6,cs),
(177,-6,o),
(45,67,o),
(28,239,c),
(210,239,l),
(223,182,o),
(278,160,o),
(345,160,cs),
(385,160,o),
(436,168,o),
(436,211,cs),
(436,241,o),
(410,254,o),
(367,263,cs),
(309,275,ls),
(172,304,o),
(50,340,o),
(50,504,cs),
(50,506,ls),
(50,667,o),
(200,717,o),
(340,717,cs),
(488,717,o),
(587,631,o),
(602,481,c)
);
},
{
closed = 1;
nodes = (
(246,-240,l),
(270,-231,o),
(319,-196,o),
(327,-175,c),
(292,-174,o),
(258,-150,o),
(258,-106,cs),
(257,-58,o),
(295,-32,o),
(339,-32,cs),
(395,-33,o),
(427,-75,o),
(425,-134,cs),
(423,-216,o),
(356,-272,o),
(285,-297,c)
);
}
);
width = 647;
}
);
unicode = 536;
},
{
glyphname = uni0219;
layers = (
{
layerId = "690A5C2F-BA8A-4547-B0C9-560CF3D7C21C";
shapes = (
{
closed = 1;
nodes = (
(226,394,o),
(207,384,o),
(207,368,cs),
(207,359,o),
(213,348,o),
(238,341,cs),
(282,330,o),
(320,323,o),
(360,315,cs),
(425,302,o),
(500,273,o),
(500,170,cs),
(500,34,o),
(373,-5,o),
(271,-5,cs),
(167,-5,o),
(44,36,o),
(23,180,c),
(202,180,l),
(210,153,o),
(239,136,o),
(276,136,cs),
(307,136,o),
(328,148,o),
(328,168,cs),
(328,195,o),
(291,197,o),
(244,207,cs),
(195,218,o),
(131,234,o),
(93,259,cs),
(54,286,o),
(38,327,o),
(38,374,cs),
(39,497,o),
(159,538,o),
(261,538,cs),
(373,538,o),
(471,487,o),
(487,356,c),
(316,356,l),
(313,380,o),
(286,394,o),
(253,394,cs)
);
},
{
closed = 1;
nodes = (
(181,-240,l),
(204,-231,o),
(255,-196,o),
(263,-175,c),
(227,-174,o),
(193,-149,o),
(193,-106,cs),
(193,-55,o),
(232,-30,o),
(275,-30,cs),
(331,-30,o),
(363,-74,o),
(363,-134,cs),
(363,-215,o),
(298,-271,o),
(220,-298,c)
);
}
);
width = 524;
}
);
leftKerningGroup = _kern5;
rightKerningGroup = _kern6;
unicode = 537;
},
{
glyphname = uni021A;
layers = (
{
layerId = "690A5C2F-BA8A-4547-B0C9-560CF3D7C21C";
shapes = (
{
closed = 1;
nodes = (
(5,540,l),
(5,708,l),
(612,708,l),
(612,540,l),
(398,540,l),
(398,0,l),
(218,0,l),
(218,540,l)
);
},
{
closed = 1;
nodes = (
(215,-238,l),
(239,-229,o),
(288,-194,o),
(296,-173,c),
(261,-172,o),
(227,-148,o),
(227,-105,cs),
(227,-54,o),
(267,-30,o),
(308,-30,cs),
(364,-31,o),
(394,-73,o),
(394,-132,cs),
(394,-214,o),
(325,-270,o),
(254,-295,c)
);
}
);
width = 617;
}
);
leftKerningGroup = _kern28;
rightKerningGroup = _kern28;
unicode = 538;
},
{
glyphname = uni021B;
layers = (
{
layerId = "690A5C2F-BA8A-4547-B0C9-560CF3D7C21C";
shapes = (
{
closed = 1;
nodes = (
(259,369,l),
(259,207,ls),
(259,182,o),
(261,159,o),
(303,159,cs),
(350,159,l),
(350,0,l),
(282,0,ls),
(161,0,o),
(82,35,o),
(82,180,cs),
(82,369,l),
(9,369,l),
(9,527,l),
(82,527,l),
(82,658,l),
(259,658,l),
(259,527,l),
(356,527,l),
(356,369,l)
);
},
{
closed = 1;
nodes = (
(120,-241,l),
(145,-231,o),
(194,-197,o),
(202,-176,c),
(167,-175,o),
(132,-150,o),
(132,-107,cs),
(132,-56,o),
(173,-31,o),
(214,-31,cs),
(271,-32,o),
(301,-75,o),
(301,-134,cs),
(301,-218,o),
(231,-274,o),
(160,-299,c)
);
}
);
width = 375;
}
);
leftKerningGroup = _kern21;
rightKerningGroup = _kern21;
unicode = 539;
},
{
glyphname = icircumflex;
layers = (
{
layerId = "690A5C2F-BA8A-4547-B0C9-560CF3D7C21C";
shapes = (
{
closed = 1;
nodes = (
(276,0,l),
(100,0,l),
(100,527,l),
(276,527,l)
);
},
{
closed = 1;
nodes = (
(245,769,l),
(414,577,l),
(248,577,l),
(187,661,l),
(129,577,l),
(-37,577,l),
(129,769,l)
);
}
);
width = 377;
}
);
unicode = 238;
},
{
glyphname = question;
layers = (
{
layerId = "690A5C2F-BA8A-4547-B0C9-560CF3D7C21C";
shapes = (
{
closed = 1;
nodes = (
(176,244,l),
(174,255,o),
(173,265,o),
(173,276,cs),
(173,348,o),
(222,391,o),
(262,423,cs),
(297,451,o),
(327,475,o),
(327,506,cs),
(327,532,o),
(307,551,o),
(263,551,cs),
(207,551,o),
(188,520,o),
(188,485,c),
(17,485,l),
(17,510,ls),
(17,662,o),
(145,717,o),
(265,717,cs),
(386,717,o),
(506,661,o),
(506,520,cs),
(506,442,o),
(459,400,o),
(396,342,cs),
(371,319,o),
(340,291,o),
(340,244,c)
);
},
{
closed = 1;
nodes = (
(314,201,o),
(365,170,o),
(365,98,cs),
(365,24,o),
(314,-9,o),
(260,-9,cs),
(207,-9,o),
(154,24,o),
(154,98,cs),
(154,170,o),
(207,201,o),
(260,201,cs)
);
}
);
width = 541;
}
);
unicode = 63;
},
{
glyphname = uni2116;
layers = (
{
layerId = "690A5C2F-BA8A-4547-B0C9-560CF3D7C21C";
shapes = (
{
closed = 1;
nodes = (
(712,323,l),
(1051,323,l),
(1051,182,l),
(712,182,l)
);
},
{
closed = 1;
nodes = (
(206,708,l),
(449,340,l),
(449,708,l),
(629,708,l),
(629,0,l),
(466,0,l),
(217,366,l),
(217,0,l),
(39,0,l),
(39,708,l)
);
},
{
closed = 1;
nodes = (
(992,712,o),
(1069,640,o),
(1069,531,cs),
(1069,416,o),
(981,350,o),
(881,350,cs),
(780,350,o),
(694,416,o),
(694,531,cs),
(694,643,o),
(777,712,o),
(883,712,cs)
);
},
{
closed = 1;
nodes = (
(838,582,o),
(829,545,o),
(829,530,cs),
(829,516,o),
(838,481,o),
(881,481,cs),
(924,481,o),
(933,516,o),
(933,530,cs),
(933,545,o),
(924,582,o),
(881,582,cs)
);
}
);
width = 1108;
}
);
unicode = 8470;
},
{
glyphname = uni0401;
layers = (
{
layerId = "690A5C2F-BA8A-4547-B0C9-560CF3D7C21C";
shapes = (
{
closed = 1;
nodes = (
(601,708,l),
(601,540,l),
(248,540,l),
(248,432,l),
(539,432,l),
(539,272,l),
(248,272,l),
(248,167,l),
(601,167,l),
(601,0,l),
(67,0,l),
(67,708,l)
);
},
{
closed = 1;
nodes = (
(261,952,o),
(306,918,o),
(306,857,cs),
(306,798,o),
(263,766,o),
(212,766,cs),
(163,766,o),
(118,798,o),
(118,857,cs),
(118,917,o),
(164,952,o),
(212,952,cs)
);
},
{
closed = 1;
nodes = (
(516,952,o),
(561,918,o),
(561,857,cs),
(561,798,o),
(518,766,o),
(467,766,cs),
(418,766,o),
(373,798,o),
(373,857,cs),
(373,917,o),
(419,952,o),
(467,952,cs)
);
}
);
width = 629;
}
);
unicode = 1025;
},
{
glyphname = asciitilde;
layers = (
{
layerId = "690A5C2F-BA8A-4547-B0C9-560CF3D7C21C";
shapes = (
{
closed = 1;
nodes = (
(465,406,o),
(477,439,o),
(470,483,c),
(623,483,l),
(626,463,o),
(626,452,o),
(626,452,cs),
(626,303,o),
(570,225,o),
(468,225,cs),
(395,225,o),
(347,265,o),
(314,293,cs),
(299,305,o),
(282,320,o),
(263,320,cs),
(236,320,o),
(223,292,o),
(223,261,cs),
(223,252,o),
(222,241,o),
(225,232,c),
(70,232,l),
(67,252,o),
(67,260,o),
(67,271,cs),
(67,414,o),
(135,492,o),
(244,492,cs),
(313,492,o),
(347,461,o),
(378,435,c),
(393,424,o),
(413,406,o),
(435,406,cs)
);
}
);
width = 693;
}
);
unicode = 126;
},
{
glyphname = trademark;
layers = (
{
layerId = "690A5C2F-BA8A-4547-B0C9-560CF3D7C21C";
shapes = (
{
closed = 1;
nodes = (
(341,578,l),
(255,578,l),
(255,371,l),
(125,371,l),
(125,578,l),
(39,578,l),
(39,708,l),
(341,708,l)
);
},
{
closed = 1;
nodes = (
(491,524,l),
(491,371,l),
(382,371,l),
(382,708,l),
(500,708,l),
(573,594,l),
(644,708,l),
(761,708,l),
(761,371,l),
(654,371,l),
(654,524,l),
(580,421,l),
(566,421,l)
);
}
);
width = 800;
}
);
unicode = 8482;
},
{
glyphname = registered;
layers = (
{
layerId = "690A5C2F-BA8A-4547-B0C9-560CF3D7C21C";
shapes = (
{
closed = 1;
nodes = (
(374,736,o),
(464,659,o),
(464,531,cs),
(464,402,o),
(372,329,o),
(247,329,cs),
(125,329,o),
(32,399,o),
(32,530,cs),
(32,660,o),
(125,736,o),
(249,736,cs)
);
},
{
closed = 1;
nodes = (
(168,665,o),
(107,619,o),
(107,531,cs),
(107,444,o),
(168,400,o),
(248,400,cs),
(328,400,o),
(388,443,o),
(388,533,cs),
(388,619,o),
(333,665,o),
(250,665,cs)
);
},
{
closed = 1;
nodes = (
(350,437,l),
(279,437,l),
(245,498,l),
(235,498,l),
(235,437,l),
(171,437,l),
(171,639,l),
(257,639,ls),
(304,639,o),
(341,617,o),
(341,571,cs),
(341,543,o),
(329,519,o),
(305,508,c)
);
},
{
closed = 1;
nodes = (
(235,586,l),
(235,549,l),
(259,549,ls),
(270,549,o),
(280,556,o),
(280,570,cs),
(280,583,o),
(271,586,o),
(256,586,cs)
);
}
);
width = 496;
}
);
unicode = 174;
},
{
glyphname = degree;
layers = (
{
layerId = "690A5C2F-BA8A-4547-B0C9-560CF3D7C21C";
shapes = (
{
closed = 1;
nodes = (
(312,754,o),
(393,691,o),
(393,582,cs),
(393,473,o),
(312,416,o),
(216,416,cs),
(121,416,o),
(39,473,o),
(39,580,cs),
(39,689,o),
(123,754,o),
(218,754,cs)
);
},
{
closed = 1;
nodes = (
(189,633,o),
(166,612,o),
(166,583,cs),
(166,554,o),
(189,534,o),
(218,534,cs),
(249,534,o),
(271,554,o),
(271,583,cs),
(271,612,o),
(249,633,o),
(218,633,cs)
);
}
);
width = 432;
}
);
unicode = 176;
},
{
glyphname = bullet;
layers = (
{
layerId = "690A5C2F-BA8A-4547-B0C9-560CF3D7C21C";
shapes = (
{
closed = 1;
nodes = (
(274,512,o),
(338,450,o),
(338,363,cs),
(338,274,o),
(275,215,o),
(189,215,cs),
(104,215,o),
(39,274,o),
(39,363,cs),
(39,454,o),
(103,512,o),
(187,512,cs)
);
}
);
width = 377;
}
);
unicode = 8226;
},
{
glyphname = uni27F5;
layers = (
{
layerId = "690A5C2F-BA8A-4547-B0C9-560CF3D7C21C";
shapes = (
{
closed = 1;
nodes = (
(525,488,l),
(358,355,l),
(1365,355,l),
(1365,197,l),
(358,197,l),
(525,64,l),
(426,-59,l),
(39,277,l),
(425,611,l)
);
}
);
width = 1404;
}
);
unicode = 10229;
},
{
glyphname = uni27F6;
layers = (
{
layerId = "690A5C2F-BA8A-4547-B0C9-560CF3D7C21C";
shapes = (
{
closed = 1;
nodes = (
(979,611,l),
(1365,277,l),
(978,-59,l),
(879,64,l),
(1046,197,l),
(39,197,l),
(39,355,l),
(1046,355,l),
(879,488,l)
);
}
);
width = 1404;
}
);
unicode = 10230;
},
{
glyphname = arrowup;
layers = (
{
layerId = "690A5C2F-BA8A-4547-B0C9-560CF3D7C21C";
shapes = (
{
closed = 1;
nodes = (
(39,321,l),
(386,680,l),
(734,321,l),
(611,212,l),
(464,384,l),
(464,0,l),
(310,0,l),
(310,384,l),
(163,212,l)
);
}
);
width = 773;
}
);
unicode = 8593;
},
{
glyphname = arrowdown;
layers = (
{
layerId = "690A5C2F-BA8A-4547-B0C9-560CF3D7C21C";
shapes = (
{
closed = 1;
nodes = (
(163,463,l),
(310,291,l),
(310,680,l),
(464,680,l),
(464,291,l),
(611,463,l),
(734,354,l),
(386,-5,l),
(39,354,l)
);
}
);
width = 773;
}
);
unicode = 8595;
},
{
glyphname = uni21BA;
layers = (
{
layerId = "690A5C2F-BA8A-4547-B0C9-560CF3D7C21C";
shapes = (
{
closed = 1;
nodes = (
(904,590,l),
(746,604,l),
(820,546,o),
(871,432,o),
(871,334,cs),
(871,110,o),
(717,-50,o),
(458,-50,cs),
(198,-50,o),
(40,112,o),
(40,352,cs),
(40,493,o),
(94,617,o),
(211,696,c),
(317,575,l),
(234,518,o),
(202,429,o),
(202,352,cs),
(202,230,o),
(284,107,o),
(459,107,cs),
(637,107,o),
(708,233,o),
(708,347,cs),
(708,377,o),
(703,441,o),
(636,519,c),
(636,351,l),
(497,351,l),
(513,751,l),
(913,727,l)
);
}
);
width = 952;
}
);
unicode = 8634;
},
{
glyphname = uni21BB;
layers = (
{
layerId = "690A5C2F-BA8A-4547-B0C9-560CF3D7C21C";
shapes = (
{
closed = 1;
nodes = (
(39,727,l),
(439,751,l),
(455,351,l),
(316,351,l),
(316,519,l),
(247,442,o),
(244,379,o),
(244,354,cs),
(244,233,o),
(315,108,o),
(493,108,cs),
(668,108,o),
(750,230,o),
(750,352,cs),
(750,429,o),
(718,518,o),
(635,575,c),
(741,696,l),
(858,617,o),
(912,493,o),
(912,352,cs),
(912,113,o),
(754,-51,o),
(494,-51,cs),
(235,-51,o),
(81,111,o),
(81,334,cs),
(81,432,o),
(132,546,o),
(206,604,c),
(48,590,l)
);
}
);
width = 952;
}
);
unicode = 8635;
},
{
glyphname = uni21B7;
layers = (
{
layerId = "690A5C2F-BA8A-4547-B0C9-560CF3D7C21C";
shapes = (
{
closed = 1;
nodes = (
(946,258,l),
(999,109,l),
(617,-32,l),
(449,335,l),
(600,400,l),
(660,235,l),
(675,268,o),
(686,317,o),
(686,358,cs),
(686,468,o),
(605,574,o),
(446,574,cs),
(298,574,o),
(202,483,o),
(199,331,c),
(39,331,l),
(44,596,o),
(220,733,o),
(449,733,cs),
(678,733,o),
(836,595,o),
(844,375,cs),
(847,310,o),
(830,245,o),
(798,197,c)
);
}
);
width = 1038;
}
);
unicode = 8631;
},
{
glyphname = uni21B6;
layers = (
{
layerId = "690A5C2F-BA8A-4547-B0C9-560CF3D7C21C";
shapes = (
{
closed = 1;
nodes = (
(240,197,l),
(208,245,o),
(190,312,o),
(193,377,cs),
(201,597,o),
(360,733,o),
(589,733,cs),
(818,733,o),
(994,596,o),
(999,331,c),
(839,331,l),
(834,483,o),
(742,574,o),
(593,574,cs),
(433,574,o),
(352,468,o),
(352,358,cs),
(352,317,o),
(363,277,o),
(378,244,c),
(437,398,l),
(588,333,l),
(421,-32,l),
(39,109,l),
(92,258,l)
);
}
);
width = 1038;
}
);
unicode = 8630;
},
{
glyphname = five;
layers = (
{
layerId = "690A5C2F-BA8A-4547-B0C9-560CF3D7C21C";
shapes = (
{
closed = 1;
nodes = (
(61,291,l),
(61,708,l),
(555,708,l),
(555,543,l),
(233,543,l),
(233,452,l),
(277,479,o),
(335,483,o),
(373,481,cs),
(511,475,o),
(580,387,o),
(580,256,cs),
(580,83,o),
(460,-7,o),
(304,-7,cs),
(163,-7,o),
(61,67,o),
(42,233,c),
(218,233,l),
(223,204,o),
(251,162,o),
(315,162,cs),
(376,162,o),
(397,203,o),
(397,241,cs),
(397,287,o),
(367,325,o),
(303,325,cs),
(267,325,o),
(236,312,o),
(204,291,c)
);
}
);
width = 614;
}
);
unicode = 53;
},
{
glyphname = six;
layers = (
{
layerId = "690A5C2F-BA8A-4547-B0C9-560CF3D7C21C";
shapes = (
{
closed = 1;
nodes = (
(423,498,l),
(412,530,o),
(381,553,o),
(333,553,cs),
(241,553,o),
(199,467,o),
(199,392,c),
(249,458,o),
(329,469,o),
(365,469,cs),
(509,469,o),
(590,383,o),
(590,242,cs),
(590,88,o),
(481,-8,o),
(325,-8,cs),
(120,-8,o),
(38,159,o),
(38,346,cs),
(38,542,o),
(133,717,o),
(341,717,cs),
(472,717,o),
(575,649,o),
(588,498,c)
);
},
{
closed = 1;
nodes = (
(410,279,o),
(384,318,o),
(328,318,cs),
(271,318,o),
(238,278,o),
(238,237,cs),
(238,199,o),
(267,157,o),
(327,157,c),
(386,158,o),
(410,198,o),
(410,238,cs)
);
}
);
width = 624;
}
);
unicode = 54;
},
{
glyphname = dieresis;
layers = (
{
layerId = "690A5C2F-BA8A-4547-B0C9-560CF3D7C21C";
shapes = (
{
closed = 1;
nodes = (
(240,733,o),
(285,699,o),
(285,638,cs),
(285,579,o),
(242,547,o),
(191,547,cs),
(142,547,o),
(97,579,o),
(97,638,cs),
(97,698,o),
(143,733,o),
(191,733,cs)
);
},
{
closed = 1;
nodes = (
(495,733,o),
(540,699,o),
(540,638,cs),
(540,579,o),
(497,547,o),
(446,547,cs),
(397,547,o),
(352,579,o),
(352,638,cs),
(352,698,o),
(398,733,o),
(446,733,cs)
);
}
);
width = 637;
}
);
unicode = 168;
},
{
glyphname = adieresis;
layers = (
{
layerId = "690A5C2F-BA8A-4547-B0C9-560CF3D7C21C";
shapes = (
{
closed = 1;
nodes = (
(217,766,o),
(263,732,o),
(263,671,cs),
(263,611,o),
(219,579,o),
(168,579,cs),
(117,579,o),
(73,611,o),
(73,671,cs),
(73,731,o),
(118,766,o),
(168,766,cs)
);
},
{
closed = 1;
nodes = (
(472,766,o),
(516,732,o),
(516,672,cs),
(516,611,o),
(474,579,o),
(423,579,cs),
(373,579,o),
(326,611,o),
(326,671,cs),
(326,731,o),
(373,766,o),
(423,766,cs)
);
},
{
closed = 1;
nodes = (
(265,213,ls),
(232,213,o),
(204,201,o),
(204,170,cs),
(204,142,o),
(229,127,o),
(261,127,cs),
(317,127,o),
(361,169,o),
(364,213,c)
);
},
{
closed = 1;
nodes = (
(367,69,l),
(315,-10,o),
(232,-8,o),
(213,-8,cs),
(115,-8,o),
(29,44,o),
(29,153,cs),
(29,223,o),
(65,270,o),
(114,295,cs),
(175,326,o),
(253,322,o),
(338,322,cs),
(362,322,l),
(361,359,o),
(334,389,o),
(287,389,cs),
(252,389,o),
(219,373,o),
(215,350,c),
(39,350,l),
(55,481,o),
(170,537,o),
(295,537,cs),
(450,537,o),
(530,450,o),
(530,283,cs),
(530,0,l),
(367,0,l)
);
}
);
width = 576;
}
);
leftKerningGroup = _kern27;
rightKerningGroup = _kern27;
unicode = 228;
},
{
glyphname = Adieresis;
layers = (
{
layerId = "690A5C2F-BA8A-4547-B0C9-560CF3D7C21C";
shapes = (
{
closed = 1;
nodes = (
(189,0,l),
(-5,0,l),
(279,708,l),
(463,708,l),
(744,0,l),
(549,0,l),
(514,100,l),
(225,100,l)
);
},
{
closed = 1;
nodes = (
(457,263,l),
(371,506,l),
(282,263,l)
);
},
{
closed = 1;
nodes = (
(297,935,o),
(342,901,o),
(342,840,cs),
(342,781,o),
(299,749,o),
(248,749,cs),
(199,749,o),
(154,781,o),
(154,840,cs),
(154,900,o),
(200,935,o),
(248,935,cs)
);
},
{
closed = 1;
nodes = (
(552,935,o),
(597,901,o),
(597,840,cs),
(597,781,o),
(554,749,o),
(503,749,cs),
(454,749,o),
(409,781,o),
(409,840,cs),
(409,900,o),
(455,935,o),
(503,935,cs)
);
}
);
width = 739;
}
);
leftKerningGroup = _kern30;
rightKerningGroup = _kern30;
unicode = 196;
},
{
glyphname = cedilla;
layers = (
{
layerId = "690A5C2F-BA8A-4547-B0C9-560CF3D7C21C";
shapes = (
{
closed = 1;
nodes = (
(360,52,l),
(339,-28,l),
(391,-31,o),
(441,-55,o),
(441,-136,cs),
(441,-234,o),
(356,-278,o),
(275,-278,cs),
(236,-278,o),
(216,-274,o),
(197,-269,c),
(197,-167,l),
(273,-183,o),
(310,-170,o),
(310,-138,cs),
(310,-118,o),
(291,-107,o),
(261,-106,cs),
(236,-105,o),
(208,-111,o),
(199,-115,c),
(248,52,l)
);
}
);
width = 622;
}
);
unicode = 184;
},
{
glyphname = ecircumflex;
layers = (
{
layerId = "690A5C2F-BA8A-4547-B0C9-560CF3D7C21C";
shapes = (
{
closed = 1;
nodes = (
(335,140,o),
(365,159,o),
(372,178,c),
(545,178,l),
(516,47,o),
(410,-8,o),
(292,-8,cs),
(130,-8,o),
(23,94,o),
(23,260,cs),
(23,426,o),
(131,538,o),
(294,538,cs),
(448,538,o),
(545,437,o),
(545,278,cs),
(545,255,o),
(543,236,o),
(538,213,c),
(198,213,l),
(202,174,o),
(230,140,o),
(288,140,cs)
);
},
{
closed = 1;
nodes = (
(228,398,o),
(201,358,o),
(201,328,c),
(379,328,l),
(379,358,o),
(355,398,o),
(291,398,cs)
);
},
{
closed = 1;
nodes = (
(348,769,l),
(517,577,l),
(351,577,l),
(290,661,l),
(232,577,l),
(66,577,l),
(232,769,l)
);
}
);
width = 570;
}
);
leftKerningGroup = _kern5;
rightKerningGroup = _kern6;
unicode = 234;
},
{
glyphname = dotlessi;
layers = (
{
layerId = "690A5C2F-BA8A-4547-B0C9-560CF3D7C21C";
shapes = (
{
closed = 1;
nodes = (
(224,0,l),
(47,0,l),
(47,527,l),
(224,527,l)
);
}
);
width = 272;
}
);
unicode = 305;
},
{
glyphname = udieresis;
layers = (
{
layerId = "690A5C2F-BA8A-4547-B0C9-560CF3D7C21C";
shapes = (
{
closed = 1;
nodes = (
(215,766,o),
(261,732,o),
(261,671,cs),
(261,611,o),
(217,579,o),
(166,579,cs),
(115,579,o),
(71,611,o),
(71,671,cs),
(71,731,o),
(116,766,o),
(166,766,cs)
);
},
{
closed = 1;
nodes = (
(474,766,o),
(518,732,o),
(518,672,cs),
(518,611,o),
(476,579,o),
(425,579,cs),
(375,579,o),
(328,611,o),
(328,671,cs),
(328,731,o),
(375,766,o),
(425,766,cs)
);
},
{
closed = 1;
nodes = (
(366,153,o),
(369,207,o),
(369,248,cs),
(369,527,l),
(545,527,l),
(545,234,ls),
(545,62,o),
(450,-8,o),
(299,-8,cs),
(137,-8,o),
(45,72,o),
(45,234,cs),
(45,527,l),
(222,527,l),
(222,248,ls),
(222,196,o),
(241,153,o),
(300,153,cs)
);
}
);
width = 591;
}
);
unicode = 252;
},
{
glyphname = Udieresis;
layers = (
{
layerId = "690A5C2F-BA8A-4547-B0C9-560CF3D7C21C";
shapes = (
{
closed = 1;
nodes = (
(294,933,o),
(339,899,o),
(339,838,cs),
(339,779,o),
(296,747,o),
(245,747,cs),
(196,747,o),
(151,779,o),
(151,838,cs),
(151,898,o),
(197,933,o),
(245,933,cs)
);
},
{
closed = 1;
nodes = (
(549,933,o),
(594,899,o),
(594,838,cs),
(594,779,o),
(551,747,o),
(500,747,cs),
(451,747,o),
(406,779,o),
(406,838,cs),
(406,898,o),
(452,933,o),
(500,933,cs)
);
},
{
closed = 1;
nodes = (
(162,-8,o),
(62,106,o),
(62,326,cs),
(62,708,l),
(244,708,l),
(244,315,ls),
(244,238,o),
(273,161,o),
(377,161,cs),
(482,161,o),
(503,240,o),
(503,315,cs),
(503,708,l),
(685,708,l),
(685,326,ls),
(685,107,o),
(588,-8,o),
(375,-8,cs)
);
}
);
width = 747;
}
);
leftKerningGroup = _kern1;
rightKerningGroup = _kern2;
unicode = 220;
},
{
glyphname = ccedilla;
layers = (
{
layerId = "690A5C2F-BA8A-4547-B0C9-560CF3D7C21C";
shapes = (
{
closed = 1;
nodes = (
(332,153,o),
(360,175,o),
(367,211,c),
(543,211,l),
(538,84,o),
(453,12,o),
(341,-4,c),
(335,-28,l),
(387,-31,o),
(437,-56,o),
(437,-137,cs),
(437,-236,o),
(352,-281,o),
(270,-281,cs),
(230,-281,o),
(210,-277,o),
(191,-272,c),
(191,-169,l),
(267,-185,o),
(305,-172,o),
(305,-141,cs),
(305,-93,o),
(213,-108,o),
(193,-116,c),
(226,-2,l),
(99,21,o),
(24,115,o),
(24,262,cs),
(24,437,o),
(131,538,o),
(290,538,cs),
(432,538,o),
(532,458,o),
(537,317,c),
(367,317,l),
(359,356,o),
(330,376,o),
(291,376,cs),
(218,376,o),
(199,309,o),
(199,262,cs),
(199,208,o),
(224,153,o),
(290,153,cs)
);
}
);
width = 565;
}
);
leftKerningGroup = _kern5;
rightKerningGroup = _kern6;
unicode = 231;
},
{
glyphname = uni0162;
layers = (
{
layerId = "690A5C2F-BA8A-4547-B0C9-560CF3D7C21C";
shapes = (
{
closed = 1;
nodes = (
(5,540,l),
(5,708,l),
(607,708,l),
(607,540,l),
(396,540,l),
(396,0,l),
(362,0,l),
(355,-28,l),
(406,-31,o),
(456,-55,o),
(456,-136,cs),
(456,-234,o),
(371,-278,o),
(290,-278,cs),
(251,-278,o),
(231,-274,o),
(212,-269,c),
(212,-167,l),
(288,-183,o),
(325,-170,o),
(325,-140,cs),
(325,-92,o),
(234,-107,o),
(214,-115,c),
(247,0,l),
(216,0,l),
(216,540,l)
);
}
);
width = 612;
}
);
leftKerningGroup = _kern28;
rightKerningGroup = _kern28;
unicode = 354;
},
{
glyphname = uni0163;
layers = (
{
layerId = "690A5C2F-BA8A-4547-B0C9-560CF3D7C21C";
shapes = (
{
closed = 1;
nodes = (
(259,369,l),
(259,207,ls),
(259,182,o),
(261,159,o),
(303,159,cs),
(350,159,l),
(350,0,l),
(304,0,ls),
(289,0,o),
(276,0,o),
(263,1,c),
(256,-28,l),
(306,-31,o),
(358,-56,o),
(358,-137,cs),
(358,-236,o),
(271,-281,o),
(190,-281,cs),
(151,-281,o),
(130,-277,o),
(111,-272,c),
(111,-169,l),
(188,-185,o),
(225,-172,o),
(225,-141,cs),
(225,-93,o),
(134,-107,o),
(113,-116,c),
(155,26,l),
(107,51,o),
(82,99,o),
(82,180,cs),
(82,369,l),
(9,369,l),
(9,527,l),
(82,527,l),
(82,658,l),
(259,658,l),
(259,527,l),
(356,527,l),
(356,369,l)
);
}
);
width = 377;
}
);
leftKerningGroup = _kern21;
rightKerningGroup = _kern21;
unicode = 355;
},
{
glyphname = Ccedilla;
layers = (
{
layerId = "690A5C2F-BA8A-4547-B0C9-560CF3D7C21C";
shapes = (
{
closed = 1;
nodes = (
(215,265,o),
(259,163,o),
(386,163,cs),
(461,163,o),
(509,199,o),
(524,263,c),
(699,263,l),
(686,105,o),
(571,12,o),
(433,-4,c),
(427,-28,l),
(478,-31,o),
(528,-55,o),
(528,-136,cs),
(528,-234,o),
(443,-278,o),
(362,-278,cs),
(323,-278,o),
(303,-274,o),
(284,-269,c),
(284,-167,l),
(360,-183,o),
(397,-170,o),
(397,-140,cs),
(397,-92,o),
(306,-107,o),
(286,-115,c),
(318,-4,l),
(136,20,o),
(28,151,o),
(28,350,cs),
(28,576,o),
(167,717,o),
(377,717,cs),
(543,717,o),
(675,628,o),
(691,445,c),
(520,445,l),
(504,509,o),
(461,546,o),
(383,546,cs),
(257,546,o),
(215,449,o),
(215,358,cs)
);
}
);
width = 727;
}
);
leftKerningGroup = _kern3;
rightKerningGroup = _kern4;
unicode = 199;
},
{
glyphname = scedilla;
layers = (
{
layerId = "690A5C2F-BA8A-4547-B0C9-560CF3D7C21C";
shapes = (
{
closed = 1;
nodes = (
(226,394,o),
(207,384,o),
(207,368,cs),
(207,359,o),
(213,348,o),
(238,341,cs),
(282,330,o),
(320,323,o),
(360,315,cs),
(425,302,o),
(500,273,o),
(500,170,cs),
(500,49,o),
(399,2,o),
(310,-6,c),
(305,-28,l),
(357,-31,o),
(407,-56,o),
(407,-137,cs),
(407,-236,o),
(321,-281,o),
(239,-281,cs),
(200,-281,o),
(180,-277,o),
(161,-272,c),
(161,-169,l),
(237,-185,o),
(275,-172,o),
(275,-141,cs),
(275,-93,o),
(182,-108,o),
(163,-116,c),
(196,0,l),
(113,16,o),
(39,67,o),
(23,180,c),
(202,180,l),
(210,153,o),
(239,136,o),
(276,136,cs),
(307,136,o),
(328,148,o),
(328,168,cs),
(328,195,o),
(291,197,o),
(244,207,cs),
(195,218,o),
(131,234,o),
(93,259,cs),
(54,286,o),
(37,327,o),
(38,374,cs),
(40,497,o),
(159,538,o),
(261,538,cs),
(373,538,o),
(471,487,o),
(487,356,c),
(316,356,l),
(313,380,o),
(286,394,o),
(253,394,cs)
);
}
);
width = 524;
}
);
leftKerningGroup = _kern5;
rightKerningGroup = _kern6;
unicode = 351;
},
{
glyphname = uni21A9;
layers = (
{
layerId = "690A5C2F-BA8A-4547-B0C9-560CF3D7C21C";
shapes = (
{
closed = 1;
nodes = (
(165,518,l),
(165,676,l),
(811,676,ls),
(1006,676,o),
(1152,532,o),
(1152,339,cs),
(1152,146,o),
(1005,0,o),
(811,0,cs),
(355,0,l),
(522,-135,l),
(426,-256,l),
(39,79,l),
(425,413,l),
(522,290,l),
(357,157,l),
(787,157,ls),
(902,157,o),
(987,227,o),
(987,339,cs),
(987,452,o),
(899,518,o),
(787,518,cs)
);
}
);
width = 1191;
}
);
unicode = 8617;
},
{
glyphname = uni2713;
layers = (
{
layerId = "690A5C2F-BA8A-4547-B0C9-560CF3D7C21C";
shapes = (
{
closed = 1;
nodes = (
(403,230,l),
(937,827,l),
(1061,716,l),
(407,-18,l),
(39,372,l),
(157,488,l)
);
}
);
width = 1100;
}
);
unicode = 10003;
},
{
glyphname = divide;
layers = (
{
layerId = "690A5C2F-BA8A-4547-B0C9-560CF3D7C21C";
shapes = (
{
closed = 1;
nodes = (
(39,284,l),
(39,438,l),
(529,438,l),
(529,284,l)
);
},
{
closed = 1;
nodes = (
(339,677,o),
(387,638,o),
(387,569,cs),
(387,501,o),
(338,465,o),
(282,465,cs),
(226,465,o),
(176,500,o),
(176,568,cs),
(176,637,o),
(230,677,o),
(284,677,cs)
);
},
{
closed = 1;
nodes = (
(339,256,o),
(387,217,o),
(387,148,cs),
(387,80,o),
(338,44,o),
(282,44,cs),
(226,44,o),
(176,79,o),
(176,147,cs),
(176,216,o),
(230,256,o),
(284,256,cs)
);
}
);
width = 568;
}
);
unicode = 247;
},
{
glyphname = multiply;
layers = (
{
layerId = "690A5C2F-BA8A-4547-B0C9-560CF3D7C21C";
shapes = (
{
closed = 1;
nodes = (
(318,257,l),
(160,96,l),
(50,206,l),
(208,361,l),
(50,515,l),
(161,622,l),
(318,466,l),
(471,622,l),
(584,516,l),
(425,361,l),
(585,207,l),
(474,96,l)
);
}
);
width = 635;
}
);
unicode = 215;
},
{
glyphname = yen;
layers = (
{
layerId = "690A5C2F-BA8A-4547-B0C9-560CF3D7C21C";
shapes = (
{
closed = 1;
nodes = (
(544,708,l),
(753,708,l),
(542,375,l),
(632,375,l),
(632,241,l),
(477,241,l),
(477,208,l),
(632,208,l),
(632,77,l),
(477,77,l),
(477,0,l),
(297,0,l),
(297,77,l),
(142,77,l),
(142,208,l),
(297,208,l),
(297,241,l),
(142,241,l),
(142,375,l),
(231,375,l),
(229,375,l),
(19,708,l),
(228,708,l),
(388,425,l)
);
}
);
width = 772;
}
);
unicode = 165;
},
{
glyphname = uni20BD;
layers = (
{
layerId = "690A5C2F-BA8A-4547-B0C9-560CF3D7C21C";
shapes = (
{
closed = 1;
nodes = (
(377,708,ls),
(529,708,o),
(664,658,o),
(664,480,cs),
(664,311,o),
(541,254,o),
(402,254,cs),
(301,254,l),
(301,208,l),
(503,208,l),
(503,72,l),
(301,72,l),
(301,0,l),
(119,0,l),
(119,72,l),
(39,72,l),
(39,208,l),
(119,208,l),
(119,254,l),
(39,254,l),
(39,398,l),
(119,398,l),
(119,708,l)
);
},
{
closed = 1;
nodes = (
(376,398,ls),
(443,398,o),
(485,419,o),
(485,472,cs),
(485,521,o),
(448,540,o),
(379,540,cs),
(301,540,l),
(301,398,l)
);
}
);
width = 693;
}
);
unicode = 8381;
},
{
glyphname = uni20B4;
layers = (
{
layerId = "690A5C2F-BA8A-4547-B0C9-560CF3D7C21C";
shapes = (
{
closed = 1;
nodes = (
(427,718,o),
(565,682,o),
(565,545,cs),
(565,522,o),
(561,497,o),
(552,480,c),
(592,480,l),
(592,370,l),
(465,370,l),
(430,347,o),
(421,342,o),
(412,337,c),
(592,337,l),
(592,229,l),
(255,229,l),
(243,221,o),
(238,209,o),
(238,198,cs),
(238,174,o),
(264,157,o),
(312,157,cs),
(364,157,o),
(384,177,o),
(393,201,c),
(566,201,l),
(563,41,o),
(433,-7,o),
(301,-7,cs),
(203,-7,o),
(63,31,o),
(63,164,cs),
(63,192,o),
(69,214,o),
(76,229,c),
(27,229,l),
(27,337,l),
(169,337,l),
(182,345,o),
(213,367,o),
(218,370,c),
(27,370,l),
(27,479,l),
(365,479,l),
(384,490,o),
(389,503,o),
(389,514,cs),
(389,537,o),
(364,554,o),
(318,554,cs),
(273,554,o),
(246,538,o),
(238,506,c),
(63,506,l),
(68,674,o),
(211,718,o),
(324,718,cs)
);
}
);
width = 619;
}
);
unicode = 8372;
},
{
glyphname = sterling;
layers = (
{
layerId = "690A5C2F-BA8A-4547-B0C9-560CF3D7C21C";
shapes = (
{
closed = 1;
nodes = (
(298,418,l),
(504,418,l),
(504,260,l),
(298,260,l),
(298,167,l),
(594,167,l),
(594,0,l),
(40,0,l),
(40,167,l),
(121,167,l),
(121,260,l),
(39,260,l),
(39,418,l),
(121,418,l),
(121,498,ls),
(121,651,o),
(236,717,o),
(365,717,cs),
(493,717,o),
(580,652,o),
(585,494,c),
(422,494,l),
(422,526,o),
(416,567,o),
(364,567,cs),
(313,567,o),
(298,528,o),
(298,503,cs)
);
}
);
width = 633;
}
);
unicode = 163;
},
{
glyphname = Scedilla;
layers = (
{
layerId = "690A5C2F-BA8A-4547-B0C9-560CF3D7C21C";
shapes = (
{
closed = 1;
nodes = (
(427,481,l),
(420,525,o),
(378,551,o),
(316,551,cs),
(268,551,o),
(229,535,o),
(229,503,cs),
(229,471,o),
(267,460,o),
(339,441,cs),
(404,425,ls),
(520,395,o),
(618,365,o),
(618,221,cs),
(618,72,o),
(502,5,o),
(378,-6,c),
(373,-28,l),
(424,-31,o),
(474,-55,o),
(474,-136,cs),
(474,-234,o),
(389,-278,o),
(308,-278,cs),
(269,-278,o),
(249,-274,o),
(230,-269,c),
(230,-167,l),
(306,-183,o),
(343,-170,o),
(343,-140,cs),
(343,-92,o),
(252,-107,o),
(232,-115,c),
(265,-3,l),
(133,18,o),
(41,100,o),
(28,239,c),
(210,239,l),
(223,182,o),
(278,160,o),
(345,160,cs),
(385,160,o),
(436,168,o),
(436,211,cs),
(436,241,o),
(410,254,o),
(367,263,cs),
(309,275,ls),
(172,304,o),
(50,340,o),
(50,504,cs),
(50,506,l),
(60,667,o),
(200,717,o),
(340,717,cs),
(488,717,o),
(587,631,o),
(602,481,c)
);
}
);
width = 647;
}
);
leftKerningGroup = _kern3;
rightKerningGroup = _kern4;
unicode = 350;
},
{
glyphname = t_alt;
layers = (
{
layerId = "690A5C2F-BA8A-4547-B0C9-560CF3D7C21C";
shapes = (
{
closed = 1;
nodes = (
(259,369,l),
(259,210,ls),
(259,185,o),
(264,159,o),
(306,159,cs),
(350,159,l),
(350,0,l),
(304,0,ls),
(164,0,o),
(82,35,o),
(82,180,cs),
(82,369,l),
(9,369,l),
(9,527,l),
(86,527,l),
(113,658,l),
(259,658,l),
(259,527,l),
(356,527,l),
(356,369,l)
);
}
);
width = 375;
}
);
leftKerningGroup = _kern21;
rightKerningGroup = _kern21;
},
{
glyphname = alt_1;
layers = (
{
layerId = "690A5C2F-BA8A-4547-B0C9-560CF3D7C21C";
shapes = (
{
closed = 1;
nodes = (
(192,163,l),
(192,482,l),
(59,482,l),
(59,623,l),
(140,623,o),
(212,640,o),
(241,701,c),
(373,701,l),
(373,163,l),
(523,163,l),
(523,0,l),
(27,0,l),
(27,163,l)
);
}
);
width = 522;
}
);
},
{
glyphname = colon.uc;
layers = (
{
layerId = "690A5C2F-BA8A-4547-B0C9-560CF3D7C21C";
shapes = (
{
closed = 1;
nodes = (
(210,607,o),
(258,568,o),
(258,499,cs),
(258,431,o),
(209,395,o),
(153,395,cs),
(97,395,o),
(47,430,o),
(47,498,cs),
(47,567,o),
(101,607,o),
(155,607,cs)
);
},
{
closed = 1;
nodes = (
(210,279,o),
(258,240,o),
(258,171,cs),
(258,103,o),
(209,67,o),
(153,67,cs),
(97,67,o),
(47,102,o),
(47,170,cs),
(47,239,o),
(101,279,o),
(155,279,cs)
);
}
);
width = 305;
}
);
},
{
glyphname = t2.alt;
layers = (
{
layerId = "690A5C2F-BA8A-4547-B0C9-560CF3D7C21C";
shapes = (
{
closed = 1;
nodes = (
(362,160,o),
(383,172,o),
(396,183,c),
(444,44,l),
(397,5,o),
(323,-7,o),
(274,-7,cs),
(150,-7,o),
(83,69,o),
(83,188,cs),
(83,369,l),
(9,369,l),
(9,527,l),
(83,527,l),
(83,659,l),
(260,659,l),
(260,527,l),
(418,527,l),
(418,369,l),
(260,369,l),
(260,229,ls),
(260,185,o),
(282,160,o),
(329,160,cs)
);
}
);
width = 439;
}
);
},
{
glyphname = hyphen.uc;
layers = (
{
layerId = "690A5C2F-BA8A-4547-B0C9-560CF3D7C21C";
shapes = (
{
closed = 1;
nodes = (
(412,279,l),
(54,279,l),
(54,436,l),
(412,436,l)
);
}
);
width = 466;
}
);
},
{
glyphname = uni00AD.uc;
layers = (
{
layerId = "690A5C2F-BA8A-4547-B0C9-560CF3D7C21C";
shapes = (
{
closed = 1;
nodes = (
(412,279,l),
(54,279,l),
(54,436,l),
(412,436,l)
);
}
);
width = 466;
}
);
},
{
glyphname = endash.uc;
layers = (
{
layerId = "690A5C2F-BA8A-4547-B0C9-560CF3D7C21C";
shapes = (
{
closed = 1;
nodes = (
(54,279,l),
(54,436,l),
(576,436,l),
(576,279,l)
);
}
);
width = 630;
}
);
},
{
glyphname = emdash.uc;
layers = (
{
layerId = "690A5C2F-BA8A-4547-B0C9-560CF3D7C21C";
shapes = (
{
closed = 1;
nodes = (
(54,279,l),
(54,436,l),
(792,436,l),
(792,279,l)
);
}
);
width = 846;
}
);
},
{
glyphname = uni2117;
layers = (
{
layerId = "690A5C2F-BA8A-4547-B0C9-560CF3D7C21C";
shapes = (
{
closed = 1;
nodes = (
(224,-81,o),
(39,63,o),
(39,317,cs),
(39,574,o),
(228,726,o),
(453,726,cs),
(681,726,o),
(876,569,o),
(876,313,cs),
(876,66,o),
(695,-81,o),
(458,-81,cs)
);
},
{
closed = 1;
nodes = (
(652,55,o),
(739,165,o),
(739,315,cs),
(739,471,o),
(646,588,o),
(463,588,cs),
(283,588,o),
(182,476,o),
(182,318,cs),
(182,164,o),
(279,55,o),
(465,55,cs)
);
},
{
closed = 1;
nodes = (
(441,97,l),
(318,97,l),
(318,539,l),
(490,539,ls),
(589,539,o),
(671,504,o),
(671,380,cs),
(671,269,o),
(591,217,o),
(494,217,c),
(441,218,l)
);
},
{
closed = 1;
nodes = (
(441,429,l),
(441,323,l),
(491,323,ls),
(534,323,o),
(551,353,o),
(550,381,cs),
(549,406,o),
(533,429,o),
(489,429,cs)
);
}
);
width = 915;
}
);
unicode = 8471;
},
{
glyphname = f_alt;
layers = (
{
layerId = "690A5C2F-BA8A-4547-B0C9-560CF3D7C21C";
shapes = (
{
closed = 1;
nodes = (
(386,527,l),
(386,369,l),
(261,369,l),
(261,0,l),
(84,0,l),
(84,369,l),
(9,369,l),
(9,527,l),
(84,527,l),
(84,556,ls),
(84,691,o),
(185,749,o),
(295,749,cs),
(345,749,o),
(391,737,o),
(426,717,c),
(383,580,l),
(374,587,o),
(350,597,o),
(323,597,cs),
(282,597,o),
(261,574,o),
(261,538,cs),
(261,527,l)
);
}
);
width = 383;
}
);
},
{
glyphname = g_alt;
layers = (
{
layerId = "690A5C2F-BA8A-4547-B0C9-560CF3D7C21C";
shapes = (
{
closed = 1;
nodes = (
(588,122,ls),
(588,26,o),
(578,-81,o),
(528,-147,cs),
(470,-223,o),
(378,-248,o),
(284,-248,cs),
(203,-248,o),
(117,-229,o),
(44,-182,c),
(98,-39,l),
(135,-67,o),
(188,-83,o),
(264,-83,cs),
(372,-83,o),
(408,-27,o),
(411,55,c),
(374,2,o),
(297,-7,o),
(256,-7,cs),
(101,-7,o),
(23,107,o),
(23,256,cs),
(23,418,o),
(115,537,o),
(277,537,cs),
(316,537,o),
(368,530,o),
(411,483,c),
(427,527,l),
(588,527,l)
);
},
{
closed = 1;
nodes = (
(224,376,o),
(199,311,o),
(199,264,cs),
(199,209,o),
(232,153,o),
(308,153,cs),
(380,153,o),
(411,204,o),
(411,262,cs),
(411,319,o),
(381,376,o),
(306,376,cs)
);
}
);
width = 635;
}
);
},
{
glyphname = y;
layers = (
{
layerId = "690A5C2F-BA8A-4547-B0C9-560CF3D7C21C";
shapes = (
{
closed = 1;
nodes = (
(372,3,o),
(314,-8,o),
(265,-8,cs),
(114,-8,o),
(54,99,o),
(54,239,cs),
(54,527,l),
(230,527,l),
(230,271,ls),
(230,223,o),
(238,152,o),
(321,152,cs),
(405,152,o),
(405,225,o),
(405,278,cs),
(405,527,l),
(582,527,l),
(582,126,ls),
(582,-92,o),
(529,-248,o),
(281,-248,cs),
(200,-248,o),
(120,-229,o),
(47,-182,c),
(101,-39,l),
(137,-66,o),
(188,-83,o),
(256,-83,cs),
(357,-83,o),
(408,-45,o),
(407,42,c)
);
}
);
width = 629;
}
);
unicode = 121;
},
{
glyphname = a_alt;
layers = (
{
layerId = "690A5C2F-BA8A-4547-B0C9-560CF3D7C21C";
shapes = (
{
closed = 1;
nodes = (
(204,143,o),
(226,131,o),
(260,131,cs),
(317,131,o),
(360,171,o),
(363,227,c),
(331,224,o),
(296,222,o),
(264,216,cs),
(232,210,o),
(204,197,o),
(204,168,cs)
);
},
{
closed = 1;
nodes = (
(367,63,l),
(320,-2,o),
(250,-8,o),
(216,-8,cs),
(112,-8,o),
(29,48,o),
(29,155,cs),
(29,273,o),
(129,307,o),
(237,324,cs),
(272,330,o),
(315,333,o),
(363,336,c),
(360,372,o),
(331,390,o),
(288,390,cs),
(251,390,o),
(226,377,o),
(215,350,c),
(38,350,l),
(57,491,o),
(168,537,o),
(293,537,cs),
(455,537,o),
(530,460,o),
(530,283,cs),
(530,0,l),
(367,0,l)
);
}
);
width = 576;
}
);
leftKerningGroup = _kern27;
rightKerningGroup = _kern27;
},
{
glyphname = uni0490;
layers = (
{
layerId = "690A5C2F-BA8A-4547-B0C9-560CF3D7C21C";
shapes = (
{
closed = 1;
nodes = (
(67,0,l),
(67,708,l),
(398,708,l),
(398,883,l),
(579,883,l),
(579,540,l),
(248,540,l),
(248,0,l)
);
}
);
width = 591;
}
);
leftKerningGroup = _kern23;
rightKerningGroup = _kern23;
unicode = 1168;
},
{
glyphname = uni0491;
layers = (
{
layerId = "690A5C2F-BA8A-4547-B0C9-560CF3D7C21C";
shapes = (
{
closed = 1;
nodes = (
(459,676,l),
(459,369,l),
(224,369,l),
(224,0,l),
(47,0,l),
(47,527,l),
(286,527,l),
(286,676,l)
);
}
);
width = 467;
}
);
leftKerningGroup = _kern24;
rightKerningGroup = _kern24;
unicode = 1169;
},
{
glyphname = uni0404;
layers = (
{
layerId = "690A5C2F-BA8A-4547-B0C9-560CF3D7C21C";
shapes = (
{
closed = 1;
nodes = (
(464,434,l),
(464,275,l),
(218,275,l),
(221,197,o),
(298,163,o),
(378,163,cs),
(441,163,o),
(501,184,o),
(523,257,c),
(696,257,l),
(677,84,o),
(540,-8,o),
(366,-8,cs),
(144,-8,o),
(28,141,o),
(28,355,cs),
(28,575,o),
(152,717,o),
(374,717,cs),
(550,717,o),
(671,628,o),
(692,452,c),
(517,452,l),
(499,526,o),
(435,549,o),
(370,549,cs),
(290,549,o),
(227,515,o),
(219,434,c)
);
}
);
width = 724;
}
);
unicode = 1028;
},
{
glyphname = uni0454;
layers = (
{
layerId = "690A5C2F-BA8A-4547-B0C9-560CF3D7C21C";
shapes = (
{
closed = 1;
nodes = (
(319,136,o),
(352,142,o),
(369,174,c),
(540,174,l),
(511,51,o),
(416,-11,o),
(286,-11,cs),
(121,-11,o),
(23,88,o),
(23,257,cs),
(23,429,o),
(125,535,o),
(286,535,cs),
(417,535,o),
(516,465,o),
(540,342,c),
(366,342,l),
(351,375,o),
(315,386,o),
(283,386,cs),
(240,386,o),
(200,367,o),
(197,330,c),
(356,330,l),
(356,191,l),
(195,191,l),
(198,151,o),
(250,136,o),
(292,136,cs)
);
}
);
width = 560;
}
);
unicode = 1108;
},
{
glyphname = uni0406;
layers = (
{
layerId = "690A5C2F-BA8A-4547-B0C9-560CF3D7C21C";
shapes = (
{
closed = 1;
nodes = (
(248,0,l),
(67,0,l),
(67,708,l),
(248,708,l)
);
}
);
width = 315;
}
);
unicode = 1030;
},
{
glyphname = uni0456;
layers = (
{
layerId = "690A5C2F-BA8A-4547-B0C9-560CF3D7C21C";
shapes = (
{
closed = 1;
nodes = (
(235,0,l),
(59,0,l),
(59,527,l),
(235,527,l)
);
},
{
closed = 1;
nodes = (
(204,777,o),
(253,737,o),
(253,670,cs),
(253,603,o),
(203,567,o),
(146,567,cs),
(91,567,o),
(39,601,o),
(39,668,cs),
(39,737,o),
(95,777,o),
(149,777,cs)
);
}
);
width = 292;
}
);
unicode = 1110;
},
{
glyphname = uni0407;
layers = (
{
layerId = "690A5C2F-BA8A-4547-B0C9-560CF3D7C21C";
shapes = (
{
closed = 1;
nodes = (
(252,0,l),
(71,0,l),
(71,708,l),
(252,708,l)
);
},
{
closed = 1;
nodes = (
(111,931,o),
(149,894,o),
(149,840,cs),
(149,786,o),
(112,751,o),
(57,751,cs),
(3,751,o),
(-33,785,o),
(-33,838,cs),
(-33,893,o),
(7,931,o),
(59,931,cs)
);
},
{
closed = 1;
nodes = (
(318,931,o),
(357,894,o),
(357,839,cs),
(357,786,o),
(321,751,o),
(266,751,cs),
(211,751,o),
(174,785,o),
(174,838,cs),
(174,893,o),
(215,931,o),
(266,931,cs)
);
}
);
width = 324;
}
);
unicode = 1031;
},
{
glyphname = uni0457;
layers = (
{
layerId = "690A5C2F-BA8A-4547-B0C9-560CF3D7C21C";
shapes = (
{
closed = 1;
nodes = (
(250,0,l),
(74,0,l),
(74,527,l),
(250,527,l)
);
},
{
closed = 1;
nodes = (
(111,761,o),
(149,723,o),
(149,666,cs),
(149,611,o),
(113,576,o),
(60,576,cs),
(7,576,o),
(-30,611,o),
(-30,666,cs),
(-30,721,o),
(8,761,o),
(60,761,cs)
);
},
{
closed = 1;
nodes = (
(316,761,o),
(354,723,o),
(354,667,cs),
(354,611,o),
(318,576,o),
(264,576,cs),
(211,576,o),
(174,611,o),
(174,665,cs),
(174,721,o),
(213,761,o),
(265,761,cs)
);
}
);
width = 323;
}
);
unicode = 1111;
},
{
glyphname = map;
layers = (
{
layerId = "690A5C2F-BA8A-4547-B0C9-560CF3D7C21C";
shapes = (
{
closed = 1;
nodes = (
(49,684,ls),
(50,685,o),
(52,686,o),
(53,686,c),
(92,686,ls),
(94,686,o),
(95,686,o),
(96,687,cs),
(115,706,ls),
(116,707,o),
(118,708,o),
(119,708,c),
(215,708,l),
(216,708,o),
(218,707,o),
(219,706,cs),
(265,660,ls),
(266,659,o),
(267,659,o),
(268,659,c),
(301,659,ls),
(304,659,o),
(306,657,o),
(306,654,cs),
(306,629,ls),
(306,626,o),
(308,624,o),
(312,624,cs),
(318,624,ls),
(320,624,o),
(321,624,o),
(322,625,c),
(338,642,l),
(339,643,o),
(340,643,o),
(342,643,cs),
(374,643,ls),
(377,643,o),
(379,641,o),
(379,638,cs),
(379,612,l),
(379,611,o),
(380,609,o),
(381,608,cs),
(401,588,l),
(403,585,o),
(405,585,o),
(408,588,cs),
(418,598,ls),
(419,599,o),
(420,599,o),
(422,599,cs),
(428,599,ls),
(432,599,o),
(434,597,o),
(434,594,cs),
(434,515,l),
(434,514,o),
(433,512,o),
(432,511,cs),
(426,505,ls),
(423,502,o),
(423,500,o),
(426,497,cs),
(485,438,ls),
(486,437,o),
(487,437,o),
(488,437,c),
(500,437,ls),
(503,437,o),
(505,435,o),
(505,432,cs),
(505,421,o),
(505,409,o),
(505,398,cs),
(505,386,o),
(505,373,o),
(505,361,c),
(505,360,o),
(506,358,o),
(507,357,cs),
(529,335,ls),
(530,334,o),
(532,333,o),
(533,333,c),
(545,333,ls),
(547,333,o),
(548,333,o),
(549,332,c),
(565,315,l),
(566,314,o),
(567,312,o),
(567,311,c),
(567,274,l),
(567,273,o),
(566,271,o),
(565,270,c),
(559,265,ls),
(556,262,o),
(556,260,o),
(559,257,cs),
(580,237,ls),
(581,236,o),
(581,235,o),
(581,233,cs),
(581,230,o),
(579,228,o),
(576,228,cs),
(570,228,o),
(563,228,o),
(557,228,cs),
(552,228,o),
(548,228,o),
(543,228,c),
(542,228,o),
(541,228,o),
(540,229,cs),
(531,238,l),
(529,241,o),
(527,241,o),
(524,238,cs),
(513,227,ls),
(510,224,o),
(508,224,o),
(505,227,cs),
(490,242,ls),
(487,245,o),
(485,245,o),
(482,242,cs),
(455,215,ls),
(454,214,o),
(453,213,o),
(452,213,c),
(443,213,ls),
(440,213,o),
(438,215,o),
(438,219,cs),
(438,253,ls),
(438,258,o),
(432,260,o),
(429,257,cs),
(407,235,ls),
(406,234,o),
(406,233,o),
(406,232,c),
(406,205,ls),
(406,203,o),
(406,202,o),
(407,201,cs),
(417,191,l),
(420,189,o),
(420,187,o),
(417,184,cs),
(397,164,ls),
(396,163,o),
(396,162,o),
(396,160,cs),
(396,135,l),
(396,134,o),
(395,132,o),
(394,131,cs),
(372,109,ls),
(371,108,o),
(371,107,o),
(371,106,c),
(371,94,l),
(371,93,o),
(370,91,o),
(369,90,cs),
(357,78,ls),
(356,77,o),
(355,76,o),
(354,76,c),
(345,76,l),
(344,76,o),
(343,76,o),
(342,75,cs),
(332,65,ls),
(331,64,o),
(330,62,o),
(330,61,c),
(330,23,ls),
(330,19,o),
(328,17,o),
(325,17,cs),
(305,17,ls),
(303,17,o),
(302,17,o),
(301,16,c),
(287,1,l),
(286,0,o),
(286,0,o),
(283,0,cs),
(280,0,ls),
(277,0,o),
(275,2,o),
(275,5,cs),
(275,28,l),
(275,29,o),
(274,31,o),
(273,32,cs),
(264,41,l),
(261,43,o),
(261,45,o),
(264,48,cs),
(276,60,ls),
(279,63,o),
(279,65,o),
(276,68,cs),
(264,80,ls),
(263,81,o),
(263,82,o),
(263,84,cs),
(263,169,ls),
(263,171,o),
(263,172,o),
(264,173,c),
(278,186,l),
(279,187,o),
(279,188,o),
(279,190,cs),
(279,309,ls),
(279,311,o),
(279,312,o),
(278,313,c),
(265,325,l),
(264,326,o),
(264,327,o),
(264,329,cs),
(264,352,l),
(264,353,o),
(263,354,o),
(262,355,cs),
(216,402,ls),
(215,403,o),
(214,405,o),
(214,406,c),
(214,427,ls),
(214,429,o),
(214,430,o),
(213,431,cs),
(167,477,ls),
(166,478,o),
(165,479,o),
(165,480,c),
(165,506,ls),
(165,508,o),
(165,509,o),
(164,510,cs),
(133,540,ls),
(132,541,o),
(132,542,o),
(132,544,cs),
(132,573,l),
(132,574,o),
(131,576,o),
(130,577,cs),
(109,598,ls),
(108,599,o),
(107,601,o),
(107,602,c),
(107,628,ls),
(107,630,o),
(107,631,o),
(106,632,cs),
(83,655,ls),
(82,656,o),
(80,657,o),
(79,657,c),
(37,657,ls),
(34,657,o),
(32,659,o),
(32,662,cs),
(32,664,ls),
(32,666,o),
(32,667,o),
(33,668,cs)
);
}
);
width = 653;
}
);
},
{
glyphname = logo;
layers = (
{
layerId = "690A5C2F-BA8A-4547-B0C9-560CF3D7C21C";
shapes = (
{
closed = 1;
nodes = (
(780,499,o),
(776,495,o),
(769,493,c),
(769,482,o),
(760,474,o),
(749,474,c),
(747,464,o),
(741,459,o),
(731,459,cs),
(725,459,o),
(721,461,o),
(716,464,c),
(704,477,ls),
(700,481,o),
(698,486,o),
(698,491,cs),
(698,517,l),
(673,537,l),
(555,537,l),
(529,511,l),
(529,475,l),
(673,475,ls),
(679,475,o),
(684,473,o),
(687,470,cs),
(712,444,ls),
(716,440,o),
(718,435,o),
(718,430,cs),
(718,419,o),
(710,411,o),
(699,411,cs),
(661,411,ls),
(656,411,o),
(651,413,o),
(647,417,cs),
(627,436,l),
(518,436,l),
(424,342,l),
(421,342,o),
(416,335,o),
(409,335,cs),
(401,335,o),
(396,342,o),
(393,342,c),
(300,436,l),
(190,436,l),
(170,417,l),
(167,413,o),
(162,411,o),
(156,411,cs),
(119,411,ls),
(108,411,o),
(98,419,o),
(98,430,cs),
(98,435,o),
(100,439,o),
(105,444,cs),
(130,470,l),
(135,473,o),
(139,475,o),
(144,475,cs),
(288,475,l),
(288,511,l),
(262,537,l),
(144,537,l),
(119,517,l),
(119,491,ls),
(119,486,o),
(117,481,o),
(113,477,cs),
(101,464,l),
(96,461,o),
(92,459,o),
(86,459,cs),
(76,459,o),
(69,464,o),
(68,474,c),
(57,474,o),
(49,482,o),
(49,493,c),
(40,496,o),
(32,501,o),
(32,512,cs),
(32,517,o),
(34,521,o),
(39,526,cs),
(51,539,ls),
(55,543,o),
(60,545,o),
(65,545,cs),
(92,545,l),
(92,545,o),
(93,546,o),
(94,547,c),
(125,572,ls),
(128,575,o),
(132,576,o),
(137,576,cs),
(176,576,l),
(179,585,o),
(185,589,o),
(194,589,cs),
(199,589,o),
(204,587,o),
(208,583,cs),
(215,576,l),
(270,576,ls),
(275,576,o),
(279,574,o),
(284,571,c),
(288,566,l),
(288,586,l),
(262,613,l),
(127,613,l),
(107,593,l),
(102,590,o),
(98,588,o),
(93,588,cs),
(81,588,ls),
(76,588,o),
(72,590,o),
(67,593,c),
(54,606,l),
(51,611,o),
(49,615,o),
(49,620,cs),
(49,625,o),
(50,629,o),
(53,632,c),
(50,635,o),
(49,640,o),
(49,645,cs),
(49,650,o),
(51,654,o),
(54,659,c),
(67,671,ls),
(71,675,o),
(76,677,o),
(81,677,cs),
(93,677,ls),
(98,677,o),
(103,675,o),
(107,671,cs),
(127,652,l),
(162,652,l),
(162,680,l),
(146,680,o),
(137,706,o),
(137,721,cs),
(137,758,ls),
(137,769,o),
(145,778,o),
(156,778,cs),
(207,778,ls),
(218,778,o),
(226,769,o),
(226,758,cs),
(226,721,ls),
(226,706,o),
(217,680,o),
(201,680,c),
(201,652,l),
(226,652,l),
(225,653,o),
(225,655,o),
(225,655,cs),
(225,668,o),
(233,677,o),
(245,677,cs),
(250,677,o),
(255,675,o),
(259,671,cs),
(295,635,l),
(298,638,o),
(303,639,o),
(308,639,cs),
(319,639,o),
(327,631,o),
(327,620,cs),
(327,464,l),
(389,402,l),
(389,473,l),
(357,505,ls),
(353,509,o),
(351,514,o),
(351,519,cs),
(351,530,o),
(360,538,o),
(371,538,cs),
(376,538,o),
(380,536,o),
(385,533,c),
(389,528,l),
(389,612,l),
(294,707,l),
(290,710,o),
(288,714,o),
(288,721,cs),
(288,739,l),
(282,739,ls),
(271,739,o),
(263,747,o),
(263,758,cs),
(263,769,o),
(271,778,o),
(282,778,cs),
(288,778,l),
(288,784,ls),
(288,795,o),
(297,803,o),
(308,803,cs),
(319,803,o),
(327,795,o),
(327,784,cs),
(327,778,l),
(333,778,ls),
(344,778,o),
(352,769,o),
(352,758,cs),
(352,747,o),
(344,739,o),
(333,739,cs),
(327,739,l),
(327,729,l),
(389,667,l),
(389,787,l),
(388,788,o),
(387,789,o),
(387,790,c),
(332,845,ls),
(328,849,o),
(326,854,o),
(326,859,cs),
(326,864,o),
(328,869,o),
(332,873,cs),
(344,886,ls),
(347,889,o),
(348,889,o),
(351,890,c),
(351,910,ls),
(351,915,o),
(353,920,o),
(357,924,cs),
(370,936,l),
(373,940,o),
(377,942,o),
(383,942,cs),
(387,942,o),
(391,941,o),
(394,939,c),
(398,943,o),
(403,945,o),
(409,945,cs),
(414,945,o),
(419,943,o),
(423,939,c),
(426,941,o),
(429,942,o),
(434,942,cs),
(439,942,o),
(444,940,o),
(448,936,cs),
(460,924,ls),
(464,920,o),
(466,915,o),
(466,910,cs),
(466,890,l),
(469,889,o),
(471,887,o),
(473,886,c),
(485,873,ls),
(489,869,o),
(491,864,o),
(491,859,cs),
(491,854,o),
(489,849,o),
(485,845,cs),
(430,790,l),
(430,789,o),
(429,788,o),
(428,787,c),
(428,667,l),
(490,729,l),
(490,739,l),
(484,739,ls),
(473,739,o),
(465,747,o),
(465,758,cs),
(465,769,o),
(473,778,o),
(484,778,cs),
(490,778,l),
(490,784,ls),
(490,795,o),
(498,803,o),
(509,803,cs),
(520,803,o),
(529,795,o),
(529,784,cs),
(529,778,l),
(535,778,ls),
(546,778,o),
(554,769,o),
(554,758,cs),
(554,747,o),
(546,739,o),
(535,739,cs),
(529,739,l),
(529,721,ls),
(529,714,o),
(527,710,o),
(523,707,c),
(428,612,l),
(428,528,l),
(433,533,ls),
(436,536,o),
(441,538,o),
(447,538,cs),
(461,538,o),
(466,528,o),
(466,519,cs),
(466,514,o),
(464,509,o),
(460,505,cs),
(428,473,l),
(428,402,l),
(490,464,l),
(490,620,ls),
(490,631,o),
(498,639,o),
(509,639,cs),
(514,639,o),
(519,638,o),
(522,635,c),
(559,671,l),
(562,675,o),
(566,677,o),
(573,677,cs),
(590,677,o),
(591,664,o),
(591,652,c),
(616,652,l),
(616,680,l),
(600,680,o),
(591,706,o),
(591,721,cs),
(591,758,ls),
(591,769,o),
(599,778,o),
(610,778,cs),
(661,778,ls),
(672,778,o),
(680,769,o),
(680,758,cs),
(680,721,ls),
(680,706,o),
(671,680,o),
(655,680,c),
(655,652,l),
(691,652,l),
(710,671,ls),
(714,675,o),
(719,677,o),
(724,677,cs),
(736,677,ls),
(741,677,o),
(746,675,o),
(750,671,cs),
(763,659,ls),
(767,655,o),
(769,650,o),
(769,645,cs),
(769,641,o),
(767,637,o),
(764,632,c),
(767,629,o),
(769,625,o),
(769,620,cs),
(769,615,o),
(767,610,o),
(763,606,cs),
(750,593,l),
(745,590,o),
(741,588,o),
(736,588,cs),
(724,588,ls),
(719,588,o),
(715,590,o),
(710,593,c),
(691,613,l),
(555,613,l),
(529,586,l),
(529,566,l),
(533,571,l),
(538,574,o),
(542,576,o),
(547,576,cs),
(602,576,l),
(609,583,ls),
(613,587,o),
(618,589,o),
(623,589,cs),
(632,589,o),
(638,585,o),
(641,576,c),
(680,576,ls),
(685,576,o),
(689,575,o),
(692,572,cs),
(723,547,l),
(724,546,o),
(725,546,o),
(726,545,c),
(752,545,ls),
(757,545,o),
(762,543,o),
(766,539,cs),
(778,526,ls),
(782,522,o),
(784,517,o),
(784,512,cs),
(784,509,o),
(784,506,o),
(783,505,c)
);
},
{
closed = 1;
nodes = (
(260,13,ls),
(260,4,o),
(256,0,o),
(248,0,cs),
(187,0,ls),
(179,0,o),
(175,4,o),
(175,13,cs),
(175,362,ls),
(175,371,o),
(179,375,o),
(187,375,cs),
(248,375,ls),
(256,375,o),
(263,372,o),
(269,366,cs),
(401,234,ls),
(402,233,o),
(404,232,o),
(407,232,cs),
(410,232,o),
(413,233,o),
(414,234,cs),
(546,366,ls),
(552,372,o),
(559,375,o),
(567,375,cs),
(628,375,ls),
(636,375,o),
(640,371,o),
(640,362,cs),
(640,13,ls),
(640,4,o),
(636,0,o),
(628,0,cs),
(567,0,ls),
(558,0,o),
(554,4,o),
(554,13,cs),
(554,232,ls),
(554,234,o),
(553,235,o),
(550,235,c),
(549,235,o),
(549,235,o),
(548,234,cs),
(430,116,l),
(423,110,o),
(415,107,o),
(408,107,c),
(407,107,l),
(400,107,o),
(392,110,o),
(385,116,c),
(267,234,ls),
(266,235,o),
(265,235,o),
(264,235,c),
(261,235,o),
(260,234,o),
(260,232,cs)
);
},
{
closed = 1;
nodes = (
(1002,381,o),
(1086,308,o),
(1086,191,cs),
(1086,75,o),
(1002,-6,o),
(885,-6,cs),
(772,-6,o),
(688,68,o),
(688,183,cs),
(688,296,o),
(768,381,o),
(889,381,cs)
);
},
{
closed = 1;
nodes = (
(958,74,o),
(995,125,o),
(995,186,cs),
(995,256,o),
(948,301,o),
(886,301,cs),
(825,301,o),
(779,256,o),
(779,191,cs),
(779,123,o),
(827,74,o),
(892,74,cs)
);
},
{
closed = 1;
nodes = (
(1130,366,ls),
(1130,372,o),
(1133,375,o),
(1139,375,cs),
(1206,375,ls),
(1212,375,o),
(1215,372,o),
(1215,366,cs),
(1215,85,ls),
(1215,82,o),
(1217,81,o),
(1220,81,cs),
(1359,81,ls),
(1365,81,o),
(1368,78,o),
(1368,72,cs),
(1368,9,ls),
(1368,3,o),
(1365,0,o),
(1359,0,cs),
(1139,0,ls),
(1133,0,o),
(1130,3,o),
(1130,9,cs)
);
},
{
closed = 1;
nodes = (
(1416,366,ls),
(1416,372,o),
(1419,375,o),
(1425,375,cs),
(1446,375,o),
(1511,376,o),
(1528,376,cs),
(1684,376,o),
(1744,290,o),
(1744,193,cs),
(1744,86,o),
(1671,-1,o),
(1526,-1,cs),
(1510,-1,o),
(1461,0,o),
(1425,0,cs),
(1419,0,o),
(1416,3,o),
(1416,9,cs)
);
},
{
closed = 1;
nodes = (
(1503,295,o),
(1501,293,o),
(1501,290,cs),
(1501,85,ls),
(1501,77,o),
(1521,80,o),
(1540,80,cs),
(1607,80,o),
(1653,119,o),
(1653,188,cs),
(1653,260,o),
(1602,296,o),
(1533,296,cs),
(1525,296,o),
(1515,296,o),
(1506,295,c)
);
},
{
closed = 1;
nodes = (
(2101,381,o),
(2185,308,o),
(2185,191,cs),
(2185,75,o),
(2101,-6,o),
(1984,-6,cs),
(1871,-6,o),
(1787,68,o),
(1787,183,cs),
(1787,296,o),
(1867,381,o),
(1988,381,cs)
);
},
{
closed = 1;
nodes = (
(2057,74,o),
(2094,125,o),
(2094,186,cs),
(2094,256,o),
(2047,301,o),
(1985,301,cs),
(1924,301,o),
(1878,256,o),
(1878,191,cs),
(1878,123,o),
(1926,74,o),
(1991,74,cs)
);
},
{
closed = 1;
nodes = (
(2403,9,l),
(2400,3,o),
(2396,0,o),
(2390,0,cs),
(2341,0,ls),
(2336,0,o),
(2332,3,o),
(2329,9,cs),
(2183,366,l),
(2182,367,o),
(2182,368,o),
(2182,369,c),
(2182,373,o),
(2184,375,o),
(2188,375,cs),
(2264,375,ls),
(2269,375,o),
(2273,372,o),
(2276,366,c),
(2367,132,l),
(2367,131,o),
(2368,130,o),
(2369,130,c),
(2370,131,o),
(2370,131,o),
(2370,132,c),
(2457,366,l),
(2460,372,o),
(2464,375,o),
(2470,375,cs),
(2540,375,ls),
(2544,375,o),
(2546,373,o),
(2546,369,c),
(2546,368,o),
(2545,367,o),
(2545,366,c)
);
},
{
closed = 1;
nodes = (
(2616,367,l),
(2619,372,o),
(2623,375,o),
(2628,375,cs),
(2684,375,ls),
(2689,375,o),
(2693,372,o),
(2696,367,c),
(2837,9,l),
(2837,8,o),
(2838,7,o),
(2838,6,c),
(2838,2,o),
(2836,0,o),
(2832,0,cs),
(2762,0,ls),
(2756,0,o),
(2752,3,o),
(2751,9,c),
(2726,75,ls),
(2725,78,o),
(2723,79,o),
(2720,79,cs),
(2587,79,ls),
(2584,79,o),
(2582,78,o),
(2581,75,cs),
(2557,9,l),
(2554,3,o),
(2550,0,o),
(2545,0,cs),
(2480,0,ls),
(2476,0,o),
(2474,2,o),
(2474,6,c),
(2474,7,o),
(2474,8,o),
(2475,9,c)
);
},
{
closed = 1;
nodes = (
(2615,163,l),
(2615,162,l),
(2615,160,o),
(2616,159,o),
(2618,159,cs),
(2689,159,ls),
(2691,159,o),
(2692,160,o),
(2692,162,c),
(2692,163,l),
(2654,262,l),
(2653,261,o),
(2652,261,o),
(2652,261,c)
);
}
);
width = 2910;
}
);
},
{
glyphname = a00E2.alt;
layers = (
{
layerId = "690A5C2F-BA8A-4547-B0C9-560CF3D7C21C";
shapes = (
{
closed = 1;
nodes = (
(204,143,o),
(229,130,o),
(261,131,cs),
(317,132,o),
(360,171,o),
(363,227,c),
(331,224,o),
(297,222,o),
(265,216,cs),
(233,210,o),
(204,198,o),
(204,170,cs)
);
},
{
closed = 1;
nodes = (
(367,63,l),
(320,-2,o),
(250,-8,o),
(216,-8,cs),
(112,-8,o),
(29,48,o),
(29,155,cs),
(29,273,o),
(129,307,o),
(237,324,cs),
(272,330,o),
(315,334,o),
(363,336,c),
(360,372,o),
(331,390,o),
(288,390,cs),
(251,390,o),
(226,377,o),
(215,350,c),
(38,350,l),
(57,491,o),
(168,537,o),
(293,537,cs),
(455,537,o),
(530,460,o),
(530,283,cs),
(530,0,l),
(367,0,l)
);
},
{
closed = 1;
nodes = (
(348,769,l),
(517,577,l),
(351,577,l),
(290,661,l),
(232,577,l),
(66,577,l),
(232,769,l)
);
}
);
width = 576;
}
);
leftKerningGroup = _kern27;
rightKerningGroup = _kern27;
},
{
glyphname = a0103.alt;
layers = (
{
layerId = "690A5C2F-BA8A-4547-B0C9-560CF3D7C21C";
shapes = (
{
closed = 1;
nodes = (
(176,560,o),
(95,614,o),
(90,741,c),
(233,741,l),
(234,702,o),
(264,682,o),
(297,682,cs),
(331,682,o),
(356,702,o),
(357,741,c),
(500,741,l),
(495,615,o),
(412,560,o),
(293,560,cs)
);
},
{
closed = 1;
nodes = (
(204,143,o),
(229,130,o),
(261,131,cs),
(317,132,o),
(360,171,o),
(363,227,c),
(331,224,o),
(297,222,o),
(265,215,c),
(233,210,o),
(204,198,o),
(204,170,cs)
);
},
{
closed = 1;
nodes = (
(367,63,l),
(320,-2,o),
(250,-8,o),
(216,-8,cs),
(112,-8,o),
(29,48,o),
(29,155,cs),
(29,273,o),
(129,307,o),
(237,324,cs),
(272,330,o),
(315,335,o),
(363,336,c),
(360,372,o),
(331,390,o),
(288,390,cs),
(251,390,o),
(226,377,o),
(215,350,c),
(38,350,l),
(57,491,o),
(168,537,o),
(293,537,cs),
(455,537,o),
(530,460,o),
(530,283,cs),
(530,0,l),
(367,0,l)
);
}
);
width = 576;
}
);
leftKerningGroup = _kern27;
rightKerningGroup = _kern27;
},
{
glyphname = a00E4.alt;
layers = (
{
layerId = "690A5C2F-BA8A-4547-B0C9-560CF3D7C21C";
shapes = (
{
closed = 1;
nodes = (
(217,766,o),
(263,732,o),
(263,671,cs),
(263,611,o),
(219,579,o),
(168,579,cs),
(117,579,o),
(73,611,o),
(73,671,cs),
(73,731,o),
(118,766,o),
(168,766,cs)
);
},
{
closed = 1;
nodes = (
(472,766,o),
(516,732,o),
(516,672,cs),
(516,611,o),
(474,579,o),
(423,579,cs),
(373,579,o),
(326,611,o),
(326,671,cs),
(326,731,o),
(373,766,o),
(423,766,cs)
);
},
{
closed = 1;
nodes = (
(204,143,o),
(229,130,o),
(261,131,cs),
(317,132,o),
(360,171,o),
(363,227,c),
(331,224,o),
(297,222,o),
(265,215,c),
(233,210,o),
(204,198,o),
(204,170,cs)
);
},
{
closed = 1;
nodes = (
(367,63,l),
(320,-2,o),
(250,-8,o),
(216,-8,cs),
(112,-8,o),
(29,48,o),
(29,155,cs),
(29,273,o),
(129,307,o),
(237,324,cs),
(272,330,o),
(315,335,o),
(363,336,c),
(360,372,o),
(331,390,o),
(288,390,cs),
(251,390,o),
(226,377,o),
(215,350,c),
(38,350,l),
(57,491,o),
(168,537,o),
(293,537,cs),
(455,537,o),
(530,460,o),
(530,283,cs),
(530,0,l),
(367,0,l)
);
}
);
width = 576;
}
);
leftKerningGroup = _kern27;
rightKerningGroup = _kern27;
},
{
glyphname = a2_alt;
layers = (
{
layerId = "690A5C2F-BA8A-4547-B0C9-560CF3D7C21C";
shapes = (
{
closed = 1;
nodes = (
(236,376,o),
(203,319,o),
(203,266,cs),
(203,213,o),
(235,153,o),
(311,153,cs),
(382,153,o),
(415,204,o),
(415,262,cs),
(415,323,o),
(379,376,o),
(309,376,cs)
);
},
{
closed = 1;
nodes = (
(429,527,l),
(592,527,l),
(592,0,l),
(424,0,l),
(418,40,l),
(371,3,o),
(315,-8,o),
(267,-8,cs),
(109,-8,o),
(27,111,o),
(27,260,cs),
(27,427,o),
(131,537,o),
(282,538,cs),
(338,538,o),
(389,520,o),
(420,487,c)
);
}
);
width = 639;
}
);
leftKerningGroup = _kern9;
},
{
glyphname = t0163.alt;
layers = (
{
layerId = "690A5C2F-BA8A-4547-B0C9-560CF3D7C21C";
shapes = (
{
closed = 1;
nodes = (
(362,160,o),
(383,172,o),
(396,183,c),
(444,44,l),
(398,6,o),
(344,-1,o),
(288,-7,c),
(283,-31,l),
(333,-34,o),
(385,-59,o),
(385,-140,cs),
(385,-239,o),
(299,-284,o),
(217,-284,cs),
(178,-284,o),
(158,-280,o),
(138,-275,c),
(138,-172,l),
(215,-188,o),
(253,-175,o),
(253,-144,cs),
(253,-96,o),
(160,-110,o),
(140,-119,c),
(178,13,l),
(109,46,o),
(83,114,o),
(83,188,cs),
(83,369,l),
(9,369,l),
(9,527,l),
(83,527,l),
(83,659,l),
(260,659,l),
(260,527,l),
(418,527,l),
(418,369,l),
(260,369,l),
(260,229,ls),
(260,185,o),
(282,160,o),
(329,160,cs)
);
}
);
width = 441;
}
);
},
{
glyphname = t021b.alt;
layers = (
{
layerId = "690A5C2F-BA8A-4547-B0C9-560CF3D7C21C";
shapes = (
{
closed = 1;
nodes = (
(160,-243,l),
(184,-234,o),
(233,-199,o),
(241,-178,c),
(206,-177,o),
(172,-152,o),
(172,-109,cs),
(172,-58,o),
(211,-33,o),
(254,-33,cs),
(310,-33,o),
(341,-77,o),
(341,-137,cs),
(341,-219,o),
(278,-274,o),
(199,-301,c)
);
},
{
closed = 1;
nodes = (
(362,160,o),
(383,172,o),
(396,183,c),
(444,44,l),
(397,5,o),
(323,-7,o),
(274,-7,cs),
(150,-7,o),
(83,69,o),
(83,188,cs),
(83,369,l),
(9,369,l),
(9,527,l),
(83,527,l),
(83,659,l),
(260,659,l),
(260,527,l),
(418,527,l),
(418,369,l),
(260,369,l),
(260,229,ls),
(260,185,o),
(282,160,o),
(329,160,cs)
);
}
);
width = 441;
}
);
},
{
glyphname = logom;
layers = (
{
layerId = "690A5C2F-BA8A-4547-B0C9-560CF3D7C21C";
shapes = (
{
closed = 1;
nodes = (
(783,502,o),
(778,498,o),
(771,496,c),
(771,485,o),
(763,477,o),
(752,477,c),
(751,470,o),
(747,465,o),
(739,463,cs),
(723,458,o),
(712,474,o),
(706,480,cs),
(698,488,o),
(700,493,o),
(700,520,c),
(675,540,l),
(557,540,l),
(530,514,l),
(530,478,l),
(676,478,ls),
(681,478,o),
(686,476,o),
(690,472,cs),
(715,447,ls),
(727,435,o),
(718,413,o),
(701,413,cs),
(647,413,o),
(661,407,o),
(629,439,c),
(519,439,l),
(424,344,l),
(415,333,o),
(402,333,o),
(394,344,c),
(299,439,l),
(189,439,l),
(169,419,ls),
(165,415,o),
(160,413,o),
(155,413,cs),
(117,413,ls),
(100,413,o),
(91,434,o),
(103,447,c),
(128,472,ls),
(132,476,o),
(137,478,o),
(142,478,cs),
(288,478,l),
(288,514,l),
(261,540,l),
(143,540,l),
(118,520,l),
(118,493,o),
(120,488,o),
(111,479,cs),
(108,476,o),
(104,472,o),
(104,472,cs),
(88,456,o),
(69,461,o),
(66,477,c),
(55,477,o),
(47,485,o),
(47,496,c),
(39,498,o),
(34,502,o),
(32,510,cs),
(28,525,o),
(44,536,o),
(50,542,cs),
(58,550,o),
(63,548,o),
(90,548,c),
(124,575,ls),
(127,578,o),
(131,580,o),
(136,580,cs),
(175,580,l),
(180,593,o),
(196,596,o),
(207,587,c),
(214,580,l),
(269,580,ls),
(278,580,o),
(281,576,o),
(288,569,c),
(288,590,l),
(261,616,l),
(125,616,l),
(99,590,o),
(105,591,o),
(79,591,cs),
(68,591,o),
(61,600,o),
(52,609,c),
(45,618,o),
(44,627,o),
(51,636,c),
(37,653,o),
(56,666,o),
(63,673,cs),
(72,683,o),
(81,681,o),
(89,681,cs),
(97,681,o),
(102,679,o),
(106,675,cs),
(125,656,l),
(161,656,l),
(161,684,l),
(145,691,o),
(135,706,o),
(135,725,cs),
(135,763,ls),
(135,774,o),
(144,783,o),
(155,783,cs),
(206,783,ls),
(217,783,o),
(226,774,o),
(226,763,cs),
(226,725,ls),
(226,706,o),
(216,691,o),
(200,684,c),
(200,656,l),
(225,656,l),
(220,675,o),
(244,692,o),
(258,675,c),
(295,639,l),
(296,640,o),
(297,640,o),
(298,641,c),
(301,642,o),
(304,643,o),
(307,643,cs),
(318,643,o),
(327,634,o),
(327,623,cs),
(327,467,l),
(389,404,l),
(389,476,l),
(357,508,ls),
(339,526,o),
(366,555,o),
(385,536,c),
(389,531,l),
(389,615,l),
(294,711,ls),
(286,719,o),
(288,730,o),
(288,743,c),
(282,743,ls),
(255,743,o),
(255,783,o),
(282,783,cs),
(288,783,l),
(288,788,ls),
(288,814,o),
(327,814,o),
(327,788,cs),
(327,783,l),
(333,783,ls),
(359,783,o),
(359,743,o),
(333,743,cs),
(327,743,l),
(327,733,l),
(389,671,l),
(389,792,ls),
(389,795,o),
(339,844,o),
(335,848,cs),
(324,858,o),
(324,871,o),
(333,880,cs),
(337,884,o),
(344,893,o),
(351,896,c),
(351,927,o),
(348,920,o),
(370,942,cs),
(377,950,o),
(385,951,o),
(394,945,c),
(405,954,o),
(419,952,o),
(424,945,c),
(439,955,o),
(451,939,o),
(457,933,cs),
(469,921,o),
(467,909,o),
(467,896,c),
(474,893,o),
(481,884,o),
(485,880,cs),
(494,871,o),
(494,858,o),
(483,848,cs),
(479,844,o),
(429,795,o),
(429,792,cs),
(429,671,l),
(491,733,l),
(491,743,l),
(485,743,ls),
(458,743,o),
(458,783,o),
(485,783,cs),
(491,783,l),
(491,788,ls),
(491,814,o),
(530,814,o),
(530,788,cs),
(530,783,l),
(536,783,ls),
(562,783,o),
(562,743,o),
(536,743,cs),
(530,743,l),
(530,730,o),
(532,719,o),
(525,711,c),
(429,615,l),
(429,531,l),
(434,538,o),
(438,542,o),
(447,542,cs),
(466,542,o),
(473,520,o),
(461,508,cs),
(429,476,l),
(429,404,l),
(491,467,l),
(491,623,ls),
(491,640,o),
(510,650,o),
(523,639,c),
(560,675,l),
(574,692,o),
(598,675,o),
(593,656,c),
(618,656,l),
(618,684,l),
(602,691,o),
(592,706,o),
(592,725,cs),
(592,763,ls),
(592,774,o),
(601,783,o),
(612,783,cs),
(663,783,ls),
(674,783,o),
(683,774,o),
(683,763,cs),
(683,725,ls),
(683,706,o),
(673,691,o),
(657,684,c),
(657,656,l),
(693,656,l),
(719,682,o),
(713,681,o),
(739,681,cs),
(750,681,o),
(757,672,o),
(766,663,c),
(773,654,o),
(774,645,o),
(767,636,c),
(780,620,o),
(762,606,o),
(756,600,cs),
(746,590,o),
(737,591,o),
(730,591,cs),
(721,591,o),
(716,593,o),
(712,597,cs),
(693,616,l),
(557,616,l),
(530,590,l),
(530,569,l),
(537,576,o),
(540,580,o),
(549,580,cs),
(604,580,l),
(611,587,o),
(614,592,o),
(625,592,cs),
(634,592,o),
(640,588,o),
(643,580,c),
(682,580,ls),
(687,580,o),
(691,578,o),
(694,575,cs),
(728,548,l),
(767,548,o),
(759,551,o),
(781,529,cs),
(788,523,o),
(789,516,o),
(786,508,cs)
);
},
{
closed = 1;
nodes = (
(260,13,ls),
(260,4,o),
(256,0,o),
(247,0,cs),
(186,0,ls),
(177,0,o),
(173,4,o),
(173,13,cs),
(173,364,ls),
(173,373,o),
(177,377,o),
(186,377,cs),
(247,377,ls),
(254,377,o),
(262,374,o),
(269,368,c),
(401,235,l),
(406,231,o),
(410,231,o),
(414,235,cs),
(547,368,l),
(554,374,o),
(562,377,o),
(569,377,cs),
(630,377,ls),
(638,377,o),
(642,373,o),
(642,364,cs),
(642,13,ls),
(642,4,o),
(638,0,o),
(630,0,cs),
(569,0,ls),
(560,0,o),
(556,4,o),
(556,13,cs),
(556,233,ls),
(556,236,o),
(552,239,o),
(549,236,cs),
(430,116,l),
(418,105,o),
(398,105,o),
(386,116,c),
(266,236,ls),
(263,239,o),
(260,236,o),
(260,233,cs)
);
}
);
width = 819;
}
);
},
{
glyphname = plusminus;
layers = (
{
layerId = "B2143D7B-CF06-45D2-9FB8-E0BBADB08E6A";
name = img;
width = 593;
},
{
layerId = "690A5C2F-BA8A-4547-B0C9-560CF3D7C21C";
shapes = (
{
closed = 1;
nodes = (
(375,338,l),
(375,209,l),
(218,209,l),
(218,338,l),
(54,338,l),
(54,496,l),
(218,496,l),
(218,663,l),
(375,663,l),
(375,496,l),
(539,496,l),
(539,338,l)
);
},
{
closed = 1;
nodes = (
(54,158,l),
(539,158,l),
(539,0,l),
(54,0,l)
);
}
);
width = 593;
}
);
unicode = 177;
},
{
glyphname = twosuperior;
layers = (
{
layerId = "B2143D7B-CF06-45D2-9FB8-E0BBADB08E6A";
name = img;
width = 389;
},
{
layerId = "690A5C2F-BA8A-4547-B0C9-560CF3D7C21C";
shapes = (
{
closed = 1;
nodes = (
(226,622,o),
(212,632,o),
(191,632,cs),
(166,632,o),
(157,617,o),
(157,594,c),
(50,594,l),
(50,687,o),
(108,741,o),
(198,741,cs),
(281,741,o),
(339,694,o),
(339,616,cs),
(339,541,o),
(284,497,o),
(232,456,c),
(336,456,l),
(336,349,l),
(53,349,l),
(53,437,l),
(169,531,l),
(188,548,o),
(226,573,o),
(226,603,cs)
);
}
);
width = 389;
}
);
unicode = 178;
},
{
glyphname = threesuperior;
layers = (
{
layerId = "B2143D7B-CF06-45D2-9FB8-E0BBADB08E6A";
name = img;
width = 419;
},
{
layerId = "690A5C2F-BA8A-4547-B0C9-560CF3D7C21C";
shapes = (
{
closed = 1;
nodes = (
(357,542,o),
(368,506,o),
(368,469,cs),
(367,384,o),
(288,345,o),
(213,345,cs),
(120,345,o),
(53,395,o),
(50,486,c),
(163,486,l),
(163,462,o),
(184,453,o),
(211,453,cs),
(228,453,o),
(253,457,o),
(253,478,cs),
(253,491,o),
(242,502,o),
(231,502,cs),
(168,502,l),
(168,590,l),
(213,590,ls),
(225,590,o),
(240,597,o),
(240,612,cs),
(240,628,o),
(224,634,o),
(207,634,cs),
(185,634,o),
(172,624,o),
(172,607,c),
(60,607,l),
(65,699,o),
(125,741,o),
(213,741,cs),
(288,741,o),
(355,711,o),
(355,635,cs),
(355,605,o),
(345,575,o),
(321,559,c)
);
}
);
width = 419;
}
);
unicode = 179;
},
{
glyphname = greaterequal;
layers = (
{
layerId = "B2143D7B-CF06-45D2-9FB8-E0BBADB08E6A";
name = img;
width = 532;
},
{
layerId = "690A5C2F-BA8A-4547-B0C9-560CF3D7C21C";
shapes = (
{
closed = 1;
nodes = (
(50,338,l),
(229,404,l),
(50,470,l),
(50,644,l),
(482,461,l),
(482,353,l),
(50,166,l)
);
},
{
closed = 1;
nodes = (
(482,0,l),
(50,0,l),
(50,158,l),
(482,158,l)
);
}
);
width = 532;
}
);
unicode = 8805;
},
{
glyphname = lessequal;
layers = (
{
layerId = "B2143D7B-CF06-45D2-9FB8-E0BBADB08E6A";
name = img;
width = 532;
},
{
layerId = "690A5C2F-BA8A-4547-B0C9-560CF3D7C21C";
shapes = (
{
closed = 1;
nodes = (
(482,472,l),
(303,406,l),
(482,340,l),
(482,166,l),
(50,349,l),
(50,457,l),
(482,644,l)
);
},
{
closed = 1;
nodes = (
(482,0,l),
(50,0,l),
(50,158,l),
(482,158,l)
);
}
);
width = 532;
}
);
unicode = 8804;
},
{
glyphname = approxequal;
layers = (
{
layerId = "B2143D7B-CF06-45D2-9FB8-E0BBADB08E6A";
name = img;
width = 640;
},
{
layerId = "690A5C2F-BA8A-4547-B0C9-560CF3D7C21C";
shapes = (
{
closed = 1;
nodes = (
(446,266,o),
(448,302,o),
(443,326,c),
(586,326,l),
(602,222,o),
(567,104,o),
(424,104,cs),
(336,104,o),
(282,177,o),
(230,177,cs),
(194,177,o),
(191,143,o),
(197,118,c),
(54,118,l),
(38,222,o),
(76,340,o),
(216,340,cs),
(305,340,o),
(359,266,o),
(410,266,cs)
);
},
{
closed = 1;
nodes = (
(446,523,o),
(449,557,o),
(443,582,c),
(586,582,l),
(602,478,o),
(567,360,o),
(424,360,cs),
(336,360,o),
(282,434,o),
(230,434,cs),
(194,434,o),
(192,398,o),
(197,374,c),
(54,374,l),
(38,478,o),
(76,596,o),
(216,596,cs),
(305,596,o),
(359,523,o),
(411,523,cs)
);
}
);
width = 640;
}
);
unicode = 8776;
},
{
glyphname = notequal;
layers = (
{
layerId = "B2143D7B-CF06-45D2-9FB8-E0BBADB08E6A";
name = img;
width = 579;
},
{
layerId = "690A5C2F-BA8A-4547-B0C9-560CF3D7C21C";
shapes = (
{
closed = 1;
nodes = (
(50,393,l),
(50,549,l),
(304,549,l),
(367,685,l),
(529,685,l),
(466,549,l),
(529,549,l),
(529,393,l),
(393,393,l),
(348,295,l),
(529,295,l),
(529,137,l),
(275,137,l),
(212,0,l),
(50,0,l),
(113,137,l),
(50,137,l),
(50,295,l),
(186,295,l),
(232,393,l)
);
}
);
width = 579;
}
);
unicode = 8800;
},
{
glyphname = tab_1;
layers = (
{
layerId = "690A5C2F-BA8A-4547-B0C9-560CF3D7C21C";
shapes = (
{
closed = 1;
nodes = (
(244,163,l),
(244,489,l),
(94,489,l),
(94,630,l),
(165,630,o),
(258,635,o),
(293,708,c),
(425,708,l),
(425,163,l),
(575,163,l),
(575,0,l),
(79,0,l),
(79,163,l)
);
}
);
width = 674;
}
);
},
{
glyphname = I_alt;
layers = (
{
layerId = "690A5C2F-BA8A-4547-B0C9-560CF3D7C21C";
shapes = (
{
closed = 1;
nodes = (
(589,708,l),
(589,540,l),
(402,540,l),
(402,168,l),
(589,168,l),
(589,0,l),
(35,0,l),
(35,168,l),
(221,168,l),
(221,540,l),
(35,540,l),
(35,708,l)
);
}
);
width = 624;
}
);
},
{
glyphname = l_alt;
layers = (
{
layerId = "690A5C2F-BA8A-4547-B0C9-560CF3D7C21C";
shapes = (
{
closed = 1;
nodes = (
(224,207,ls),
(224,172,o),
(233,159,o),
(268,159,cs),
(314,159,l),
(314,0,l),
(259,0,ls),
(120,0,o),
(47,35,o),
(47,184,cs),
(47,708,l),
(224,708,l)
);
}
);
width = 329;
}
);
},
{
glyphname = l2_alt;
layers = (
{
layerId = "690A5C2F-BA8A-4547-B0C9-560CF3D7C21C";
shapes = (
{
closed = 1;
nodes = (
(312,160,o),
(336,167,o),
(357,183,c),
(405,44,l),
(356,3,o),
(305,-7,o),
(242,-7,cs),
(117,-7,o),
(47,60,o),
(47,188,cs),
(47,708,l),
(224,708,l),
(224,229,ls),
(224,186,o),
(241,160,o),
(285,160,cs)
);
}
);
width = 400;
}
);
},
{
glyphname = uniE000;
layers = (
{
layerId = "690A5C2F-BA8A-4547-B0C9-560CF3D7C21C";
shapes = (
{
closed = 1;
nodes = (
(551,717,o),
(629,551,o),
(629,354,cs),
(629,155,o),
(550,-8,o),
(335,-8,cs),
(120,-8,o),
(45,155,o),
(45,351,cs),
(45,554,o),
(126,717,o),
(338,717,cs)
);
},
{
closed = 1;
nodes = (
(445,159,o),
(450,290,o),
(450,354,cs),
(450,415,o),
(448,546,o),
(339,546,cs),
(232,546,o),
(223,418,o),
(223,354,cs),
(223,292,o),
(225,159,o),
(335,159,cs)
);
}
);
width = 674;
}
);
unicode = 57344;
},
{
glyphname = uniE001;
layers = (
{
layerId = "690A5C2F-BA8A-4547-B0C9-560CF3D7C21C";
shapes = (
{
closed = 1;
nodes = (
(429,0,l),
(248,0,l),
(248,487,l),
(113,487,l),
(113,627,l),
(197,627,o),
(256,645,o),
(297,708,c),
(429,708,l)
);
}
);
width = 674;
}
);
unicode = 57345;
},
{
glyphname = uniE002;
layers = (
{
layerId = "690A5C2F-BA8A-4547-B0C9-560CF3D7C21C";
shapes = (
{
closed = 1;
nodes = (
(272,304,ls),
(315,339,o),
(344,364,o),
(356,375,cs),
(390,406,o),
(413,440,o),
(413,473,cs),
(413,513,o),
(389,546,o),
(332,546,c),
(271,545,o),
(246,513,o),
(242,474,c),
(74,474,l),
(79,639,o),
(203,717,o),
(338,717,cs),
(474,717,o),
(591,639,o),
(591,495,cs),
(591,346,o),
(464,250,o),
(351,167,c),
(584,167,l),
(584,0,l),
(79,0,l),
(79,148,l)
);
}
);
width = 674;
}
);
unicode = 57346;
},
{
glyphname = uniE003;
layers = (
{
layerId = "690A5C2F-BA8A-4547-B0C9-560CF3D7C21C";
shapes = (
{
closed = 1;
nodes = (
(62,486,l),
(78,646,o),
(199,717,o),
(341,717,cs),
(463,717,o),
(589,664,o),
(589,519,cs),
(589,463,o),
(557,410,o),
(517,385,c),
(582,358,o),
(615,286,o),
(615,214,cs),
(615,50,o),
(477,-7,o),
(334,-7,cs),
(185,-7,o),
(59,70,o),
(43,240,c),
(219,240,l),
(227,189,o),
(274,162,o),
(340,162,cs),
(399,162,o),
(433,183,o),
(433,225,cs),
(433,259,o),
(410,284,o),
(362,284,cs),
(270,284,l),
(270,435,l),
(335,435,ls),
(388,435,o),
(408,464,o),
(408,493,cs),
(408,526,o),
(384,550,o),
(332,550,cs),
(275,550,o),
(240,521,o),
(236,486,c)
);
}
);
width = 674;
}
);
unicode = 57347;
},
{
glyphname = uniE004;
layers = (
{
layerId = "690A5C2F-BA8A-4547-B0C9-560CF3D7C21C";
shapes = (
{
closed = 1;
nodes = (
(559,287,l),
(637,287,l),
(637,123,l),
(559,123,l),
(559,0,l),
(380,0,l),
(380,123,l),
(37,123,l),
(37,261,l),
(354,708,l),
(559,708,l)
);
},
{
closed = 1;
nodes = (
(240,287,l),
(380,287,l),
(380,498,l)
);
}
);
width = 674;
}
);
unicode = 57348;
},
{
glyphname = uniE005;
layers = (
{
layerId = "690A5C2F-BA8A-4547-B0C9-560CF3D7C21C";
shapes = (
{
closed = 1;
nodes = (
(88,291,l),
(88,708,l),
(582,708,l),
(582,543,l),
(260,543,l),
(260,452,l),
(304,479,o),
(360,483,o),
(399,481,cs),
(538,475,o),
(607,387,o),
(607,256,cs),
(607,83,o),
(487,-7,o),
(331,-7,cs),
(190,-7,o),
(88,67,o),
(69,233,c),
(245,233,l),
(250,204,o),
(278,162,o),
(342,162,cs),
(403,162,o),
(424,204,o),
(424,242,cs),
(424,288,o),
(394,325,o),
(330,325,cs),
(294,325,o),
(263,312,o),
(231,291,c)
);
}
);
width = 674;
}
);
unicode = 57349;
},
{
glyphname = uniE006;
layers = (
{
layerId = "690A5C2F-BA8A-4547-B0C9-560CF3D7C21C";
shapes = (
{
closed = 1;
nodes = (
(433,498,l),
(422,530,o),
(391,553,o),
(343,553,cs),
(251,553,o),
(209,467,o),
(209,392,c),
(259,458,o),
(339,469,o),
(375,469,cs),
(519,469,o),
(600,383,o),
(600,242,cs),
(600,88,o),
(491,-8,o),
(335,-8,cs),
(130,-8,o),
(48,160,o),
(48,347,cs),
(48,543,o),
(143,717,o),
(351,717,cs),
(482,717,o),
(585,649,o),
(598,498,c)
);
},
{
closed = 1;
nodes = (
(420,279,o),
(394,318,o),
(338,318,cs),
(281,318,o),
(248,278,o),
(248,237,cs),
(248,199,o),
(277,157,o),
(337,157,c),
(396,158,o),
(420,198,o),
(420,238,cs)
);
}
);
width = 674;
}
);
unicode = 57350;
},
{
glyphname = uniE007;
layers = (
{
layerId = "690A5C2F-BA8A-4547-B0C9-560CF3D7C21C";
shapes = (
{
closed = 1;
nodes = (
(137,0,l),
(397,540,l),
(83,540,l),
(83,708,l),
(604,708,l),
(604,579,l),
(339,0,l)
);
}
);
width = 674;
}
);
unicode = 57351;
},
{
glyphname = uniE008;
layers = (
{
layerId = "690A5C2F-BA8A-4547-B0C9-560CF3D7C21C";
shapes = (
{
closed = 1;
nodes = (
(199,-8,o),
(60,53,o),
(60,217,cs),
(60,293,o),
(91,349,o),
(148,382,c),
(111,413,o),
(85,458,o),
(85,522,cs),
(85,666,o),
(214,717,o),
(337,717,cs),
(462,717,o),
(588,664,o),
(588,514,cs),
(588,459,o),
(557,409,o),
(522,382,c),
(578,351,o),
(613,298,o),
(613,214,cs),
(614,54,o),
(470,-8,o),
(334,-8,cs)
);
},
{
closed = 1;
nodes = (
(282,562,o),
(260,533,o),
(260,500,cs),
(260,465,o),
(284,432,o),
(337,432,cs),
(392,432,o),
(412,465,o),
(412,496,cs),
(412,532,o),
(385,562,o),
(333,562,cs)
);
},
{
closed = 1;
nodes = (
(432,272,o),
(397,302,o),
(336,302,cs),
(273,302,o),
(239,271,o),
(239,228,cs),
(239,183,o),
(277,154,o),
(335,154,cs),
(393,154,o),
(432,183,o),
(432,228,cs)
);
}
);
width = 674;
}
);
unicode = 57352;
},
{
glyphname = uniE009;
layers = (
{
layerId = "690A5C2F-BA8A-4547-B0C9-560CF3D7C21C";
shapes = (
{
closed = 1;
nodes = (
(242,209,l),
(251,177,o),
(290,158,o),
(335,158,cs),
(431,158,o),
(463,243,o),
(460,307,c),
(412,251,o),
(340,241,o),
(295,241,cs),
(166,241,o),
(72,325,o),
(72,468,cs),
(72,636,o),
(204,717,o),
(345,717,cs),
(552,717,o),
(624,541,o),
(624,355,cs),
(624,161,o),
(545,-8,o),
(333,-8,cs),
(199,-8,o),
(89,60,o),
(73,209,c)
);
},
{
closed = 1;
nodes = (
(250,430,o),
(279,388,o),
(340,388,cs),
(410,388,o),
(429,441,o),
(429,475,cs),
(429,533,o),
(376,553,o),
(336,553,cs),
(279,553,o),
(250,511,o),
(250,471,cs)
);
}
);
width = 674;
}
);
unicode = 57353;
},
{
glyphname = arrowright;
layers = (
{
layerId = "690A5C2F-BA8A-4547-B0C9-560CF3D7C21C";
shapes = (
{
closed = 1;
nodes = (
(367,687,l),
(726,340,l),
(367,-8,l),
(258,115,l),
(430,262,l),
(46,262,l),
(46,416,l),
(430,416,l),
(258,563,l)
);
}
);
width = 773;
}
);
unicode = 8594;
},
{
glyphname = arrowleft;
layers = (
{
layerId = "690A5C2F-BA8A-4547-B0C9-560CF3D7C21C";
shapes = (
{
closed = 1;
nodes = (
(405,-7,l),
(46,340,l),
(405,688,l),
(514,565,l),
(342,418,l),
(726,418,l),
(726,264,l),
(342,264,l),
(514,117,l)
);
}
);
width = 773;
}
);
unicode = 8592;
},
{
glyphname = uni2197;
layers = (
{
layerId = "690A5C2F-BA8A-4547-B0C9-560CF3D7C21C";
shapes = (
{
closed = 1;
nodes = (
(127,572,l),
(626,580,l),
(619,80,l),
(455,90,l),
(472,316,l),
(201,44,l),
(92,153,l),
(363,425,l),
(138,407,l)
);
}
);
width = 773;
}
);
unicode = 8599;
},
{
glyphname = uni2198;
layers = (
{
layerId = "690A5C2F-BA8A-4547-B0C9-560CF3D7C21C";
shapes = (
{
closed = 1;
nodes = (
(618,599,l),
(626,100,l),
(126,107,l),
(136,271,l),
(362,254,l),
(90,525,l),
(199,634,l),
(471,363,l),
(453,588,l)
);
}
);
width = 773;
}
);
unicode = 8600;
},
{
glyphname = uni2196;
layers = (
{
layerId = "690A5C2F-BA8A-4547-B0C9-560CF3D7C21C";
shapes = (
{
closed = 1;
nodes = (
(154,81,l),
(146,580,l),
(646,573,l),
(636,409,l),
(410,426,l),
(682,155,l),
(573,46,l),
(301,317,l),
(319,92,l)
);
}
);
width = 773;
}
);
unicode = 8598;
},
{
glyphname = uni2199;
layers = (
{
layerId = "690A5C2F-BA8A-4547-B0C9-560CF3D7C21C";
shapes = (
{
closed = 1;
nodes = (
(645,108,l),
(146,100,l),
(153,600,l),
(317,590,l),
(300,364,l),
(571,636,l),
(680,527,l),
(409,255,l),
(634,273,l)
);
}
);
width = 773;
}
);
unicode = 8601;
},
{
glyphname = uniE010;
layers = (
{
layerId = "690A5C2F-BA8A-4547-B0C9-560CF3D7C21C";
shapes = (
{
closed = 1;
nodes = (
(234,195,o),
(280,156,o),
(280,87,cs),
(280,18,o),
(234,-17,o),
(178,-17,cs),
(122,-17,o),
(75,18,o),
(75,86,cs),
(75,155,o),
(124,195,o),
(179,195,cs)
);
}
);
width = 355;
}
);
unicode = 57360;
},
{
glyphname = uniE011;
layers = (
{
layerId = "690A5C2F-BA8A-4547-B0C9-560CF3D7C21C";
shapes = (
{
closed = 1;
nodes = (
(68,-94,l),
(100,-83,o),
(161,-33,o),
(173,-6,c),
(129,-2,o),
(85,31,o),
(85,92,cs),
(85,159,o),
(137,194,o),
(192,194,cs),
(263,194,o),
(302,135,o),
(302,60,cs),
(302,-59,o),
(210,-146,o),
(119,-175,c)
);
}
);
width = 378;
}
);
unicode = 57361;
},
{
glyphname = uniE012;
layers = (
{
layerId = "690A5C2F-BA8A-4547-B0C9-560CF3D7C21C";
shapes = (
{
closed = 1;
nodes = (
(238,531,o),
(286,492,o),
(286,423,cs),
(286,355,o),
(237,319,o),
(181,319,cs),
(125,319,o),
(75,354,o),
(75,422,cs),
(75,491,o),
(129,531,o),
(183,531,cs)
);
},
{
closed = 1;
nodes = (
(238,203,o),
(286,164,o),
(286,95,cs),
(286,27,o),
(237,-9,o),
(181,-9,cs),
(125,-9,o),
(75,26,o),
(75,94,cs),
(75,163,o),
(129,203,o),
(183,203,cs)
);
}
);
width = 361;
}
);
unicode = 57362;
},
{
glyphname = uniE013;
layers = (
{
layerId = "690A5C2F-BA8A-4547-B0C9-560CF3D7C21C";
shapes = (
{
closed = 1;
nodes = (
(69,-94,l),
(101,-83,o),
(162,-33,o),
(174,-6,c),
(130,-2,o),
(87,31,o),
(87,92,cs),
(87,159,o),
(138,194,o),
(193,194,cs),
(264,194,o),
(302,135,o),
(302,60,cs),
(302,-59,o),
(212,-145,o),
(120,-175,c)
);
},
{
closed = 1;
nodes = (
(250,531,o),
(298,492,o),
(298,423,cs),
(298,355,o),
(249,319,o),
(193,319,cs),
(137,319,o),
(87,354,o),
(87,422,cs),
(87,491,o),
(141,531,o),
(195,531,cs)
);
}
);
width = 377;
}
);
unicode = 57363;
},
{
glyphname = uniE014;
layers = (
{
layerId = "690A5C2F-BA8A-4547-B0C9-560CF3D7C21C";
shapes = (
{
closed = 1;
nodes = (
(226,411,l),
(123,411,l),
(91,708,l),
(260,708,l)
);
}
);
width = 351;
}
);
unicode = 57364;
},
{
glyphname = uniE015;
layers = (
{
layerId = "690A5C2F-BA8A-4547-B0C9-560CF3D7C21C";
shapes = (
{
closed = 1;
nodes = (
(386,411,l),
(282,411,l),
(256,708,l),
(419,708,l)
);
},
{
closed = 1;
nodes = (
(179,411,l),
(76,411,l),
(50,708,l),
(213,708,l)
);
}
);
width = 469;
}
);
unicode = 57365;
},
{
glyphname = uniE016;
layers = (
{
layerId = "690A5C2F-BA8A-4547-B0C9-560CF3D7C21C";
shapes = (
{
closed = 1;
nodes = (
(68,473,l),
(97,484,o),
(158,532,o),
(168,557,c),
(125,561,o),
(85,593,o),
(85,651,cs),
(85,716,o),
(134,748,o),
(186,748,cs),
(255,748,o),
(290,691,o),
(290,620,cs),
(290,508,o),
(203,423,o),
(117,396,c)
);
}
);
width = 365;
}
);
unicode = 57366;
},
{
glyphname = uniE017;
layers = (
{
layerId = "690A5C2F-BA8A-4547-B0C9-560CF3D7C21C";
shapes = (
{
closed = 1;
nodes = (
(22,473,l),
(51,484,o),
(112,532,o),
(122,557,c),
(79,561,o),
(39,593,o),
(39,651,cs),
(39,716,o),
(88,748,o),
(140,748,cs),
(209,748,o),
(244,691,o),
(244,620,cs),
(244,508,o),
(157,423,o),
(71,396,c)
);
},
{
closed = 1;
nodes = (
(279,473,l),
(308,484,o),
(369,532,o),
(379,557,c),
(336,561,o),
(296,593,o),
(296,651,cs),
(296,716,o),
(345,748,o),
(397,748,cs),
(466,748,o),
(501,691,o),
(501,620,cs),
(501,508,o),
(414,423,o),
(328,396,c)
);
}
);
width = 524;
}
);
unicode = 57367;
},
{
glyphname = uniE018;
layers = (
{
layerId = "690A5C2F-BA8A-4547-B0C9-560CF3D7C21C";
shapes = (
{
closed = 1;
nodes = (
(291,700,l),
(262,687,o),
(202,643,o),
(191,616,c),
(234,612,o),
(274,580,o),
(274,522,cs),
(274,457,o),
(225,425,o),
(173,425,cs),
(104,425,o),
(69,482,o),
(69,553,cs),
(69,667,o),
(156,747,o),
(242,777,c)
);
}
);
width = 366;
}
);
unicode = 57368;
},
{
glyphname = uniE019;
layers = (
{
layerId = "690A5C2F-BA8A-4547-B0C9-560CF3D7C21C";
shapes = (
{
closed = 1;
nodes = (
(501,700,l),
(472,687,o),
(412,643,o),
(401,616,c),
(444,612,o),
(484,580,o),
(484,522,cs),
(484,457,o),
(435,425,o),
(383,425,cs),
(314,425,o),
(279,482,o),
(279,553,cs),
(279,667,o),
(366,747,o),
(452,777,c)
);
},
{
closed = 1;
nodes = (
(244,700,l),
(215,687,o),
(155,643,o),
(144,616,c),
(187,612,o),
(227,580,o),
(227,522,cs),
(227,457,o),
(178,425,o),
(126,425,cs),
(57,425,o),
(22,482,o),
(22,553,cs),
(22,667,o),
(109,747,o),
(195,777,c)
);
}
);
width = 524;
}
);
unicode = 57369;
},
{
glyphname = uniE020;
layers = (
{
layerId = "690A5C2F-BA8A-4547-B0C9-560CF3D7C21C";
shapes = (
{
closed = 1;
nodes = (
(68,-98,l),
(97,-87,o),
(158,-39,o),
(168,-14,c),
(125,-10,o),
(85,22,o),
(85,80,cs),
(85,145,o),
(134,177,o),
(186,177,cs),
(255,177,o),
(290,120,o),
(290,49,cs),
(290,-63,o),
(203,-148,o),
(117,-175,c)
);
}
);
width = 366;
}
);
unicode = 57376;
},
{
glyphname = uniE021;
layers = (
{
layerId = "690A5C2F-BA8A-4547-B0C9-560CF3D7C21C";
shapes = (
{
closed = 1;
nodes = (
(22,-98,l),
(51,-87,o),
(112,-39,o),
(122,-14,c),
(79,-10,o),
(39,22,o),
(39,80,cs),
(39,145,o),
(88,177,o),
(140,177,cs),
(209,177,o),
(244,120,o),
(244,49,cs),
(244,-63,o),
(157,-148,o),
(71,-175,c)
);
},
{
closed = 1;
nodes = (
(279,-98,l),
(308,-87,o),
(369,-39,o),
(379,-14,c),
(336,-10,o),
(296,22,o),
(296,80,cs),
(296,145,o),
(345,177,o),
(397,177,cs),
(466,177,o),
(501,120,o),
(501,49,cs),
(501,-63,o),
(414,-148,o),
(328,-175,c)
);
}
);
width = 524;
}
);
unicode = 57377;
},
{
glyphname = uniE022;
layers = (
{
layerId = "690A5C2F-BA8A-4547-B0C9-560CF3D7C21C";
shapes = (
{
closed = 1;
nodes = (
(238,607,o),
(286,568,o),
(286,499,cs),
(286,431,o),
(237,395,o),
(181,395,cs),
(125,395,o),
(75,430,o),
(75,498,cs),
(75,567,o),
(129,607,o),
(183,607,cs)
);
},
{
closed = 1;
nodes = (
(238,279,o),
(286,240,o),
(286,171,cs),
(286,103,o),
(237,67,o),
(181,67,cs),
(125,67,o),
(75,102,o),
(75,170,cs),
(75,239,o),
(129,279,o),
(183,279,cs)
);
}
);
width = 361;
}
);
unicode = 57378;
},
{
glyphname = caron;
layers = (
{
layerId = "B2143D7B-CF06-45D2-9FB8-E0BBADB08E6A";
name = img;
width = 643;
},
{
layerId = "690A5C2F-BA8A-4547-B0C9-560CF3D7C21C";
shapes = (
{
closed = 1;
nodes = (
(264,577,l),
(96,769,l),
(262,769,l),
(323,685,l),
(381,769,l),
(547,769,l),
(381,577,l)
);
}
);
width = 643;
}
);
unicode = 711;
},
{
glyphname = exclamdown;
layers = (
{
layerId = "B2143D7B-CF06-45D2-9FB8-E0BBADB08E6A";
name = img;
width = 325;
},
{
layerId = "690A5C2F-BA8A-4547-B0C9-560CF3D7C21C";
shapes = (
{
closed = 1;
nodes = (
(98,332,o),
(57,372,o),
(57,433,cs),
(57,496,o),
(101,538,o),
(163,538,cs),
(222,538,o),
(268,499,o),
(268,435,cs),
(268,371,o),
(222,332,o),
(161,332,cs)
);
},
{
closed = 1;
nodes = (
(77,275,l),
(246,275,l),
(257,-179,l),
(65,-179,l)
);
}
);
width = 325;
}
);
unicode = 161;
},
{
glyphname = ordfeminine;
layers = (
{
layerId = "B2143D7B-CF06-45D2-9FB8-E0BBADB08E6A";
name = img;
width = 379;
},
{
layerId = "690A5C2F-BA8A-4547-B0C9-560CF3D7C21C";
shapes = (
{
closed = 1;
nodes = (
(235,495,l),
(212,460,o),
(178,448,o),
(140,448,cs),
(72,448,o),
(30,487,o),
(30,549,cs),
(30,590,o),
(48,616,o),
(75,630,cs),
(106,646,o),
(144,648,o),
(180,648,cs),
(232,648,l),
(231,675,o),
(213,689,o),
(188,689,cs),
(173,689,o),
(146,684,o),
(143,665,c),
(36,665,l),
(44,742,o),
(114,779,o),
(192,779,cs),
(284,779,o),
(334,728,o),
(334,625,cs),
(334,453,l),
(235,453,l)
);
},
{
closed = 1;
nodes = (
(168,582,ls),
(148,582,o),
(136,573,o),
(136,557,cs),
(136,540,o),
(151,530,o),
(171,530,cs),
(200,530,o),
(231,551,o),
(233,582,c)
);
}
);
width = 379;
}
);
unicode = 170;
},
{
glyphname = macron;
layers = (
{
layerId = "B2143D7B-CF06-45D2-9FB8-E0BBADB08E6A";
name = img;
width = 596;
},
{
layerId = "690A5C2F-BA8A-4547-B0C9-560CF3D7C21C";
shapes = (
{
closed = 1;
nodes = (
(496,616,l),
(100,616,l),
(100,769,l),
(496,769,l)
);
}
);
width = 596;
}
);
unicode = 175;
},
{
glyphname = paragraph;
layers = (
{
layerId = "B2143D7B-CF06-45D2-9FB8-E0BBADB08E6A";
name = img;
width = 794;
},
{
layerId = "690A5C2F-BA8A-4547-B0C9-560CF3D7C21C";
shapes = (
{
closed = 1;
nodes = (
(789,708,l),
(789,540,l),
(684,540,l),
(684,0,l),
(503,0,l),
(503,540,l),
(398,540,l),
(398,0,l),
(217,0,l),
(217,315,l),
(201,315,ls),
(110,315,o),
(5,375,o),
(5,510,cs),
(5,644,o),
(108,708,o),
(199,708,cs)
);
}
);
width = 794;
}
);
unicode = 182;
},
{
glyphname = periodcentered;
layers = (
{
layerId = "B2143D7B-CF06-45D2-9FB8-E0BBADB08E6A";
name = img;
width = 308;
},
{
layerId = "690A5C2F-BA8A-4547-B0C9-560CF3D7C21C";
shapes = (
{
closed = 1;
nodes = (
(214,459,o),
(261,418,o),
(261,353,cs),
(261,290,o),
(218,249,o),
(154,249,cs),
(90,249,o),
(47,291,o),
(47,352,cs),
(47,415,o),
(94,459,o),
(155,459,cs)
);
}
);
width = 308;
}
);
unicode = 183;
},
{
glyphname = ordmasculine;
layers = (
{
layerId = "B2143D7B-CF06-45D2-9FB8-E0BBADB08E6A";
name = img;
width = 381;
},
{
layerId = "690A5C2F-BA8A-4547-B0C9-560CF3D7C21C";
shapes = (
{
closed = 1;
nodes = (
(304,779,o),
(341,701,o),
(341,614,cs),
(341,525,o),
(302,448,o),
(190,448,cs),
(77,448,o),
(40,525,o),
(40,612,cs),
(40,702,o),
(80,779,o),
(192,779,cs)
);
},
{
closed = 1;
nodes = (
(236,538,o),
(242,583,o),
(242,614,cs),
(242,643,o),
(237,689,o),
(192,689,cs),
(147,689,o),
(139,646,o),
(139,609,cs),
(139,583,o),
(143,538,o),
(190,538,cs)
);
}
);
width = 381;
}
);
unicode = 186;
},
{
glyphname = questiondown;
layers = (
{
layerId = "B2143D7B-CF06-45D2-9FB8-E0BBADB08E6A";
name = img;
width = 541;
},
{
layerId = "690A5C2F-BA8A-4547-B0C9-560CF3D7C21C";
shapes = (
{
closed = 1;
nodes = (
(217,328,o),
(176,367,o),
(176,431,cs),
(176,494,o),
(216,538,o),
(280,538,cs),
(344,538,o),
(387,495,o),
(387,431,cs),
(387,366,o),
(344,328,o),
(280,328,cs)
);
},
{
closed = 1;
nodes = (
(366,281,l),
(367,270,o),
(368,262,o),
(368,252,cs),
(368,186,o),
(328,147,o),
(277,107,cs),
(256,90,o),
(214,65,o),
(214,28,cs),
(214,-5,o),
(248,-22,o),
(280,-22,cs),
(323,-22,o),
(353,-3,o),
(353,44,c),
(524,44,l),
(524,19,ls),
(524,-129,o),
(404,-188,o),
(276,-188,cs),
(148,-188,o),
(35,-129,o),
(35,9,cs),
(35,118,o),
(119,150,o),
(181,226,cs),
(194,241,o),
(200,260,o),
(201,281,c)
);
}
);
width = 541;
}
);
unicode = 191;
},
{
glyphname = dotaccent;
layers = (
{
layerId = "B2143D7B-CF06-45D2-9FB8-E0BBADB08E6A";
name = img;
width = 614;
},
{
layerId = "690A5C2F-BA8A-4547-B0C9-560CF3D7C21C";
shapes = (
{
closed = 1;
nodes = (
(367,783,o),
(414,742,o),
(414,677,cs),
(414,614,o),
(371,573,o),
(307,573,cs),
(243,573,o),
(200,615,o),
(200,676,cs),
(200,739,o),
(247,783,o),
(308,783,cs)
);
}
);
width = 614;
}
);
unicode = 729;
},
{
glyphname = ring;
layers = (
{
layerId = "B2143D7B-CF06-45D2-9FB8-E0BBADB08E6A";
name = img;
width = 633;
},
{
layerId = "690A5C2F-BA8A-4547-B0C9-560CF3D7C21C";
shapes = (
{
closed = 1;
nodes = (
(392,836,o),
(449,786,o),
(449,710,cs),
(449,636,o),
(395,586,o),
(316,586,cs),
(239,586,o),
(183,636,o),
(183,710,cs),
(183,785,o),
(242,836,o),
(317,836,cs)
);
},
{
closed = 1;
nodes = (
(295,748,o),
(277,732,o),
(277,711,cs),
(277,690,o),
(292,674,o),
(316,674,cs),
(340,674,o),
(356,690,o),
(356,711,cs),
(356,732,o),
(339,748,o),
(316,748,cs)
);
}
);
width = 633;
}
);
unicode = 730;
},
{
glyphname = ogonek;
layers = (
{
layerId = "B2143D7B-CF06-45D2-9FB8-E0BBADB08E6A";
name = img;
width = 491;
},
{
layerId = "690A5C2F-BA8A-4547-B0C9-560CF3D7C21C";
shapes = (
{
closed = 1;
nodes = (
(140,-46,o),
(169,-5,o),
(214,12,c),
(308,1,l),
(277,-7,o),
(253,-24,o),
(253,-51,cs),
(253,-78,o),
(271,-92,o),
(297,-92,cs),
(311,-92,o),
(323,-88,o),
(335,-83,c),
(351,-179,l),
(326,-194,o),
(294,-197,o),
(272,-197,cs),
(192,-197,o),
(140,-157,o),
(140,-93,cs)
);
}
);
width = 491;
}
);
unicode = 731;
},
{
glyphname = tilde;
layers = (
{
layerId = "B2143D7B-CF06-45D2-9FB8-E0BBADB08E6A";
name = img;
width = 601;
},
{
layerId = "690A5C2F-BA8A-4547-B0C9-560CF3D7C21C";
shapes = (
{
closed = 1;
nodes = (
(394,707,o),
(395,742,o),
(392,762,c),
(506,762,l),
(507,753,o),
(508,745,o),
(508,730,cs),
(508,654,o),
(482,577,o),
(394,577,cs),
(311,577,o),
(271,645,o),
(236,645,cs),
(209,645,o),
(204,602,o),
(210,582,c),
(95,582,l),
(94,591,o),
(93,599,o),
(93,613,cs),
(93,695,o),
(130,769,o),
(229,769,cs),
(300,769,o),
(330,707,o),
(367,707,cs)
);
}
);
width = 601;
}
);
unicode = 732;
},
{
glyphname = hungarumlaut;
layers = (
{
layerId = "B2143D7B-CF06-45D2-9FB8-E0BBADB08E6A";
name = img;
width = 654;
},
{
layerId = "690A5C2F-BA8A-4547-B0C9-560CF3D7C21C";
shapes = (
{
closed = 1;
nodes = (
(236,577,l),
(107,577,l),
(180,769,l),
(353,769,l)
);
},
{
closed = 1;
nodes = (
(438,577,l),
(302,577,l),
(422,769,l),
(594,769,l)
);
}
);
width = 654;
}
);
unicode = 733;
},
{
glyphname = acutecomb;
layers = (
{
layerId = "B2143D7B-CF06-45D2-9FB8-E0BBADB08E6A";
name = img;
width = 0;
},
{
layerId = "690A5C2F-BA8A-4547-B0C9-560CF3D7C21C";
shapes = (
{
closed = 1;
nodes = (
(-222,577,l),
(-370,577,l),
(-238,769,l),
(-51,769,l)
);
}
);
width = 0;
}
);
unicode = 769;
},
{
glyphname = gravecomb;
layers = (
{
layerId = "B2143D7B-CF06-45D2-9FB8-E0BBADB08E6A";
name = img;
width = 0;
},
{
layerId = "690A5C2F-BA8A-4547-B0C9-560CF3D7C21C";
shapes = (
{
closed = 1;
nodes = (
(-309,577,l),
(-480,769,l),
(-293,769,l),
(-161,577,l)
);
}
);
width = 0;
}
);
unicode = 768;
},
{
glyphname = uni0302;
layers = (
{
layerId = "B2143D7B-CF06-45D2-9FB8-E0BBADB08E6A";
name = img;
width = 0;
},
{
layerId = "690A5C2F-BA8A-4547-B0C9-560CF3D7C21C";
shapes = (
{
closed = 1;
nodes = (
(-228,769,l),
(-59,577,l),
(-225,577,l),
(-286,661,l),
(-344,577,l),
(-510,577,l),
(-344,769,l)
);
}
);
width = 0;
}
);
unicode = 770;
},
{
glyphname = tildecomb;
layers = (
{
layerId = "B2143D7B-CF06-45D2-9FB8-E0BBADB08E6A";
name = img;
width = 0;
},
{
layerId = "690A5C2F-BA8A-4547-B0C9-560CF3D7C21C";
shapes = (
{
closed = 1;
nodes = (
(-179,707,o),
(-178,742,o),
(-181,762,c),
(-67,762,l),
(-66,753,o),
(-65,745,o),
(-65,730,cs),
(-65,654,o),
(-91,577,o),
(-179,577,cs),
(-262,577,o),
(-302,645,o),
(-337,645,cs),
(-364,645,o),
(-369,602,o),
(-363,582,c),
(-478,582,l),
(-479,591,o),
(-480,599,o),
(-480,613,cs),
(-480,695,o),
(-443,769,o),
(-344,769,cs),
(-273,769,o),
(-243,707,o),
(-206,707,cs)
);
}
);
width = 0;
}
);
unicode = 771;
},
{
glyphname = uni0304;
layers = (
{
layerId = "B2143D7B-CF06-45D2-9FB8-E0BBADB08E6A";
name = img;
width = 0;
},
{
layerId = "690A5C2F-BA8A-4547-B0C9-560CF3D7C21C";
shapes = (
{
closed = 1;
nodes = (
(-100,616,l),
(-496,616,l),
(-496,769,l),
(-100,769,l)
);
}
);
width = 0;
}
);
unicode = 772;
},
{
glyphname = uni0306;
layers = (
{
layerId = "B2143D7B-CF06-45D2-9FB8-E0BBADB08E6A";
name = img;
width = 0;
},
{
layerId = "690A5C2F-BA8A-4547-B0C9-560CF3D7C21C";
shapes = (
{
closed = 1;
nodes = (
(-411,577,o),
(-488,638,o),
(-488,769,c),
(-346,769,l),
(-346,757,ls),
(-346,721,o),
(-321,698,o),
(-285,698,cs),
(-248,698,o),
(-224,720,o),
(-224,757,cs),
(-224,769,l),
(-82,769,l),
(-82,640,o),
(-159,577,o),
(-286,577,cs)
);
}
);
width = 0;
}
);
unicode = 774;
},
{
glyphname = uni0307;
layers = (
{
layerId = "B2143D7B-CF06-45D2-9FB8-E0BBADB08E6A";
name = img;
width = 0;
},
{
layerId = "690A5C2F-BA8A-4547-B0C9-560CF3D7C21C";
shapes = (
{
closed = 1;
nodes = (
(-233,773,o),
(-186,732,o),
(-186,667,cs),
(-186,604,o),
(-229,563,o),
(-293,563,cs),
(-357,563,o),
(-400,605,o),
(-400,666,cs),
(-400,729,o),
(-353,773,o),
(-292,773,cs)
);
}
);
width = 0;
}
);
unicode = 775;
},
{
glyphname = uni0308;
layers = (
{
layerId = "B2143D7B-CF06-45D2-9FB8-E0BBADB08E6A";
name = img;
width = 0;
},
{
layerId = "690A5C2F-BA8A-4547-B0C9-560CF3D7C21C";
shapes = (
{
closed = 1;
nodes = (
(-366,763,o),
(-320,729,o),
(-320,667,cs),
(-320,607,o),
(-364,576,o),
(-415,576,cs),
(-466,576,o),
(-510,607,o),
(-510,667,cs),
(-510,728,o),
(-465,763,o),
(-415,763,cs)
);
},
{
closed = 1;
nodes = (
(-107,763,o),
(-63,729,o),
(-63,668,cs),
(-63,607,o),
(-107,576,o),
(-157,576,cs),
(-208,576,o),
(-253,607,o),
(-253,667,cs),
(-253,728,o),
(-206,763,o),
(-156,763,cs)
);
}
);
width = 0;
}
);
unicode = 776;
},
{
glyphname = uni030A;
layers = (
{
layerId = "B2143D7B-CF06-45D2-9FB8-E0BBADB08E6A";
name = img;
width = 0;
},
{
layerId = "690A5C2F-BA8A-4547-B0C9-560CF3D7C21C";
shapes = (
{
closed = 1;
nodes = (
(-214,836,o),
(-157,786,o),
(-157,710,cs),
(-157,636,o),
(-211,586,o),
(-290,586,cs),
(-367,586,o),
(-423,636,o),
(-423,710,cs),
(-423,785,o),
(-364,836,o),
(-289,836,cs)
);
},
{
closed = 1;
nodes = (
(-311,748,o),
(-329,732,o),
(-329,711,cs),
(-329,690,o),
(-314,674,o),
(-290,674,cs),
(-266,674,o),
(-250,690,o),
(-250,711,cs),
(-250,732,o),
(-267,748,o),
(-290,748,cs)
);
}
);
width = 0;
}
);
unicode = 778;
},
{
glyphname = uni030B;
layers = (
{
layerId = "B2143D7B-CF06-45D2-9FB8-E0BBADB08E6A";
name = img;
width = 0;
},
{
layerId = "690A5C2F-BA8A-4547-B0C9-560CF3D7C21C";
shapes = (
{
closed = 1;
nodes = (
(-331,577,l),
(-460,577,l),
(-387,769,l),
(-214,769,l)
);
},
{
closed = 1;
nodes = (
(-129,577,l),
(-265,577,l),
(-145,769,l),
(27,769,l)
);
}
);
width = 0;
}
);
unicode = 779;
},
{
glyphname = uni030C;
layers = (
{
layerId = "B2143D7B-CF06-45D2-9FB8-E0BBADB08E6A";
name = img;
width = 0;
},
{
layerId = "690A5C2F-BA8A-4547-B0C9-560CF3D7C21C";
shapes = (
{
closed = 1;
nodes = (
(-352,577,l),
(-520,769,l),
(-354,769,l),
(-293,685,l),
(-235,769,l),
(-69,769,l),
(-235,577,l)
);
}
);
width = 0;
}
);
unicode = 780;
},
{
glyphname = uni0312;
layers = (
{
layerId = "B2143D7B-CF06-45D2-9FB8-E0BBADB08E6A";
name = img;
width = 0;
},
{
layerId = "690A5C2F-BA8A-4547-B0C9-560CF3D7C21C";
shapes = (
{
closed = 1;
nodes = (
(-176,805,l),
(-203,795,o),
(-264,754,o),
(-274,731,c),
(-231,728,o),
(-193,699,o),
(-193,648,cs),
(-193,590,o),
(-241,563,o),
(-291,563,cs),
(-359,563,o),
(-392,613,o),
(-392,676,cs),
(-392,774,o),
(-308,849,o),
(-223,873,c)
);
}
);
width = 0;
}
);
unicode = 786;
},
{
glyphname = uni0327;
layers = (
{
layerId = "B2143D7B-CF06-45D2-9FB8-E0BBADB08E6A";
name = img;
width = 0;
},
{
layerId = "690A5C2F-BA8A-4547-B0C9-560CF3D7C21C";
shapes = (
{
closed = 1;
nodes = (
(-233,52,l),
(-254,-28,l),
(-202,-31,o),
(-152,-55,o),
(-152,-136,cs),
(-152,-234,o),
(-237,-278,o),
(-318,-278,cs),
(-357,-278,o),
(-377,-274,o),
(-396,-269,c),
(-396,-167,l),
(-320,-183,o),
(-283,-170,o),
(-283,-138,cs),
(-283,-118,o),
(-303,-107,o),
(-333,-106,cs),
(-357,-105,o),
(-385,-111,o),
(-394,-115,c),
(-345,52,l)
);
}
);
width = 0;
}
);
unicode = 807;
},
{
glyphname = uni0328;
layers = (
{
layerId = "B2143D7B-CF06-45D2-9FB8-E0BBADB08E6A";
name = img;
width = 0;
},
{
layerId = "690A5C2F-BA8A-4547-B0C9-560CF3D7C21C";
shapes = (
{
closed = 1;
nodes = (
(-250,-46,o),
(-221,-5,o),
(-176,12,c),
(-82,1,l),
(-113,-7,o),
(-137,-24,o),
(-137,-51,cs),
(-137,-78,o),
(-119,-92,o),
(-93,-92,cs),
(-79,-92,o),
(-67,-88,o),
(-55,-83,c),
(-39,-179,l),
(-64,-194,o),
(-96,-197,o),
(-118,-197,cs),
(-198,-197,o),
(-250,-157,o),
(-250,-93,cs)
);
}
);
width = 0;
}
);
unicode = 808;
},
{
glyphname = Agrave;
layers = (
{
layerId = "B2143D7B-CF06-45D2-9FB8-E0BBADB08E6A";
name = img;
width = 739;
},
{
layerId = "690A5C2F-BA8A-4547-B0C9-560CF3D7C21C";
shapes = (
{
closed = 1;
nodes = (
(347,758,l),
(176,950,l),
(363,950,l),
(495,758,l)
);
},
{
closed = 1;
nodes = (
(189,0,l),
(-5,0,l),
(279,708,l),
(463,708,l),
(744,0,l),
(549,0,l),
(514,100,l),
(225,100,l)
);
},
{
closed = 1;
nodes = (
(457,263,l),
(371,506,l),
(282,263,l)
);
}
);
width = 739;
}
);
leftKerningGroup = _kern30;
rightKerningGroup = _kern30;
unicode = 192;
},
{
glyphname = Aacute;
layers = (
{
layerId = "B2143D7B-CF06-45D2-9FB8-E0BBADB08E6A";
name = img;
width = 739;
},
{
layerId = "690A5C2F-BA8A-4547-B0C9-560CF3D7C21C";
shapes = (
{
closed = 1;
nodes = (
(189,0,l),
(-5,0,l),
(279,708,l),
(463,708,l),
(744,0,l),
(549,0,l),
(514,100,l),
(225,100,l)
);
},
{
closed = 1;
nodes = (
(457,263,l),
(371,506,l),
(282,263,l)
);
},
{
closed = 1;
nodes = (
(418,758,l),
(270,758,l),
(402,950,l),
(589,950,l)
);
}
);
width = 739;
}
);
leftKerningGroup = _kern30;
rightKerningGroup = _kern30;
unicode = 193;
},
{
glyphname = Acircumflex;
layers = (
{
layerId = "B2143D7B-CF06-45D2-9FB8-E0BBADB08E6A";
name = img;
width = 739;
},
{
layerId = "690A5C2F-BA8A-4547-B0C9-560CF3D7C21C";
shapes = (
{
closed = 1;
nodes = (
(189,0,l),
(-5,0,l),
(279,708,l),
(463,708,l),
(744,0,l),
(549,0,l),
(514,100,l),
(225,100,l)
);
},
{
closed = 1;
nodes = (
(457,263,l),
(371,506,l),
(282,263,l)
);
},
{
closed = 1;
nodes = (
(426,950,l),
(595,758,l),
(429,758,l),
(368,842,l),
(310,758,l),
(144,758,l),
(310,950,l)
);
}
);
width = 739;
}
);
leftKerningGroup = _kern30;
rightKerningGroup = _kern30;
unicode = 194;
},
{
glyphname = Atilde;
layers = (
{
layerId = "B2143D7B-CF06-45D2-9FB8-E0BBADB08E6A";
name = img;
width = 739;
},
{
layerId = "690A5C2F-BA8A-4547-B0C9-560CF3D7C21C";
shapes = (
{
closed = 1;
nodes = (
(189,0,l),
(-5,0,l),
(279,708,l),
(463,708,l),
(744,0,l),
(549,0,l),
(514,100,l),
(225,100,l)
);
},
{
closed = 1;
nodes = (
(457,263,l),
(371,506,l),
(282,263,l)
);
},
{
closed = 1;
nodes = (
(470,888,o),
(471,923,o),
(468,943,c),
(582,943,l),
(583,934,o),
(584,926,o),
(584,911,cs),
(584,835,o),
(558,758,o),
(470,758,cs),
(387,758,o),
(347,826,o),
(312,826,cs),
(285,826,o),
(280,783,o),
(286,763,c),
(171,763,l),
(170,772,o),
(169,780,o),
(169,794,cs),
(169,876,o),
(206,950,o),
(305,950,cs),
(376,950,o),
(406,888,o),
(443,888,cs)
);
}
);
width = 739;
}
);
leftKerningGroup = _kern30;
rightKerningGroup = _kern30;
unicode = 195;
},
{
glyphname = Aring;
layers = (
{
layerId = "B2143D7B-CF06-45D2-9FB8-E0BBADB08E6A";
name = img;
width = 739;
},
{
layerId = "690A5C2F-BA8A-4547-B0C9-560CF3D7C21C";
shapes = (
{
closed = 1;
nodes = (
(189,0,l),
(-5,0,l),
(279,708,l),
(463,708,l),
(744,0,l),
(549,0,l),
(514,100,l),
(225,100,l)
);
},
{
closed = 1;
nodes = (
(457,263,l),
(371,506,l),
(282,263,l)
);
},
{
closed = 1;
nodes = (
(445,968,o),
(502,918,o),
(502,845,cs),
(502,773,o),
(448,724,o),
(370,724,cs),
(292,724,o),
(236,774,o),
(236,845,cs),
(236,917,o),
(295,968,o),
(370,968,cs)
);
},
{
closed = 1;
nodes = (
(348,882,o),
(330,867,o),
(330,846,cs),
(330,825,o),
(345,810,o),
(369,810,cs),
(393,810,o),
(409,825,o),
(409,846,cs),
(409,867,o),
(392,882,o),
(369,882,cs)
);
}
);
width = 739;
}
);
leftKerningGroup = _kern30;
rightKerningGroup = _kern30;
unicode = 197;
},
{
glyphname = AE;
layers = (
{
layerId = "B2143D7B-CF06-45D2-9FB8-E0BBADB08E6A";
name = img;
width = 942;
},
{
layerId = "690A5C2F-BA8A-4547-B0C9-560CF3D7C21C";
shapes = (
{
closed = 1;
nodes = (
(187,0,l),
(-7,0,l),
(290,708,l),
(914,708,l),
(914,540,l),
(596,540,l),
(596,432,l),
(852,432,l),
(852,272,l),
(596,272,l),
(596,167,l),
(914,167,l),
(914,0,l),
(415,0,l),
(415,100,l),
(229,100,l)
);
},
{
closed = 1;
nodes = (
(415,540,l),
(396,540,l),
(288,263,l),
(415,263,l)
);
}
);
width = 942;
}
);
unicode = 198;
},
{
glyphname = Egrave;
layers = (
{
layerId = "B2143D7B-CF06-45D2-9FB8-E0BBADB08E6A";
name = img;
width = 629;
},
{
layerId = "690A5C2F-BA8A-4547-B0C9-560CF3D7C21C";
shapes = (
{
closed = 1;
nodes = (
(601,708,l),
(601,540,l),
(248,540,l),
(248,432,l),
(539,432,l),
(539,272,l),
(248,272,l),
(248,167,l),
(601,167,l),
(601,0,l),
(67,0,l),
(67,708,l)
);
},
{
closed = 1;
nodes = (
(306,758,l),
(135,950,l),
(322,950,l),
(454,758,l)
);
}
);
width = 629;
}
);
unicode = 200;
},
{
glyphname = Eacute;
layers = (
{
layerId = "B2143D7B-CF06-45D2-9FB8-E0BBADB08E6A";
name = img;
width = 629;
},
{
layerId = "690A5C2F-BA8A-4547-B0C9-560CF3D7C21C";
shapes = (
{
closed = 1;
nodes = (
(601,708,l),
(601,540,l),
(248,540,l),
(248,432,l),
(539,432,l),
(539,272,l),
(248,272,l),
(248,167,l),
(601,167,l),
(601,0,l),
(67,0,l),
(67,708,l)
);
},
{
closed = 1;
nodes = (
(353,758,l),
(205,758,l),
(337,950,l),
(524,950,l)
);
}
);
width = 629;
}
);
unicode = 201;
},
{
glyphname = Ecircumflex;
layers = (
{
layerId = "B2143D7B-CF06-45D2-9FB8-E0BBADB08E6A";
name = img;
width = 629;
},
{
layerId = "690A5C2F-BA8A-4547-B0C9-560CF3D7C21C";
shapes = (
{
closed = 1;
nodes = (
(601,708,l),
(601,540,l),
(248,540,l),
(248,432,l),
(539,432,l),
(539,272,l),
(248,272,l),
(248,167,l),
(601,167,l),
(601,0,l),
(67,0,l),
(67,708,l)
);
},
{
closed = 1;
nodes = (
(388,950,l),
(557,758,l),
(391,758,l),
(330,842,l),
(272,758,l),
(106,758,l),
(272,950,l)
);
}
);
width = 629;
}
);
unicode = 202;
},
{
glyphname = Edieresis;
layers = (
{
layerId = "B2143D7B-CF06-45D2-9FB8-E0BBADB08E6A";
name = img;
width = 629;
},
{
layerId = "690A5C2F-BA8A-4547-B0C9-560CF3D7C21C";
shapes = (
{
closed = 1;
nodes = (
(601,708,l),
(601,540,l),
(248,540,l),
(248,432,l),
(539,432,l),
(539,272,l),
(248,272,l),
(248,167,l),
(601,167,l),
(601,0,l),
(67,0,l),
(67,708,l)
);
},
{
closed = 1;
nodes = (
(255,944,o),
(301,910,o),
(301,848,cs),
(301,788,o),
(257,757,o),
(206,757,cs),
(155,757,o),
(111,788,o),
(111,848,cs),
(111,909,o),
(156,944,o),
(206,944,cs)
);
},
{
closed = 1;
nodes = (
(514,944,o),
(558,910,o),
(558,849,cs),
(558,788,o),
(516,757,o),
(465,757,cs),
(415,757,o),
(368,788,o),
(368,848,cs),
(368,909,o),
(415,944,o),
(465,944,cs)
);
}
);
width = 629;
}
);
unicode = 203;
},
{
glyphname = Igrave;
layers = (
{
layerId = "B2143D7B-CF06-45D2-9FB8-E0BBADB08E6A";
name = img;
width = 315;
},
{
layerId = "690A5C2F-BA8A-4547-B0C9-560CF3D7C21C";
shapes = (
{
closed = 1;
nodes = (
(248,0,l),
(67,0,l),
(67,708,l),
(248,708,l)
);
},
{
closed = 1;
nodes = (
(132,758,l),
(-39,950,l),
(148,950,l),
(280,758,l)
);
}
);
width = 315;
}
);
leftKerningGroup = _kern1;
rightKerningGroup = _kern2;
unicode = 204;
},
{
glyphname = Iacute;
layers = (
{
layerId = "B2143D7B-CF06-45D2-9FB8-E0BBADB08E6A";
name = img;
width = 315;
},
{
layerId = "690A5C2F-BA8A-4547-B0C9-560CF3D7C21C";
shapes = (
{
closed = 1;
nodes = (
(248,0,l),
(67,0,l),
(67,708,l),
(248,708,l)
);
},
{
closed = 1;
nodes = (
(201,758,l),
(53,758,l),
(185,950,l),
(372,950,l)
);
}
);
width = 315;
}
);
leftKerningGroup = _kern1;
rightKerningGroup = _kern2;
unicode = 205;
},
{
glyphname = Icircumflex;
layers = (
{
layerId = "B2143D7B-CF06-45D2-9FB8-E0BBADB08E6A";
name = img;
width = 315;
},
{
layerId = "690A5C2F-BA8A-4547-B0C9-560CF3D7C21C";
shapes = (
{
closed = 1;
nodes = (
(248,0,l),
(67,0,l),
(67,708,l),
(248,708,l)
);
},
{
closed = 1;
nodes = (
(214,950,l),
(383,758,l),
(217,758,l),
(156,842,l),
(98,758,l),
(-68,758,l),
(98,950,l)
);
}
);
width = 315;
}
);
leftKerningGroup = _kern1;
rightKerningGroup = _kern2;
unicode = 206;
},
{
glyphname = Idieresis;
layers = (
{
layerId = "B2143D7B-CF06-45D2-9FB8-E0BBADB08E6A";
name = img;
width = 315;
},
{
layerId = "690A5C2F-BA8A-4547-B0C9-560CF3D7C21C";
shapes = (
{
closed = 1;
nodes = (
(88,944,o),
(134,910,o),
(134,848,cs),
(134,788,o),
(90,757,o),
(39,757,cs),
(-12,757,o),
(-56,788,o),
(-56,848,cs),
(-56,909,o),
(-11,944,o),
(39,944,cs)
);
},
{
closed = 1;
nodes = (
(327,944,o),
(371,910,o),
(371,849,cs),
(371,788,o),
(329,757,o),
(278,757,cs),
(228,757,o),
(181,788,o),
(181,848,cs),
(181,909,o),
(228,944,o),
(278,944,cs)
);
},
{
closed = 1;
nodes = (
(248,0,l),
(67,0,l),
(67,708,l),
(248,708,l)
);
}
);
width = 315;
}
);
leftKerningGroup = _kern1;
rightKerningGroup = _kern2;
unicode = 207;
},
{
glyphname = Eth;
layers = (
{
layerId = "B2143D7B-CF06-45D2-9FB8-E0BBADB08E6A";
name = img;
width = 737;
},
{
layerId = "690A5C2F-BA8A-4547-B0C9-560CF3D7C21C";
shapes = (
{
closed = 1;
nodes = (
(67,0,l),
(67,278,l),
(-15,278,l),
(-15,430,l),
(67,430,l),
(67,708,l),
(344,708,ls),
(571,708,o),
(708,586,o),
(708,349,cs),
(708,120,o),
(579,0,o),
(346,0,cs)
);
},
{
closed = 1;
nodes = (
(375,278,l),
(248,278,l),
(248,167,l),
(348,167,ls),
(473,167,o),
(525,232,o),
(525,353,cs),
(525,476,o),
(470,540,o),
(341,540,cs),
(248,540,l),
(248,430,l),
(375,430,l)
);
}
);
width = 737;
}
);
leftKerningGroup = _kern1;
rightKerningGroup = _kern4;
unicode = 208;
},
{
glyphname = Ntilde;
layers = (
{
layerId = "B2143D7B-CF06-45D2-9FB8-E0BBADB08E6A";
name = img;
width = 783;
},
{
layerId = "690A5C2F-BA8A-4547-B0C9-560CF3D7C21C";
shapes = (
{
closed = 1;
nodes = (
(236,708,l),
(535,303,l),
(535,708,l),
(716,708,l),
(716,0,l),
(552,0,l),
(248,399,l),
(248,0,l),
(67,0,l),
(67,708,l)
);
},
{
closed = 1;
nodes = (
(492,888,o),
(493,923,o),
(490,943,c),
(604,943,l),
(605,934,o),
(606,926,o),
(606,911,cs),
(606,835,o),
(580,758,o),
(492,758,cs),
(409,758,o),
(369,826,o),
(334,826,cs),
(307,826,o),
(302,783,o),
(308,763,c),
(193,763,l),
(192,772,o),
(191,780,o),
(191,794,cs),
(191,876,o),
(228,950,o),
(327,950,cs),
(398,950,o),
(428,888,o),
(465,888,cs)
);
}
);
width = 783;
}
);
leftKerningGroup = _kern1;
rightKerningGroup = _kern2;
unicode = 209;
},
{
glyphname = Ograve;
layers = (
{
layerId = "B2143D7B-CF06-45D2-9FB8-E0BBADB08E6A";
name = img;
width = 781;
},
{
layerId = "690A5C2F-BA8A-4547-B0C9-560CF3D7C21C";
shapes = (
{
closed = 1;
nodes = (
(605,717,o),
(753,577,o),
(753,358,cs),
(753,141,o),
(607,-8,o),
(387,-8,cs),
(170,-8,o),
(28,136,o),
(28,353,cs),
(28,574,o),
(176,717,o),
(392,717,cs)
);
},
{
closed = 1;
nodes = (
(213,260,o),
(266,163,o),
(391,163,cs),
(519,163,o),
(568,266,o),
(568,353,cs),
(568,437,o),
(522,546,o),
(390,546,cs),
(264,546,o),
(213,447,o),
(213,354,cs)
);
},
{
closed = 1;
nodes = (
(372,758,l),
(201,950,l),
(388,950,l),
(520,758,l)
);
}
);
width = 781;
}
);
leftKerningGroup = _kern3;
rightKerningGroup = _kern4;
unicode = 210;
},
{
glyphname = Oacute;
layers = (
{
layerId = "B2143D7B-CF06-45D2-9FB8-E0BBADB08E6A";
name = img;
width = 781;
},
{
layerId = "690A5C2F-BA8A-4547-B0C9-560CF3D7C21C";
shapes = (
{
closed = 1;
nodes = (
(605,717,o),
(753,577,o),
(753,358,cs),
(753,141,o),
(607,-8,o),
(387,-8,cs),
(170,-8,o),
(28,136,o),
(28,353,cs),
(28,574,o),
(176,717,o),
(392,717,cs)
);
},
{
closed = 1;
nodes = (
(213,260,o),
(266,163,o),
(391,163,cs),
(519,163,o),
(568,266,o),
(568,353,cs),
(568,437,o),
(522,546,o),
(390,546,cs),
(264,546,o),
(213,447,o),
(213,354,cs)
);
},
{
closed = 1;
nodes = (
(439,758,l),
(291,758,l),
(423,950,l),
(610,950,l)
);
}
);
width = 781;
}
);
leftKerningGroup = _kern3;
rightKerningGroup = _kern4;
unicode = 211;
},
{
glyphname = Ocircumflex;
layers = (
{
layerId = "B2143D7B-CF06-45D2-9FB8-E0BBADB08E6A";
name = img;
width = 781;
},
{
layerId = "690A5C2F-BA8A-4547-B0C9-560CF3D7C21C";
shapes = (
{
closed = 1;
nodes = (
(605,717,o),
(753,577,o),
(753,358,cs),
(753,141,o),
(607,-8,o),
(387,-8,cs),
(170,-8,o),
(28,136,o),
(28,353,cs),
(28,574,o),
(176,717,o),
(392,717,cs)
);
},
{
closed = 1;
nodes = (
(213,260,o),
(266,163,o),
(391,163,cs),
(519,163,o),
(568,266,o),
(568,353,cs),
(568,437,o),
(522,546,o),
(390,546,cs),
(264,546,o),
(213,447,o),
(213,354,cs)
);
},
{
closed = 1;
nodes = (
(450,950,l),
(619,758,l),
(453,758,l),
(392,842,l),
(334,758,l),
(168,758,l),
(334,950,l)
);
}
);
width = 781;
}
);
leftKerningGroup = _kern3;
rightKerningGroup = _kern4;
unicode = 212;
},
{
glyphname = Otilde;
layers = (
{
layerId = "B2143D7B-CF06-45D2-9FB8-E0BBADB08E6A";
name = img;
width = 781;
},
{
layerId = "690A5C2F-BA8A-4547-B0C9-560CF3D7C21C";
shapes = (
{
closed = 1;
nodes = (
(605,717,o),
(753,577,o),
(753,358,cs),
(753,141,o),
(607,-8,o),
(387,-8,cs),
(170,-8,o),
(28,136,o),
(28,353,cs),
(28,574,o),
(176,717,o),
(392,717,cs)
);
},
{
closed = 1;
nodes = (
(213,260,o),
(266,163,o),
(391,163,cs),
(519,163,o),
(568,266,o),
(568,353,cs),
(568,437,o),
(522,546,o),
(390,546,cs),
(264,546,o),
(213,447,o),
(213,354,cs)
);
},
{
closed = 1;
nodes = (
(489,888,o),
(490,923,o),
(487,943,c),
(601,943,l),
(602,934,o),
(603,926,o),
(603,911,cs),
(603,835,o),
(577,758,o),
(489,758,cs),
(406,758,o),
(366,826,o),
(331,826,cs),
(304,826,o),
(299,783,o),
(305,763,c),
(190,763,l),
(189,772,o),
(188,780,o),
(188,794,cs),
(188,876,o),
(225,950,o),
(324,950,cs),
(395,950,o),
(425,888,o),
(462,888,cs)
);
}
);
width = 781;
}
);
leftKerningGroup = _kern3;
rightKerningGroup = _kern4;
unicode = 213;
},
{
glyphname = Odieresis;
layers = (
{
layerId = "B2143D7B-CF06-45D2-9FB8-E0BBADB08E6A";
name = img;
width = 781;
},
{
layerId = "690A5C2F-BA8A-4547-B0C9-560CF3D7C21C";
shapes = (
{
closed = 1;
nodes = (
(605,717,o),
(753,577,o),
(753,358,cs),
(753,141,o),
(607,-8,o),
(387,-8,cs),
(170,-8,o),
(28,136,o),
(28,353,cs),
(28,574,o),
(176,717,o),
(392,717,cs)
);
},
{
closed = 1;
nodes = (
(213,260,o),
(266,163,o),
(391,163,cs),
(519,163,o),
(568,266,o),
(568,353,cs),
(568,437,o),
(522,546,o),
(390,546,cs),
(264,546,o),
(213,447,o),
(213,354,cs)
);
},
{
closed = 1;
nodes = (
(314,944,o),
(360,910,o),
(360,848,cs),
(360,788,o),
(316,757,o),
(265,757,cs),
(214,757,o),
(170,788,o),
(170,848,cs),
(170,909,o),
(215,944,o),
(265,944,cs)
);
},
{
closed = 1;
nodes = (
(573,944,o),
(617,910,o),
(617,849,cs),
(617,788,o),
(575,757,o),
(524,757,cs),
(474,757,o),
(427,788,o),
(427,848,cs),
(427,909,o),
(474,944,o),
(524,944,cs)
);
}
);
width = 781;
}
);
leftKerningGroup = _kern3;
rightKerningGroup = _kern4;
unicode = 214;
},
{
glyphname = Oslash;
layers = (
{
layerId = "B2143D7B-CF06-45D2-9FB8-E0BBADB08E6A";
name = img;
width = 781;
},
{
layerId = "690A5C2F-BA8A-4547-B0C9-560CF3D7C21C";
shapes = (
{
closed = 1;
nodes = (
(315,-112,l),
(142,-112,l),
(195,40,l),
(90,100,o),
(28,210,o),
(28,352,cs),
(28,572,o),
(176,717,o),
(387,717,cs),
(404,717,o),
(416,716,o),
(428,715,c),
(464,821,l),
(638,821,l),
(586,669,l),
(690,609,o),
(753,501,o),
(753,358,cs),
(753,142,o),
(608,-8,o),
(391,-8,cs),
(376,-8,o),
(364,-8,o),
(352,-7,c)
);
},
{
closed = 1;
nodes = (
(379,545,l),
(274,540,o),
(213,461,o),
(213,354,cs),
(213,297,o),
(230,249,o),
(265,213,c)
);
},
{
closed = 1;
nodes = (
(400,163,l),
(508,166,o),
(568,251,o),
(568,354,cs),
(568,409,o),
(551,461,o),
(516,496,c)
);
}
);
width = 781;
}
);
leftKerningGroup = _kern3;
rightKerningGroup = _kern4;
unicode = 216;
},
{
glyphname = Ugrave;
layers = (
{
layerId = "B2143D7B-CF06-45D2-9FB8-E0BBADB08E6A";
name = img;
width = 745;
},
{
layerId = "690A5C2F-BA8A-4547-B0C9-560CF3D7C21C";
shapes = (
{
closed = 1;
nodes = (
(161,-8,o),
(62,106,o),
(62,326,cs),
(62,708,l),
(243,708,l),
(243,315,ls),
(243,238,o),
(272,161,o),
(376,161,cs),
(481,161,o),
(502,240,o),
(502,315,cs),
(502,708,l),
(683,708,l),
(683,326,ls),
(683,107,o),
(587,-8,o),
(374,-8,cs)
);
},
{
closed = 1;
nodes = (
(334,758,l),
(163,950,l),
(350,950,l),
(482,758,l)
);
}
);
width = 745;
}
);
leftKerningGroup = _kern1;
rightKerningGroup = _kern2;
unicode = 217;
},
{
glyphname = Uacute;
layers = (
{
layerId = "B2143D7B-CF06-45D2-9FB8-E0BBADB08E6A";
name = img;
width = 745;
},
{
layerId = "690A5C2F-BA8A-4547-B0C9-560CF3D7C21C";
shapes = (
{
closed = 1;
nodes = (
(161,-8,o),
(62,106,o),
(62,326,cs),
(62,708,l),
(243,708,l),
(243,315,ls),
(243,238,o),
(272,161,o),
(376,161,cs),
(481,161,o),
(502,240,o),
(502,315,cs),
(502,708,l),
(683,708,l),
(683,326,ls),
(683,107,o),
(587,-8,o),
(374,-8,cs)
);
},
{
closed = 1;
nodes = (
(401,758,l),
(253,758,l),
(385,950,l),
(572,950,l)
);
}
);
width = 745;
}
);
leftKerningGroup = _kern1;
rightKerningGroup = _kern2;
unicode = 218;
},
{
glyphname = Ucircumflex;
layers = (
{
layerId = "B2143D7B-CF06-45D2-9FB8-E0BBADB08E6A";
name = img;
width = 745;
},
{
layerId = "690A5C2F-BA8A-4547-B0C9-560CF3D7C21C";
shapes = (
{
closed = 1;
nodes = (
(161,-8,o),
(62,106,o),
(62,326,cs),
(62,708,l),
(243,708,l),
(243,315,ls),
(243,238,o),
(272,161,o),
(376,161,cs),
(481,161,o),
(502,240,o),
(502,315,cs),
(502,708,l),
(683,708,l),
(683,326,ls),
(683,107,o),
(587,-8,o),
(374,-8,cs)
);
},
{
closed = 1;
nodes = (
(429,950,l),
(598,758,l),
(432,758,l),
(371,842,l),
(313,758,l),
(147,758,l),
(313,950,l)
);
}
);
width = 745;
}
);
leftKerningGroup = _kern1;
rightKerningGroup = _kern2;
unicode = 219;
},
{
glyphname = Yacute;
layers = (
{
layerId = "B2143D7B-CF06-45D2-9FB8-E0BBADB08E6A";
name = img;
width = 727;
},
{
layerId = "690A5C2F-BA8A-4547-B0C9-560CF3D7C21C";
shapes = (
{
closed = 1;
nodes = (
(522,708,l),
(727,708,l),
(453,264,l),
(453,0,l),
(272,0,l),
(272,263,l),
(0,708,l),
(209,708,l),
(363,427,l)
);
},
{
closed = 1;
nodes = (
(412,758,l),
(264,758,l),
(396,950,l),
(583,950,l)
);
}
);
width = 727;
}
);
leftKerningGroup = _kern31;
rightKerningGroup = _kern31;
unicode = 221;
},
{
glyphname = Thorn;
layers = (
{
layerId = "B2143D7B-CF06-45D2-9FB8-E0BBADB08E6A";
name = img;
width = 660;
},
{
layerId = "690A5C2F-BA8A-4547-B0C9-560CF3D7C21C";
shapes = (
{
closed = 1;
nodes = (
(248,0,l),
(67,0,l),
(67,708,l),
(248,708,l),
(248,608,l),
(354,608,ls),
(525,608,o),
(635,541,o),
(635,357,cs),
(635,184,o),
(509,99,o),
(347,99,cs),
(248,99,l)
);
},
{
closed = 1;
nodes = (
(248,440,l),
(248,260,l),
(347,260,ls),
(407,260,o),
(457,286,o),
(457,351,cs),
(457,423,o),
(408,440,o),
(346,440,cs)
);
}
);
width = 660;
}
);
leftKerningGroup = _kern1;
unicode = 222;
},
